<svg width="25" height="24" viewBox="0 0 25 24" fill="none" xmlns="http://www.w3.org/2000/svg">
<path d="M5.49609 8.87832C4.10007 8.87832 2.96484 7.7431 2.96484 6.34707C2.96484 4.95104 4.10007 3.81582 5.49609 3.81582C6.89212 3.81582 8.02734 4.95104 8.02734 6.34707C8.02734 7.7431 6.89212 8.87832 5.49609 8.87832ZM19.5023 8.87832C18.1063 8.87832 16.9711 7.7431 16.9711 6.34707C16.9711 4.95104 18.1063 3.81582 19.5023 3.81582C20.8984 3.81582 22.0336 4.95104 22.0336 6.34707C22.0336 7.7431 20.8984 8.87832 19.5023 8.87832ZM12.4992 7.52832C10.7546 7.52832 9.33516 6.10884 9.33516 4.36426C9.33516 2.61968 10.7546 1.2002 12.4992 1.2002C14.2438 1.2002 15.6633 2.61968 15.6633 4.36426C15.6633 6.10884 14.2438 7.52832 12.4992 7.52832ZM13.132 7.59228V11.958C13.132 12.3078 12.849 12.5908 12.4992 12.5908C12.1494 12.5908 11.8664 12.3078 11.8664 11.958V7.59228C9.72539 7.90265 8.06953 9.73241 8.06953 11.958V15.7549C8.06953 16.1047 8.35257 16.3877 8.70234 16.3877H10.12L10.6033 22.2205C10.6304 22.548 10.9048 22.8002 11.2336 22.8002H13.7648C14.0936 22.8002 14.368 22.548 14.3952 22.2205L14.8784 16.3877H16.2961C16.6459 16.3877 16.9289 16.1047 16.9289 15.7549V11.958C16.9289 9.73241 15.273 7.90265 13.132 7.59228ZM6.76172 15.8393V12.0424C6.76172 11.0938 7.01695 10.2124 7.42875 9.42499C6.86052 9.0858 6.20459 8.87832 5.49609 8.87832C3.40237 8.87832 1.69922 10.5815 1.69922 12.6752V15.8393C1.69922 16.189 1.98225 16.4721 2.33203 16.4721H3.02479L3.60074 22.2304C3.63288 22.5536 3.90541 22.8002 4.23047 22.8002H6.76172C7.08677 22.8002 7.3593 22.5536 7.39145 22.2304L7.85918 17.5542C7.21308 17.251 6.76172 16.5989 6.76172 15.8393ZM23.2992 12.6752C23.2992 10.5815 21.5961 8.87832 19.5023 8.87832C18.7938 8.87832 18.1379 9.0858 17.5697 9.42499C17.9815 10.2124 18.2367 11.0938 18.2367 12.0424V15.8393C18.2367 16.5989 17.7854 17.251 17.1393 17.5542L17.607 22.2304C17.6391 22.5536 17.9117 22.8002 18.2367 22.8002H20.768C21.093 22.8002 21.3656 22.5536 21.3977 22.2304L21.9736 16.4721H22.6664C23.0162 16.4721 23.2992 16.189 23.2992 15.8393V12.6752Z" fill="#FD2626"/>
</svg>
