<svg width="16" height="17" viewBox="0 0 16 17" fill="none" xmlns="http://www.w3.org/2000/svg">
<path d="M0.561025 3.62399C0.186336 3.2761 0 2.84549 0 2.33313C0 1.82077 0.187333 1.37121 0.561025 1.02233C0.935714 0.67444 1.41803 0.5 2.00896 0.5C2.59989 0.5 3.06328 0.67444 3.43697 1.02233C3.81166 1.37021 3.998 1.80781 3.998 2.33313C3.998 2.85845 3.81067 3.2761 3.43697 3.62399C3.06228 3.97188 2.58694 4.14632 2.00896 4.14632C1.43098 4.14632 0.935714 3.97188 0.561025 3.62399ZM3.68311 5.6196V16.2854H0.313892V5.6196H3.68311Z" fill="#303030"/>
<path d="M14.9 6.67371C15.6344 7.47115 16.0011 8.56565 16.0011 9.95919V16.0975H12.8013V10.3918C12.8013 9.68905 12.619 9.1428 12.2552 8.75404C11.8915 8.36529 11.4012 8.16992 10.7874 8.16992C10.1735 8.16992 9.68322 8.36429 9.31949 8.75404C8.95577 9.1428 8.77341 9.68905 8.77341 10.3918V16.0975H5.55469V5.59018H8.77341V6.98371C9.09927 6.5192 9.53875 6.15238 10.0908 5.88225C10.6429 5.61211 11.2637 5.47754 11.9543 5.47754C13.184 5.47754 14.1665 5.87626 14.9 6.67271V6.67371Z" fill="#303030"/>
</svg>
