<svg width="7" height="12" viewBox="0 0 7 12" fill="none" xmlns="http://www.w3.org/2000/svg">
<path d="M0.668638 1.13135C0.559206 1.00544 0.498654 0.836814 0.500023 0.661777C0.501391 0.48674 0.564572 0.319298 0.675956 0.195523C0.78734 0.0717489 0.938016 0.00154628 1.09553 2.52632e-05C1.25305 -0.00149575 1.4048 0.0657898 1.5181 0.187395L6.32411 5.52802C6.43673 5.65321 6.5 5.82298 6.5 6C6.5 6.17702 6.43673 6.34679 6.32411 6.47198L1.5181 11.8126C1.4048 11.9342 1.25305 12.0015 1.09553 12C0.938016 11.9985 0.78734 11.9283 0.675956 11.8045C0.564571 11.6807 0.501391 11.5133 0.500022 11.3382C0.498653 11.1632 0.559206 10.9946 0.668638 10.8686L5.04992 6L0.668638 1.13135Z" fill="#333D45"/>
</svg>
