<svg width="154" height="81" viewBox="0 0 154 81" fill="none" xmlns="http://www.w3.org/2000/svg">
<rect width="152" height="79.3317" transform="matrix(1 0 0 -1 1 80)" fill="white" fill-opacity="0.1"/>
<rect width="152" height="79.3317" transform="matrix(1 0 0 -1 1 80)" stroke="white" stroke-opacity="0.04" stroke-width="0.133333" stroke-miterlimit="10"/>
<path d="M27.0829 34.515H41.3447V22.4196C41.3447 21.5665 40.6489 20.8717 39.7937 20.8717H28.631C27.7773 20.8717 27.0829 21.5665 27.0829 22.4196V34.515ZM42.2344 35.4046H26.1933V22.4196C26.1933 21.0754 27.2868 19.982 28.631 19.982H39.7937C41.1394 19.982 42.2344 21.0754 42.2344 22.4196V35.4046ZM32.8038 50.5168C32.8036 50.5168 32.8033 50.5177 32.803 50.5177L32.8038 50.5168ZM35.5636 50.7089C35.5629 50.7089 35.5624 50.7098 35.5618 50.7098C35.5623 50.7098 35.5629 50.7089 35.5636 50.7089ZM32.1969 53.8208H36.2304L34.8178 50.8993C34.7331 50.7196 34.7239 50.5176 34.792 50.3299C34.8609 50.1404 35.0003 49.9892 35.1846 49.9038C36.0858 49.4768 36.605 48.5222 36.4729 47.5294C36.3894 46.9093 36.0421 46.3426 35.5201 45.9752C35.2083 45.7572 34.8467 45.6194 34.4751 45.5775C33.9161 45.5135 33.3599 45.6549 32.9085 45.9743C32.2968 46.4031 31.9328 47.1006 31.9328 47.8417C31.9328 48.7188 32.4483 49.5284 33.2462 49.9056C33.4263 49.9892 33.5698 50.1458 33.6367 50.3344C33.7036 50.523 33.6919 50.7258 33.6037 50.9055L32.1969 53.8208ZM32.0969 54.0272L32.0967 54.0281C32.0968 54.0281 32.0969 54.0281 32.0969 54.0272ZM36.4605 54.7105H31.967C31.708 54.7105 31.4716 54.5797 31.3344 54.36C31.1976 54.142 31.1832 53.8724 31.2959 53.6403L32.7408 50.6467C31.7038 50.0986 31.0432 49.0133 31.0432 47.8417C31.0432 46.8106 31.5489 45.8409 32.3961 45.2475C33.0244 44.8018 33.7989 44.6052 34.575 44.6933C35.0932 44.752 35.5973 44.9432 36.0315 45.2475C36.756 45.7572 37.238 46.5464 37.3546 47.4111C37.532 48.7437 36.8641 50.0275 35.6845 50.6484L37.1319 53.6411C37.244 53.8724 37.2294 54.1411 37.0925 54.36C36.955 54.5788 36.7187 54.7105 36.4605 54.7105ZM21.7985 35.4046C20.3031 35.4046 18.8169 35.6164 17.3811 36.0345L17.0995 36.1164C16.976 36.1528 16.8896 36.2676 16.8896 36.3966V62.9867C16.8896 63.1148 16.9773 63.2304 17.103 63.2678C18.7241 63.7402 20.4 63.9795 22.0862 63.9795H46.3385C48.0265 63.9795 49.7041 63.7393 51.3249 63.2669C51.4473 63.2304 51.5349 63.1148 51.5349 62.9867V36.3966C51.5349 36.2676 51.4485 36.1528 51.3248 36.1164L51.0485 36.0354C49.6112 35.6164 48.1234 35.4046 46.6265 35.4046H45.5246V22.4196C45.5246 19.2597 42.9537 16.6886 39.7937 16.6886H28.631C25.471 16.6886 22.9001 19.2597 22.9001 22.4196V35.4046H21.7985ZM46.3385 64.8691H22.0862C20.3159 64.8691 18.5562 64.6183 16.8562 64.1227L16.8473 64.1201C16.3485 63.9706 16 63.5044 16 62.9867V36.3966C16 35.8744 16.3499 35.4082 16.8507 35.2623L17.1324 35.1805C18.649 34.7383 20.219 34.515 21.7985 34.515H22.0105V22.4196C22.0105 18.7695 24.9804 15.799 28.631 15.799H39.7937C43.4442 15.799 46.4142 18.7695 46.4142 22.4196V34.515H46.6265C48.2078 34.515 49.7793 34.7392 51.2975 35.1813L51.5738 35.2623C52.0747 35.4082 52.4245 35.8744 52.4245 36.3966V62.9867C52.4245 63.5044 52.0761 63.9706 51.5772 64.1201C49.8723 64.6174 48.1108 64.8691 46.3385 64.8691Z" fill="white" fill-opacity="0.5"/>
<path d="M77.6283 54.6891C77.5385 54.8741 77.3979 55.02 77.2075 55.1268C77.015 55.2336 76.7658 55.2869 76.459 55.2869H75.2633V52.8431H76.4464C76.7606 52.8431 77.0132 52.8947 77.2057 52.9988C77.3979 53.1029 77.5385 53.2461 77.6283 53.4294C77.7173 53.6118 77.7626 53.8217 77.7626 54.0575C77.7626 54.2932 77.7173 54.5041 77.6283 54.6891ZM78.4735 53.0246C78.3151 52.7186 78.0758 52.4766 77.7564 52.2996C77.437 52.1234 77.0337 52.0345 76.5479 52.0345H74.3203V58.2832H75.2633V56.0867H76.5444C77.0283 56.0867 77.4317 55.9977 77.752 55.8198C78.0722 55.6419 78.3124 55.3999 78.4717 55.093C78.6318 54.787 78.711 54.4418 78.711 54.0575C78.711 53.6749 78.6318 53.3306 78.4735 53.0246Z" fill="white" fill-opacity="0.9"/>
<path d="M83.0624 55.7575C82.791 55.8599 82.4708 55.9132 82.1016 55.9177L83.3711 58.2832H84.4457L83.0624 55.7575Z" fill="white" fill-opacity="0.9"/>
<path d="M83.1201 54.5948C83.0312 54.7612 82.8897 54.8884 82.6976 54.9756C82.5054 55.0636 82.2572 55.1072 81.9521 55.1072H80.7555V52.8431H81.9396C82.251 52.8431 82.5027 52.8894 82.6949 52.9819C82.8871 53.0744 83.0285 53.207 83.1193 53.3805C83.2091 53.553 83.2545 53.7577 83.2545 53.9934C83.2545 54.2274 83.21 54.4276 83.1201 54.5948ZM83.9662 52.9757C83.8069 52.6821 83.5676 52.4517 83.2474 52.2844C82.9271 52.1181 82.5241 52.0345 82.0401 52.0345H79.8125V58.2832H80.7555V55.9186H82.0375C82.0579 55.9186 82.0784 55.9186 82.098 55.9177C82.4672 55.9132 82.7874 55.8599 83.0588 55.7575C83.1228 55.7344 83.1851 55.7077 83.2438 55.6775C83.5641 55.5173 83.8043 55.2914 83.9644 55.0022C84.1236 54.7122 84.2037 54.376 84.2037 53.9934C84.2037 53.6091 84.1245 53.2701 83.9662 52.9757Z" fill="white" fill-opacity="0.9"/>
<path d="M89.8526 55.1594C89.8526 54.6505 89.7708 54.2217 89.6071 53.873C89.4434 53.5242 89.2192 53.26 88.9354 53.0803C88.6516 52.8997 88.3313 52.8098 87.9728 52.8098C87.6125 52.8098 87.2914 52.8997 87.0085 53.0803C86.7256 53.26 86.5023 53.5242 86.3386 53.873C86.1749 54.2217 86.093 54.6505 86.093 55.1594C86.093 55.6682 86.1749 56.097 86.3386 56.4458C86.5023 56.7945 86.7256 57.0587 87.0085 57.2384C87.2914 57.419 87.6125 57.5089 87.9728 57.5089C88.3313 57.5089 88.6516 57.419 88.9354 57.2384C89.2192 57.0587 89.4434 56.7945 89.6071 56.4458C89.7708 56.097 89.8526 55.6682 89.8526 55.1594ZM90.7858 55.1594C90.7858 55.8266 90.6639 56.3995 90.4202 56.879C90.1755 57.3576 89.8419 57.7259 89.4176 57.983C88.9932 58.241 88.5119 58.3691 87.9728 58.3691C87.4319 58.3691 86.9489 58.241 86.5254 57.983C86.101 57.7259 85.7665 57.3576 85.5228 56.8772C85.2781 56.3968 85.1562 55.8248 85.1562 55.1594C85.1562 54.4921 85.2781 53.9192 85.5228 53.4397C85.7665 52.9611 86.101 52.5928 86.5254 52.3357C86.9489 52.0777 87.4319 51.9496 87.9728 51.9496C88.5119 51.9496 88.9932 52.0777 89.4176 52.3357C89.8419 52.5928 90.1755 52.9611 90.4202 53.4397C90.6639 53.9192 90.7858 54.4921 90.7858 55.1594Z" fill="white" fill-opacity="0.9"/>
<path d="M91.3828 52.8458V52.0345H96.2188V52.8458H94.2697V58.2832H93.3293V52.8458H91.3828Z" fill="white" fill-opacity="0.9"/>
<path d="M97.2852 58.2832V52.0345H101.203V52.8458H98.2282V54.7496H100.998V55.5583H98.2282V57.4719H101.24V58.2832H97.2852Z" fill="white" fill-opacity="0.9"/>
<path d="M107.657 54.0669H106.705C106.668 53.8632 106.601 53.6844 106.501 53.5296C106.401 53.3757 106.279 53.244 106.135 53.1363C105.991 53.0287 105.829 52.9468 105.651 52.8926C105.473 52.8374 105.284 52.8098 105.085 52.8098C104.725 52.8098 104.403 52.9006 104.12 53.0812C103.836 53.2627 103.612 53.5278 103.448 53.8774C103.284 54.2279 103.202 54.6549 103.202 55.1594C103.202 55.6682 103.284 56.097 103.448 56.4467C103.612 56.7972 103.836 57.0614 104.121 57.2402C104.405 57.419 104.725 57.5089 105.082 57.5089C105.279 57.5089 105.467 57.4822 105.644 57.4279C105.823 57.3745 105.984 57.2945 106.128 57.1886C106.273 57.0827 106.395 56.9528 106.496 56.7998C106.597 56.6459 106.667 56.4698 106.705 56.2705L107.657 56.2732C107.606 56.5801 107.508 56.8621 107.363 57.1201C107.217 57.3772 107.031 57.5987 106.805 57.7847C106.578 57.9715 106.319 58.1147 106.028 58.217C105.737 58.3184 105.419 58.3691 105.076 58.3691C104.534 58.3691 104.053 58.241 103.629 57.983C103.206 57.7259 102.873 57.3576 102.63 56.8772C102.387 56.3968 102.266 55.8248 102.266 55.1594C102.266 54.4921 102.388 53.9192 102.631 53.4397C102.876 52.9611 103.21 52.5928 103.632 52.3357C104.056 52.0777 104.537 51.9496 105.076 51.9496C105.407 51.9496 105.717 51.9967 106.005 52.091C106.293 52.1862 106.552 52.3241 106.781 52.5065C107.011 52.688 107.201 52.9104 107.352 53.171C107.503 53.4326 107.604 53.7315 107.657 54.0669Z" fill="white" fill-opacity="0.9"/>
<path d="M108.477 52.8458V52.0345H113.313V52.8458H111.363V58.2832H110.423V52.8458H108.477Z" fill="white" fill-opacity="0.9"/>
<path d="M114.379 58.2832V52.0345H118.297V52.8458H115.322V54.7496H118.092V55.5583H115.322V57.4719H118.333V58.2832H114.379Z" fill="white" fill-opacity="0.9"/>
<path d="M120.506 57.4594H121.534C122.01 57.4594 122.406 57.3696 122.721 57.1899C123.036 57.0093 123.272 56.7477 123.429 56.4052C123.585 56.0627 123.664 55.6437 123.664 55.1499C123.664 54.6597 123.585 54.2434 123.43 53.9018C123.275 53.5602 123.043 53.3004 122.736 53.1234C122.429 52.9463 122.047 52.8582 121.592 52.8582H120.506V57.4594ZM121.586 58.2832H119.562V52.0345H121.65C122.262 52.0345 122.787 52.159 123.227 52.4081C123.666 52.6572 124.004 53.0139 124.238 53.4792C124.473 53.9436 124.591 54.5005 124.591 55.1499C124.591 55.8003 124.472 56.3598 124.236 56.8278C123.999 57.2957 123.657 57.6551 123.209 57.9069C122.762 58.1578 122.221 58.2832 121.586 58.2832Z" fill="white" fill-opacity="0.9"/>
<path d="M109.335 23.6344C103.472 23.6344 98.7016 28.4046 98.7016 34.2681C98.7016 40.1317 103.472 44.9019 109.335 44.9019C115.199 44.9019 119.969 40.1317 119.969 34.2681C119.969 28.4046 115.199 23.6344 109.335 23.6344ZM109.335 46.2363C102.736 46.2363 97.3672 40.8674 97.3672 34.2681C97.3672 27.6689 102.736 22.3 109.335 22.3C115.935 22.3 121.304 27.6689 121.304 34.2681C121.304 40.8674 115.935 46.2363 109.335 46.2363Z" fill="white" fill-opacity="0.9"/>
<path d="M64.8217 39.3889H66.9784C67.9823 39.3889 68.8279 39.21 69.5155 38.8524C70.203 38.4939 70.7206 37.937 71.0685 37.1817C71.416 36.4255 71.59 35.4496 71.59 34.2521C71.59 33.0654 71.416 32.0957 71.0685 31.3422C70.7206 30.5895 70.2044 30.0353 69.5194 29.6794C68.8344 29.3245 67.9902 29.1466 66.9863 29.1466H64.8217V39.3889ZM67.1196 42.2988H61.4258V26.2366H67.1666C68.7822 26.2366 70.173 26.5577 71.339 27.1974C72.5049 27.8379 73.4028 28.7569 74.033 29.9543C74.6629 31.1518 74.978 32.5841 74.978 34.2521C74.978 35.9255 74.6629 37.3632 74.033 38.5659C73.4028 39.7687 72.5009 40.6913 71.3273 41.3345C70.1533 41.9777 68.7509 42.2988 67.1196 42.2988Z" fill="white" fill-opacity="0.9"/>
<path d="M77.4883 26.2366H81.6767L86.099 37.0287H86.2876L90.7108 26.2366H94.8992V42.2988H91.6049V31.8448H91.4715L87.3151 42.2205H85.0724L80.9151 31.8057H80.7817V42.2988H77.4883V26.2366Z" fill="white" fill-opacity="0.9"/>
<path d="M127.719 35.986L129.697 29.9072H129.822L131.796 35.986H127.719ZM131.948 26.2375H127.572L122.027 42.2988H125.666L126.857 38.6362H132.657L133.846 42.2988H137.485L131.948 26.2375Z" fill="white" fill-opacity="0.9"/>
<path d="M116.251 31.8609H112.816C112.753 31.417 112.625 31.0211 112.431 30.6732C112.238 30.3254 111.989 30.0283 111.686 29.7827C111.383 29.5372 111.034 29.3486 110.639 29.2178C110.244 29.0879 109.817 29.0221 109.357 29.0221C108.525 29.0221 107.801 29.2276 107.184 29.6377C106.567 30.0478 106.089 30.6439 105.749 31.4259C105.41 32.2078 105.24 33.1553 105.24 34.2691C105.24 35.4141 105.411 36.3758 105.753 37.1551C106.096 37.9344 106.575 38.5224 107.192 38.9201C107.809 39.3169 108.523 39.5153 109.333 39.5153C109.788 39.5153 110.21 39.4556 110.6 39.3355C110.989 39.2154 111.335 39.0384 111.639 38.8062C111.942 38.5731 112.195 38.2894 112.396 37.9548C112.597 37.6203 112.737 37.2387 112.816 36.8099L116.251 36.8259C116.162 37.5625 115.941 38.2724 115.588 38.9548C115.235 39.6371 114.761 40.2465 114.168 40.7821C113.575 41.3185 112.869 41.742 112.051 42.0525C111.232 42.3638 110.309 42.5195 109.279 42.5195C107.845 42.5195 106.566 42.1957 105.44 41.5472C104.313 40.8986 103.424 39.9601 102.773 38.7315C102.122 37.5029 101.797 36.0155 101.797 34.2691C101.797 32.5174 102.126 31.0273 102.784 29.7987C103.444 28.5701 104.338 27.6325 105.467 26.9866C106.596 26.3416 107.867 26.0187 109.279 26.0187C110.209 26.0187 111.073 26.1495 111.87 26.4101C112.668 26.6717 113.375 27.0524 113.992 27.5515C114.609 28.0506 115.112 28.6609 115.502 29.3833C115.891 30.1048 116.141 30.9303 116.251 31.8609Z" fill="#28DE22"/>
<path d="M35.3496 50.7113L36.8608 53.8365C36.9577 54.0358 36.8094 54.2671 36.5899 54.2671H32.0964C31.874 54.2671 31.7286 54.0358 31.8255 53.8365L33.3338 50.7113C33.408 50.56 33.3395 50.3803 33.1856 50.3092C32.2618 49.8732 31.6174 48.932 31.6174 47.8431C31.6174 46.9223 32.0764 46.1066 32.7807 45.6128C33.2997 45.2454 33.9553 45.0568 34.6539 45.1369C35.113 45.1885 35.5435 45.3593 35.9056 45.6128C36.5129 46.0407 36.9407 46.7106 37.0432 47.4721C37.2086 48.7149 36.53 49.8216 35.5007 50.3092C35.3468 50.3803 35.2784 50.56 35.3496 50.7113ZM26.7675 22.4211C26.7675 21.3233 27.6627 20.4283 28.7604 20.4283H39.9231C41.0237 20.4283 41.9189 21.3233 41.9189 22.4211V34.9613H26.7675V22.4211ZM51.5788 35.6908L51.3024 35.6098C49.8252 35.1792 48.2945 34.9613 46.7559 34.9613H46.0988V22.4211C46.0988 19.0102 43.3338 16.2453 39.9231 16.2453H28.7604C25.3497 16.2453 22.5847 19.0102 22.5847 22.4211V34.9613H21.9279C20.391 34.9613 18.8618 35.1792 17.3862 35.6089L17.1045 35.6908C16.7903 35.7824 16.5742 36.0707 16.5742 36.398V62.9881C16.5742 63.3137 16.7909 63.602 17.1045 63.6954L17.11 63.6972C18.7688 64.1802 20.4878 64.4258 22.2156 64.4258H46.4679C48.1975 64.4258 49.9183 64.1802 51.5789 63.6954C51.8925 63.602 52.1091 63.3137 52.1091 62.9881V36.398C52.1091 36.0707 51.8931 35.7824 51.5788 35.6908Z" fill="#28DE22"/>
</svg>
