<svg width="170" height="177" viewBox="0 0 170 177" fill="none" xmlns="http://www.w3.org/2000/svg">
<path fill-rule="evenodd" clip-rule="evenodd" d="M152.944 108.294C151.966 107.334 150.412 107.349 149.443 108.311C137.823 119.472 125.589 125.148 113.115 125.29C100.969 125.427 88.6982 120.165 76.659 109.739C73.9829 107.464 69.8463 102.726 66.2076 97.1315C69.2608 92.7459 71.2953 87.5524 72.2999 82.5489C73.7816 75.159 72.7027 68.3642 70.2607 64.999C68.9075 63.1355 67.1627 61.9936 65.1226 61.5175C62.5112 60.9119 58.963 61.4522 54.8906 64.9017C49.272 69.6832 47.9063 76.5105 49.5848 84.0243C50.4713 87.9743 52.2611 92.1194 54.4906 96.1029C51.9109 98.1593 48.7013 99.349 44.7952 98.9207C36.527 98.07 30.3276 91.2901 25.9179 83.3132C22.0936 76.4123 17.4864 66.2177 18.7043 58.1171C19.1166 55.3643 20.3225 52.9984 18.0474 50.7486C14.5642 47.2677 11.3713 50.871 10.7996 54.6519C9.57594 62.7742 12.4751 72.5583 15.3364 80.0512C20.5876 93.8399 30.4417 106.242 43.7474 107.951C49.9852 108.724 55.2781 107.068 59.5654 103.99C63.6349 109.63 68.0239 114.296 70.9037 116.638C85.1529 127.992 99.4935 133.273 113.369 132.47C127.23 131.674 140.674 124.878 152.961 111.79C153.923 110.814 153.922 109.254 152.944 108.294ZM60.5208 86.1824C59.6555 83.8908 59.0708 81.6394 58.8993 79.4985C58.6857 76.7761 59.2116 74.2515 61.3364 72.4574C61.6964 72.158 62.1349 71.74 62.495 71.4406C62.7658 72.386 63.2342 74.2455 63.2411 75.7837C63.2406 79.217 62.459 83.3025 60.8902 87.1076C60.7427 86.7888 60.6248 86.4896 60.5208 86.1824Z" fill="#303030"/>
<path fill-rule="evenodd" clip-rule="evenodd" d="M62.8217 71.1792C63.065 71.3142 63.2983 71.3999 63.2796 71.2088C63.2508 70.9685 63.0892 71.0066 62.8217 71.1792Z" fill="#303030"/>
<path fill-rule="evenodd" clip-rule="evenodd" d="M146.136 113.724C145.004 116.249 143.91 118.936 143.129 121.497C141.929 125.494 141.414 129.15 142.401 131.812C142.709 133.14 144.05 133.964 145.372 133.643C146.701 133.335 147.527 131.996 147.205 130.677C147.137 130.018 147.367 129.335 147.584 128.567C148.082 126.756 149.195 124.866 150.406 122.827C151.955 120.227 153.817 117.63 155.406 115.227C156.852 113.053 158.057 111.036 158.824 109.437C160.036 106.922 160.101 104.809 159.827 103.572C159.751 103.249 157.065 98.4452 152.472 100.359C150.831 101.048 146.761 103.009 146.56 103.106C144.116 104.443 139.575 106.859 135.25 108.122C133.883 108.525 132.563 108.882 131.361 108.932C131.297 108.822 131.234 108.712 131.156 108.61C130.033 107.018 127.849 106.643 126.247 107.75C125.359 108.281 124.2 109.775 123.89 110.669C123.296 112.407 123.958 113.807 125.582 114.963C127.795 116.533 130.996 116.982 134.595 116.688C138.377 116.361 142.662 115.029 146.136 113.724ZM150.13 105.656C150.399 105.134 150.49 104.751 150.128 104.666C149.723 104.569 149.992 105.259 150.13 105.656Z" fill="#303030"/>
</svg>
