<svg width="32" height="32" viewBox="0 0 32 32" fill="none" xmlns="http://www.w3.org/2000/svg">
<g filter="url(#filter0_b_108_51011)">
<path d="M32 15.9948C32 22.6746 31.9931 24.6282 31.9616 25.008C31.8476 26.3788 31.6317 27.2318 31.1689 28.1611C30.8132 28.8773 30.4008 29.4421 29.8228 29.9995C28.7687 31.0147 27.4719 31.63 25.9303 31.8527C25.1819 31.961 25.0293 31.9925 21.2067 31.9989C19.9325 32.0014 18.2556 31.9989 16.0063 31.9989C9.33002 31.9989 7.37786 31.9915 6.99875 31.9595C5.66448 31.8488 4.82502 31.6396 3.90679 31.1966C2.1491 30.35 0.829607 28.7331 0.337258 26.8282C0.167399 26.1686 0.0738509 25.4401 0.0295394 24.5049C0.0123085 24.1087 5.21474e-07 20.0701 6.98115e-07 16.029C8.74757e-07 11.9879 0.00492201 7.94681 0.0246173 7.56042C0.0755741 6.47755 0.160016 5.84875 0.339723 5.15349C0.834535 3.23632 2.13434 1.64892 3.91664 0.785083C4.81272 0.350703 5.68417 0.130437 6.94877 0.0307625C7.22449 0.00910651 11.6204 -8.90819e-07 16.0105 -6.98925e-07C20.4012 -5.06998e-07 24.7891 0.0098416 25.0648 0.0314996C26.3498 0.132404 27.2139 0.352674 28.1272 0.801082C28.8748 1.16901 29.4331 1.57755 30.004 2.17067C31.0153 3.22918 31.6307 4.5237 31.8533 6.06631C31.9614 6.81374 31.9934 6.96263 32 10.7871L32 15.9948Z" fill="white" fill-opacity="0.05"/>
<path d="M27.8164 16.0023C27.8164 19.2105 27.8024 19.6131 27.745 20.8732C27.6874 22.1308 27.4883 22.9893 27.196 23.7404C26.8942 24.5173 26.4905 25.1764 25.8335 25.833C25.1767 26.4901 24.5174 26.8937 23.7405 27.1965C22.9889 27.4893 22.13 27.6887 20.8726 27.7453C19.6121 27.8016 19.2092 27.8164 16 27.8164C12.7909 27.8164 12.3894 27.8021 11.129 27.745C9.87101 27.6872 9.01235 27.4881 8.26102 27.1962C7.48385 26.8942 6.82459 26.4906 6.1678 25.8338C5.51051 25.1774 5.1058 24.5183 4.80399 23.7418C4.51178 22.9902 4.31263 22.1316 4.25502 20.8742C4.19766 19.6141 4.18363 19.2117 4.18363 16.0037C4.18363 12.7952 4.19766 12.3938 4.25502 11.1338C4.31263 9.87615 4.51178 9.01674 4.80399 8.26513C5.1058 7.48842 5.51051 6.83033 6.1678 6.17395C6.82459 5.51685 7.48385 5.11323 8.26078 4.81052C9.01235 4.52011 9.87125 4.32077 11.1287 4.2617C12.3891 4.2051 12.7909 4.19033 16 4.19033C19.2092 4.19033 19.6119 4.2051 20.8723 4.2617C22.1303 4.32077 22.9889 4.52011 23.7402 4.81052C24.5174 5.11324 25.1767 5.51685 25.8335 6.17396C26.4908 6.83106 26.8945 7.48817 27.196 8.26587C27.4883 9.01896 27.6874 9.87788 27.745 11.1355C27.8024 12.3956 27.8164 12.7967 27.8164 16.006L27.8164 16.0023ZM25.687 17.062C25.6875 16.7475 25.687 16.3965 25.687 16.0023C25.687 12.8481 25.6757 12.4743 25.6191 11.2288C25.5664 10.077 25.3739 9.45186 25.2121 9.03545C24.998 8.48417 24.7419 8.09113 24.3284 7.67792C23.9148 7.26446 23.5209 7.00851 22.9695 6.7939C22.5534 6.63221 21.9282 6.43951 20.7761 6.38709C19.5304 6.33048 19.1562 6.31818 16.0027 6.31818C12.8492 6.31818 12.475 6.33048 11.2294 6.38709C10.0773 6.43975 9.45202 6.63221 9.03598 6.7939C8.48455 7.00802 8.0919 7.26446 7.67857 7.67792C7.265 8.09138 7.00898 8.48392 6.79481 9.03545C6.63233 9.45137 6.44032 10.077 6.38764 11.2288C6.33102 12.4741 6.31871 12.8481 6.31871 16.0023C6.3187 19.1566 6.33101 19.5305 6.38763 20.7758C6.44081 21.9275 6.63332 22.5527 6.79505 22.9693C7.00923 23.5206 7.26525 23.9144 7.67882 24.3278C8.09239 24.7413 8.48529 24.9972 9.03697 25.2118C9.453 25.3735 10.0783 25.5662 11.2304 25.6187C12.476 25.6753 12.8502 25.6866 16.0057 25.6866C19.1611 25.6866 19.5334 25.6753 20.779 25.6187C21.9311 25.566 22.5564 25.3735 22.9729 25.2119C23.5243 24.9977 23.9182 24.7413 24.3318 24.3278C24.7454 23.9144 25.0014 23.5206 25.2161 22.9693C25.3785 22.5529 25.5706 21.9275 25.6235 20.7758C25.6727 19.686 25.6875 19.2637 25.6899 17.062L25.687 17.062ZM23.725 9.69649C23.725 10.4791 23.0906 11.1141 22.3075 11.1141C21.5247 11.1141 20.8895 10.4791 20.8895 9.69649C20.8895 8.91387 21.5247 8.27891 22.3075 8.27891C23.0903 8.27891 23.7255 8.91387 23.7255 9.69649L23.725 9.69649ZM22.0682 16.0023C22.0682 19.3525 19.3512 22.0688 16 22.0688C12.6488 22.0688 9.93304 19.3525 9.93304 16.0023C9.93304 12.652 12.6488 9.93669 16 9.93669C19.3512 9.93669 22.0682 12.652 22.0682 16.0023ZM19.9388 16.0023C19.9388 13.8277 18.1755 12.0645 16 12.0645C13.8248 12.0645 12.0612 13.8277 12.0612 16.0023C12.0612 18.1771 13.8248 19.94 16 19.94C18.1755 19.94 19.9388 18.1771 19.9388 16.0023Z" fill="white"/>
</g>
<defs>
<filter id="filter0_b_108_51011" x="-4" y="-4" width="40" height="40" filterUnits="userSpaceOnUse" color-interpolation-filters="sRGB">
<feFlood flood-opacity="0" result="BackgroundImageFix"/>
<feGaussianBlur in="BackgroundImageFix" stdDeviation="2"/>
<feComposite in2="SourceAlpha" operator="in" result="effect1_backgroundBlur_108_51011"/>
<feBlend mode="normal" in="SourceGraphic" in2="effect1_backgroundBlur_108_51011" result="shape"/>
</filter>
</defs>
</svg>
