<svg width="32" height="32" viewBox="0 0 32 32" fill="none" xmlns="http://www.w3.org/2000/svg">
<g filter="url(#filter0_b_108_51005)">
<rect width="32" height="32" rx="16" fill="white" fill-opacity="0.05"/>
<path d="M12.4369 9.48798C12.4369 9.97079 12.2937 10.4428 12.0255 10.8442C11.7573 11.2456 11.376 11.5585 10.93 11.7433C10.4839 11.928 9.99309 11.9764 9.51956 11.8822C9.04603 11.788 8.61107 11.5555 8.26967 11.2141C7.92828 10.8727 7.69578 10.4377 7.60159 9.96422C7.5074 9.49069 7.55574 8.99987 7.74051 8.55381C7.92527 8.10776 8.23815 7.72651 8.63959 7.45828C9.04103 7.19004 9.51299 7.04688 9.9958 7.04688C10.6432 7.04688 11.2641 7.30406 11.7219 7.76186C12.1797 8.21966 12.4369 8.84056 12.4369 9.48798ZM11.8836 13.5565V24.3413C11.884 24.4209 11.8687 24.4997 11.8386 24.5734C11.8084 24.647 11.764 24.7139 11.7079 24.7703C11.6518 24.8268 11.5851 24.8715 11.5116 24.9021C11.4382 24.9326 11.3594 24.9483 11.2798 24.9483H8.70689C8.62733 24.9485 8.54851 24.933 8.47496 24.9027C8.40142 24.8723 8.33459 24.8278 8.27833 24.7715C8.22207 24.7152 8.17749 24.6484 8.14714 24.5749C8.11679 24.5013 8.10128 24.4225 8.1015 24.3429V13.5565C8.1015 13.3959 8.16528 13.2419 8.27881 13.1284C8.39235 13.0149 8.54633 12.9511 8.70689 12.9511H11.2798C11.4401 12.9515 11.5937 13.0155 11.7068 13.129C11.82 13.2425 11.8836 13.3962 11.8836 13.5565ZM25.3325 19.171V24.3918C25.3327 24.4649 25.3184 24.5374 25.2905 24.605C25.2626 24.6726 25.2217 24.7341 25.1699 24.7858C25.1182 24.8375 25.0568 24.8785 24.9891 24.9064C24.9215 24.9343 24.849 24.9485 24.7759 24.9483H22.0093C21.9362 24.9485 21.8637 24.9343 21.7961 24.9064C21.7284 24.8785 21.667 24.8375 21.6153 24.7858C21.5635 24.7341 21.5226 24.6726 21.4947 24.605C21.4668 24.5374 21.4525 24.4649 21.4527 24.3918V19.3322C21.4527 18.577 21.6741 16.0253 19.4787 16.0253C17.778 16.0253 17.4314 17.7715 17.3631 18.5559V24.3918C17.3631 24.538 17.3056 24.6783 17.2029 24.7825C17.1003 24.8866 16.9608 24.9462 16.8146 24.9483H14.1424C14.0694 24.9483 13.9971 24.9339 13.9297 24.9059C13.8622 24.8779 13.801 24.8369 13.7494 24.7852C13.6979 24.7335 13.657 24.6721 13.6293 24.6046C13.6015 24.5371 13.5873 24.4648 13.5875 24.3918V13.5093C13.5873 13.4363 13.6015 13.3639 13.6293 13.2964C13.657 13.2289 13.6979 13.1675 13.7494 13.1158C13.801 13.0641 13.8622 13.0231 13.9297 12.9951C13.9971 12.9671 14.0694 12.9527 14.1424 12.9527H16.8146C16.9622 12.9527 17.1038 13.0114 17.2082 13.1157C17.3126 13.2201 17.3712 13.3617 17.3712 13.5093V14.4499C18.0026 13.5028 18.9384 12.7721 20.9352 12.7721C25.3585 12.7721 25.3325 16.9024 25.3325 19.171Z" fill="white"/>
</g>
<defs>
<filter id="filter0_b_108_51005" x="-4" y="-4" width="40" height="40" filterUnits="userSpaceOnUse" color-interpolation-filters="sRGB">
<feFlood flood-opacity="0" result="BackgroundImageFix"/>
<feGaussianBlur in="BackgroundImageFix" stdDeviation="2"/>
<feComposite in2="SourceAlpha" operator="in" result="effect1_backgroundBlur_108_51005"/>
<feBlend mode="normal" in="SourceGraphic" in2="effect1_backgroundBlur_108_51005" result="shape"/>
</filter>
</defs>
</svg>
