<svg width="32" height="32" viewBox="0 0 32 32" fill="none" xmlns="http://www.w3.org/2000/svg">
<g clip-path="url(#clip0_108_51017)" filter="url(#filter0_b_108_51017)">
<path d="M16.1929 31.318C13.5043 31.3188 10.879 30.6108 8.56512 29.2645L0.65914 31.4468L2.78057 23.2928C1.56232 21.0375 0.923981 18.5106 0.923823 15.9428L0.923823 15.936C0.923823 7.45915 7.76823 0.55878 16.1809 0.555154C20.2574 0.553529 24.0907 2.15203 26.9747 5.05628C29.8584 7.96003 31.4474 11.8219 31.4492 15.9367C31.4492 24.4145 24.6052 31.3144 16.1929 31.3179" fill="white" fill-opacity="0.05"/>
<path d="M22.8044 19.916C23.4621 20.2143 23.4754 20.5282 23.4869 20.8118C23.4968 21.044 23.4961 21.3095 23.4961 21.5748C23.4961 21.8403 23.397 22.2717 23.0019 22.6363C22.6065 23.0013 21.651 24.0298 19.7076 24.0298C17.764 24.0298 15.8858 22.6032 15.622 22.4043C15.3587 22.2052 11.2428 19.6502 9.65943 15.6037C8.34359 12.2407 8.60529 11.5563 8.67128 10.8264C8.73701 10.0964 9.62656 8.47091 10.549 8.13929C11.4713 7.80741 12.2618 7.80741 12.4271 7.90691C12.5916 8.00641 12.6905 8.27191 12.888 8.67004C13.0855 9.06829 14.0412 11.0255 14.173 11.3904C14.3048 11.7554 14.3705 12.0208 13.975 12.2863C13.5801 12.5518 12.6905 13.3142 12.4271 13.5465C12.163 13.7787 12.1301 14.011 12.3277 14.409C12.5259 14.8074 12.9425 16.0895 14.2881 17.6107C15.3352 18.7942 16.6282 19.5932 17.0238 19.8254C17.4187 20.0577 17.6328 19.8503 17.8296 19.6507C18.0066 19.4718 18.2909 19.2524 18.5214 19.0532C18.7521 18.8547 18.9167 18.7884 19.1802 18.6557C19.4439 18.5228 19.6746 18.5893 19.8721 18.6887C20.0697 18.7884 22.0233 19.562 22.8044 19.916Z" fill="white"/>
</g>
<defs>
<filter id="filter0_b_108_51017" x="-4" y="-4" width="40" height="40" filterUnits="userSpaceOnUse" color-interpolation-filters="sRGB">
<feFlood flood-opacity="0" result="BackgroundImageFix"/>
<feGaussianBlur in="BackgroundImageFix" stdDeviation="2"/>
<feComposite in2="SourceAlpha" operator="in" result="effect1_backgroundBlur_108_51017"/>
<feBlend mode="normal" in="SourceGraphic" in2="effect1_backgroundBlur_108_51017" result="shape"/>
</filter>
<clipPath id="clip0_108_51017">
<rect width="32" height="32" fill="white" transform="matrix(4.37114e-08 -1 -1 -4.37114e-08 32 32)"/>
</clipPath>
</defs>
</svg>
