<svg width="48" height="48" viewBox="0 0 48 48" fill="none" xmlns="http://www.w3.org/2000/svg">
<rect width="48" height="48" rx="10" fill="#FFE9E9"/>
<g clip-path="url(#clip0_395_3711)">
<path d="M24.834 14.8332C24.834 14.6122 24.9218 14.4002 25.078 14.2439C25.2343 14.0877 25.4463 13.9999 25.6673 13.9999C27.8767 14.0023 29.9949 14.881 31.5572 16.4433C33.1194 18.0056 33.9982 20.1238 34.0006 22.3332C34.0006 22.5542 33.9128 22.7662 33.7565 22.9225C33.6003 23.0787 33.3883 23.1665 33.1673 23.1665C32.9463 23.1665 32.7343 23.0787 32.578 22.9225C32.4217 22.7662 32.3339 22.5542 32.3339 22.3332C32.332 20.5657 31.6289 18.8712 30.3791 17.6213C29.1293 16.3715 27.4348 15.6685 25.6673 15.6665C25.4463 15.6665 25.2343 15.5787 25.078 15.4225C24.9218 15.2662 24.834 15.0542 24.834 14.8332ZM25.6673 18.9999C26.5513 18.9999 27.3992 19.3511 28.0243 19.9762C28.6494 20.6013 29.0006 21.4491 29.0006 22.3332C29.0006 22.5542 29.0884 22.7662 29.2447 22.9225C29.401 23.0787 29.6129 23.1665 29.834 23.1665C30.055 23.1665 30.2669 23.0787 30.4232 22.9225C30.5795 22.7662 30.6673 22.5542 30.6673 22.3332C30.666 21.0075 30.1388 19.7365 29.2014 18.7991C28.264 17.8617 26.993 17.3345 25.6673 17.3332C25.4463 17.3332 25.2343 17.421 25.078 17.5773C24.9218 17.7336 24.834 17.9455 24.834 18.1665C24.834 18.3875 24.9218 18.5995 25.078 18.7558C25.2343 18.9121 25.4463 18.9999 25.6673 18.9999ZM33.2448 27.949C33.7277 28.4333 33.9989 29.0893 33.9989 29.7732C33.9989 30.4571 33.7277 31.1131 33.2448 31.5974L32.4865 32.4715C25.6615 39.0057 9.05315 22.4015 15.4865 15.5549L16.4448 14.7215C16.9296 14.2521 17.5797 13.9924 18.2546 13.9986C18.9294 14.0049 19.5746 14.2765 20.0506 14.7549C20.0765 14.7807 21.6206 16.7865 21.6206 16.7865C22.0788 17.2679 22.3339 17.9073 22.3328 18.5719C22.3317 19.2364 22.0746 19.875 21.6148 20.3549L20.6498 21.5682C21.1838 22.8658 21.969 24.0451 22.9602 25.0383C23.9514 26.0315 25.1291 26.819 26.4256 27.3557L27.6465 26.3849C28.1264 25.9255 28.7648 25.6686 29.4292 25.6677C30.0936 25.6668 30.7327 25.9218 31.214 26.3799C31.214 26.3799 33.2189 27.9232 33.2448 27.949ZM32.0981 29.1607C32.0981 29.1607 30.104 27.6265 30.0781 27.6007C29.9064 27.4305 29.6745 27.335 29.4327 27.335C29.1909 27.335 28.959 27.4305 28.7873 27.6007C28.7648 27.624 27.084 28.9632 27.084 28.9632C26.9707 29.0534 26.8359 29.1125 26.6928 29.1347C26.5498 29.1569 26.4034 29.1414 26.2681 29.0899C24.5885 28.4645 23.0629 27.4855 21.7947 26.2191C20.5264 24.9527 19.5451 23.4286 18.9173 21.7499C18.8616 21.6127 18.8435 21.4633 18.8647 21.3168C18.886 21.1704 18.9458 21.0322 19.0381 20.9165C19.0381 20.9165 20.3773 19.2349 20.3998 19.2132C20.57 19.0415 20.6655 18.8095 20.6655 18.5678C20.6655 18.326 20.57 18.094 20.3998 17.9224C20.374 17.8974 18.8398 15.9015 18.8398 15.9015C18.6656 15.7453 18.4381 15.6616 18.2042 15.6677C17.9702 15.6737 17.7474 15.769 17.5815 15.934L16.6231 16.7674C11.9215 22.4207 26.314 36.0149 31.2681 31.3332L32.0273 30.4582C32.2052 30.2934 32.312 30.0659 32.3253 29.8238C32.3385 29.5817 32.257 29.3439 32.0981 29.1607Z" fill="#FD2626"/>
</g>
<defs>
<clipPath id="clip0_395_3711">
<rect width="20" height="20" fill="white" transform="translate(14 14)"/>
</clipPath>
</defs>
</svg>
