<svg width="48" height="48" viewBox="0 0 48 48" fill="none" xmlns="http://www.w3.org/2000/svg">
<rect width="48" height="48" rx="10" fill="#FFE9E9"/>
<g clip-path="url(#clip0_395_3713)">
<path d="M29.8333 14.833H18.1667C17.062 14.8343 16.003 15.2737 15.2218 16.0549C14.4407 16.836 14.0013 17.895 14 18.9997V28.9997C14.0013 30.1043 14.4407 31.1634 15.2218 31.9445C16.003 32.7256 17.062 33.165 18.1667 33.1663H29.8333C30.938 33.165 31.997 32.7256 32.7782 31.9445C33.5593 31.1634 33.9987 30.1043 34 28.9997V18.9997C33.9987 17.895 33.5593 16.836 32.7782 16.0549C31.997 15.2737 30.938 14.8343 29.8333 14.833ZM18.1667 16.4997H29.8333C30.3323 16.5007 30.8196 16.6509 31.2325 16.9312C31.6453 17.2114 31.9649 17.6088 32.15 18.0722L25.7683 24.4547C25.2987 24.9224 24.6628 25.1851 24 25.1851C23.3372 25.1851 22.7013 24.9224 22.2317 24.4547L15.85 18.0722C16.0351 17.6088 16.3547 17.2114 16.7675 16.9312C17.1804 16.6509 17.6677 16.5007 18.1667 16.4997ZM29.8333 31.4997H18.1667C17.5036 31.4997 16.8677 31.2363 16.3989 30.7674C15.9301 30.2986 15.6667 29.6627 15.6667 28.9997V20.2497L21.0533 25.633C21.8355 26.4132 22.8952 26.8514 24 26.8514C25.1048 26.8514 26.1645 26.4132 26.9467 25.633L32.3333 20.2497V28.9997C32.3333 29.6627 32.0699 30.2986 31.6011 30.7674C31.1323 31.2363 30.4964 31.4997 29.8333 31.4997Z" fill="#FD2626"/>
</g>
<defs>
<clipPath id="clip0_395_3713">
<rect width="20" height="20" fill="white" transform="translate(14 14)"/>
</clipPath>
</defs>
</svg>
