<svg width="48" height="48" viewBox="0 0 48 48" fill="none" xmlns="http://www.w3.org/2000/svg">
<rect width="48" height="48" rx="10" fill="#FFE9E9"/>
<g clip-path="url(#clip0_395_3715)">
<path d="M23.9994 19C23.3401 19 22.6956 19.1955 22.1475 19.5618C21.5993 19.928 21.172 20.4486 20.9198 21.0577C20.6675 21.6668 20.6014 22.337 20.7301 22.9836C20.8587 23.6302 21.1762 24.2242 21.6423 24.6904C22.1085 25.1565 22.7024 25.474 23.349 25.6026C23.9957 25.7312 24.6659 25.6652 25.275 25.4129C25.884 25.1606 26.4046 24.7334 26.7709 24.1852C27.1372 23.6371 27.3327 22.9926 27.3327 22.3333C27.3327 21.4493 26.9815 20.6014 26.3564 19.9763C25.7313 19.3512 24.8834 19 23.9994 19ZM23.9994 24C23.6697 24 23.3475 23.9023 23.0734 23.7191C22.7993 23.536 22.5857 23.2757 22.4596 22.9711C22.3334 22.6666 22.3004 22.3315 22.3647 22.0082C22.429 21.6849 22.5878 21.3879 22.8208 21.1548C23.0539 20.9217 23.3509 20.763 23.6742 20.6987C23.9975 20.6344 24.3326 20.6674 24.6372 20.7935C24.9417 20.9197 25.202 21.1333 25.3851 21.4074C25.5683 21.6815 25.666 22.0037 25.666 22.3333C25.666 22.7754 25.4904 23.1993 25.1779 23.5118C24.8653 23.8244 24.4414 24 23.9994 24Z" fill="#FD2626"/>
<path d="M24.0003 34.0002C23.2985 34.0038 22.6062 33.8392 21.9811 33.5202C21.3561 33.2013 20.8166 32.7372 20.4078 32.1669C17.2319 27.786 15.6211 24.4927 15.6211 22.3777C15.6211 20.1554 16.5039 18.0241 18.0753 16.4527C19.6467 14.8813 21.778 13.9985 24.0003 13.9985C26.2226 13.9985 28.3538 14.8813 29.9252 16.4527C31.4966 18.0241 32.3794 20.1554 32.3794 22.3777C32.3794 24.4927 30.7686 27.786 27.5928 32.1669C27.1839 32.7372 26.6444 33.2013 26.0194 33.5202C25.3943 33.8392 24.702 34.0038 24.0003 34.0002ZM24.0003 15.8177C22.2606 15.8197 20.5928 16.5116 19.3627 17.7418C18.1325 18.9719 17.4406 20.6397 17.4386 22.3794C17.4386 24.0544 19.0161 27.1519 21.8794 31.101C22.1225 31.4359 22.4414 31.7084 22.81 31.8963C23.1786 32.0842 23.5865 32.1821 24.0003 32.1821C24.414 32.1821 24.8219 32.0842 25.1905 31.8963C25.5591 31.7084 25.878 31.4359 26.1211 31.101C28.9844 27.1519 30.5619 24.0544 30.5619 22.3794C30.5599 20.6397 29.868 18.9719 28.6379 17.7418C27.4077 16.5116 25.7399 15.8197 24.0003 15.8177Z" fill="#FD2626"/>
</g>
<defs>
<clipPath id="clip0_395_3715">
<rect width="20" height="20" fill="white" transform="translate(14 14)"/>
</clipPath>
</defs>
</svg>
