<svg width="80" height="80" viewBox="0 0 80 80" fill="none" xmlns="http://www.w3.org/2000/svg">
<rect width="80" height="80" fill="#D9D9D9" fill-opacity="0.1"/>
<path d="M31.6496 45.3998L31.6423 45.3939C31.0859 44.8402 30.3325 44.5299 29.5475 44.5311C28.7624 44.5322 28.01 44.8448 27.4551 45.4001C27.385 45.4707 27.318 45.5443 27.2544 45.6208C26.7944 46.2066 26.5663 46.9413 26.6136 47.6845C26.661 48.4278 26.9805 49.1276 27.5112 49.6503L29.5111 51.6516C29.6725 51.8115 29.8907 51.9011 30.118 51.9005C30.3453 51.9 30.5631 51.8095 30.7238 51.6487C30.8844 51.488 30.9749 51.2702 30.9754 51.0429C30.9759 50.8156 30.8863 50.5974 30.7262 50.4361L28.7263 48.4361C28.4951 48.217 28.3525 47.9205 28.3257 47.6031C28.2989 47.2856 28.3897 46.9694 28.5809 46.7146C28.6091 46.6803 28.639 46.6475 28.6706 46.6163C28.9081 46.3894 29.2239 46.2628 29.5523 46.2628C29.8808 46.2628 30.1966 46.3894 30.4341 46.6163L30.4375 46.6194L34.3714 50.5516C34.6008 50.7793 34.7827 51.0502 34.9066 51.3487C35.0305 51.6473 35.0939 51.9674 35.0933 52.2906V55.9203C35.0933 56.9955 35.0706 58.0673 34.8021 58.3365C34.5336 58.6056 33.4615 58.6273 32.3862 58.6273H29.4159C29.0315 58.6565 28.6449 58.6334 28.2667 58.5585C27.9945 58.2858 27.7606 57.9774 27.5713 57.6418L22.0026 49.3381C21.5901 48.7246 21.3702 48.0019 21.3711 47.2626V36.65C21.3711 36.2433 21.5327 35.8532 21.8202 35.5656C22.1078 35.2781 22.4979 35.1165 22.9046 35.1165C23.3113 35.1165 23.7013 35.2781 23.9889 35.5656C24.2765 35.8532 24.438 36.2433 24.438 36.65V44.2609C24.438 44.4889 24.5286 44.7074 24.6897 44.8686C24.8509 45.0298 25.0695 45.1203 25.2974 45.1203C25.5253 45.1203 25.7439 45.0298 25.9051 44.8686C26.0662 44.7074 26.1568 44.4889 26.1568 44.2609V36.65C26.1568 35.7874 25.8141 34.9602 25.2042 34.3503C24.5943 33.7404 23.7671 33.3978 22.9046 33.3978C22.042 33.3978 21.2148 33.7404 20.6049 34.3503C19.995 34.9602 19.6523 35.7874 19.6523 36.65V47.2657C19.652 48.3462 19.9742 49.4023 20.5777 50.2986L26.0007 58.386L26.143 58.5991C27.2028 60.1862 27.4837 60.3478 29.3554 60.3478H32.3862C36.1503 60.3478 36.812 59.686 36.812 55.922V52.292C36.8136 51.743 36.7062 51.1992 36.4961 50.692C36.2859 50.1849 35.9773 49.7244 35.5879 49.3374L31.6496 45.3998ZM57.0963 33.3984C56.2341 33.3993 55.4074 33.7423 54.7977 34.352C54.188 34.9617 53.845 35.7884 53.8441 36.6507V44.2609C53.8441 44.4889 53.9347 44.7074 54.0958 44.8686C54.257 45.0298 54.4756 45.1203 54.7035 45.1203C54.9314 45.1203 55.15 45.0298 55.3112 44.8686C55.4723 44.7074 55.5629 44.4889 55.5629 44.2609V36.65C55.5629 36.2433 55.7244 35.8532 56.012 35.5656C56.2996 35.2781 56.6896 35.1165 57.0963 35.1165C57.503 35.1165 57.8931 35.2781 58.1807 35.5656C58.4683 35.8532 58.6298 36.2433 58.6298 36.65V47.2657C58.6307 48.005 58.4108 48.7277 57.9983 49.3412L52.4313 57.6448C52.2421 57.9804 52.008 58.2886 51.7356 58.5609C51.3573 58.6349 50.9708 58.658 50.5864 58.6297H47.6174C46.5422 58.6297 45.4704 58.6073 45.2016 58.3389C44.9328 58.0704 44.9104 56.9983 44.9104 55.9227V52.292C44.9097 51.9687 44.9731 51.6485 45.097 51.3499C45.2209 51.0514 45.4029 50.7803 45.6323 50.5526L49.5644 46.6184L49.5682 46.6153C49.806 46.3877 50.1225 46.2609 50.4516 46.2613C50.7807 46.2616 51.0969 46.3892 51.3341 46.6173C51.3647 46.6483 51.3935 46.6806 51.4214 46.7139C51.6126 46.9687 51.7035 47.2848 51.6766 47.6022C51.6498 47.9196 51.5072 48.2161 51.276 48.4351L49.2757 50.435C49.1958 50.5148 49.1324 50.6096 49.0892 50.7138C49.0459 50.8181 49.0236 50.9299 49.0235 51.0428C49.0235 51.1557 49.0456 51.2675 49.0888 51.3719C49.1319 51.4762 49.1952 51.571 49.275 51.6509C49.3548 51.7308 49.4495 51.7941 49.5538 51.8374C49.6581 51.8807 49.7699 51.903 49.8828 51.903C49.9957 51.9031 50.1075 51.8809 50.2118 51.8378C50.3162 51.7946 50.411 51.7314 50.4908 51.6516L52.4911 49.6513C53.0218 49.1287 53.3414 48.429 53.3887 47.6858C53.4361 46.9425 53.208 46.2079 52.7479 45.6222C52.6847 45.5453 52.6179 45.4715 52.5475 45.4012C51.9925 44.8459 51.24 44.5335 50.4549 44.5324C49.6699 44.5313 48.9165 44.8416 48.3599 45.3953C48.3574 45.3971 48.355 45.399 48.3527 45.4012L44.4158 49.3371C44.0263 49.7243 43.7175 50.1851 43.5074 50.6925C43.2973 51.2 43.1899 51.7441 43.1917 52.2933V55.923C43.1917 59.6871 43.8534 60.3488 47.6174 60.3488H50.6479C52.5193 60.3488 52.8008 60.1872 53.8606 58.6001L59.4259 50.2996C60.0285 49.403 60.3497 48.3469 60.3486 47.2667V36.65C60.3475 35.7878 60.0045 34.9613 59.3948 34.3518C58.7851 33.7422 57.9585 33.3993 57.0963 33.3984ZM51.6964 33.0227V26.9727C51.6964 23.6944 51.31 23.253 47.9388 22.6779C46.0167 22.3991 44.168 21.7457 42.4976 20.7546L42.4103 20.6996C41.3296 20.0228 40.7345 19.6484 39.9996 19.6484C39.2647 19.6484 38.6683 20.0231 37.5858 20.7017L37.5026 20.7539C35.8321 21.7456 33.9832 22.3997 32.0607 22.6789C28.6902 23.2527 28.3028 23.694 28.3028 26.9724V33.0224C28.3028 37.9768 31.7362 42.7038 37.7216 45.9914L37.9316 46.1072C38.8546 46.6156 39.3626 46.8954 39.9982 46.8954C40.6338 46.8954 41.1419 46.6156 42.0648 46.1072L42.2749 45.9914C48.263 42.7041 51.6964 37.9772 51.6964 33.0227ZM41.4492 44.4854L41.2371 44.6023C40.8564 44.856 40.439 45.0498 39.9996 45.177C39.5601 45.0499 39.1428 44.8561 38.7621 44.6023L38.55 44.4854C35.9856 43.076 30.0216 39.1411 30.0216 33.0227V26.9727C30.0216 26.0838 30.0216 25.1643 30.2189 24.9405C30.4313 24.6998 31.4065 24.5331 32.3501 24.3723C34.4939 24.057 36.5546 23.3226 38.4146 22.2111L38.4995 22.1582C39.2574 21.6824 39.759 21.3672 39.9996 21.3672C40.2402 21.3672 40.7404 21.6807 41.4973 22.1551L41.586 22.2108C43.4459 23.3217 45.5063 24.0557 47.6497 24.3709C48.5927 24.5318 49.5679 24.6981 49.781 24.9391C49.9783 25.1629 49.9783 26.0824 49.9783 26.9713V33.0213C49.9776 39.1411 44.0136 43.0771 41.4492 44.4854Z" fill="#FF5858"/>
<path d="M43.7662 30.2673L38.7003 34.9316L36.2346 32.6629C36.0669 32.5085 35.8447 32.427 35.617 32.4364C35.3892 32.4458 35.1745 32.5454 35.0201 32.7131C34.8657 32.8808 34.7843 33.1029 34.7937 33.3307C34.8031 33.5584 34.9026 33.7731 35.0703 33.9275L38.118 36.7339C38.2767 36.88 38.4845 36.9611 38.7001 36.9611C38.9158 36.9611 39.1236 36.88 39.2823 36.7339L44.9304 31.533C45.0158 31.4571 45.0851 31.3651 45.1345 31.2622C45.1838 31.1592 45.2122 31.0475 45.2178 30.9335C45.2235 30.8195 45.2065 30.7055 45.1676 30.5982C45.1288 30.4909 45.069 30.3923 44.9916 30.3084C44.9143 30.2244 44.821 30.1567 44.7172 30.1092C44.6134 30.0617 44.5012 30.0354 44.3872 30.0317C44.2731 30.028 44.1594 30.0471 44.0528 30.0879C43.9462 30.1286 43.8487 30.1902 43.7662 30.269V30.2673Z" fill="#FF5858"/>
</svg>
