<svg width="1440" height="1153" viewBox="0 0 1440 1153" fill="none" xmlns="http://www.w3.org/2000/svg">
<g opacity="0.01" clip-path="url(#clip0_372_4517)">
<path d="M288.341 1077.8V1077.81L293.396 1074.89L295.742 1076.03L295.93 1073.43L297.22 1072.69L301.67 1070.13C303.317 1069.19 304.735 1068.38 306.144 1067.56L330.707 1053.02C362.346 1034.28 395.07 1014.91 427.364 996.078C434.893 991.709 438.131 985.986 438.181 976.95C438.401 942.692 438.817 907.853 439.22 874.167L439.664 836.277C439.686 834.131 439.563 832.113 439.417 829.771C439.352 828.705 439.279 827.561 439.22 826.317L443.634 823.787L443.492 823.695C444.736 823.087 445.871 822.51 447.037 821.81L473.105 806.434C489.778 796.597 506.455 786.761 523.137 776.938L526.211 775.127V774.674L532.734 770.831C545.638 763.227 558.537 755.619 571.472 748.07C579.162 743.55 580.25 737.177 580.301 731.531C580.575 702.077 580.909 672.618 581.243 643.155C581.453 624.809 581.659 606.468 581.856 588.122C581.883 586.141 581.682 584.261 581.467 582.271C581.403 581.667 581.334 581.04 581.275 580.386L581.339 579.498L582.336 578.784L583.187 578.496C584.189 578.162 585.131 577.846 586.119 577.297L610.732 562.781C645.565 542.234 680.392 521.688 715.284 501.251C722.438 497.024 723.408 491.017 723.458 486.254C723.737 455.972 724.085 425.694 724.432 395.421C724.643 377.002 724.853 358.588 725.05 340.182C725.059 339.441 725.013 338.732 724.935 338.046L725.247 338.229V337.968C725.763 338.33 726.267 338.654 726.811 338.97L762.091 358.913C792.99 376.366 823.884 393.825 854.718 411.388C857.467 412.953 860.184 413.744 863.02 413.822L863.336 413.831L863.651 413.808C866.309 413.607 868.953 412.747 871.734 411.169C900.894 394.676 930.096 378.27 959.297 361.868L999.024 339.542C1000.65 338.599 1001.95 337.515 1003.2 336.467C1003.72 336.024 1004.28 335.552 1004.92 335.058L1005.62 334.505L1008.78 335.992L1009.04 332.977L1009.91 332.725L1010.91 332.441L1011.71 332.231L1012.43 331.819L1014.75 330.483C1016.69 329.372 1018.39 328.397 1020.06 327.413C1031.39 320.734 1042.71 314.041 1054.02 307.352C1082.31 290.639 1111.55 273.355 1140.41 256.551C1148.07 252.076 1151.35 246.39 1151.39 237.528C1151.57 204.931 1151.97 171.762 1152.35 139.686C1152.53 125.151 1152.71 110.612 1152.86 96.0767C1152.89 94.5028 1152.8 92.9427 1152.67 91.2454C1153.56 91.8722 1154.37 92.4166 1155.27 92.929L1189.76 112.414C1220.12 129.561 1251.53 147.294 1282.32 164.881C1285.23 166.541 1288.12 167.351 1291.17 167.351H1291.49L1291.85 167.319C1294.51 167.049 1297.14 166.139 1300.13 164.46C1329.89 147.656 1359.68 130.916 1389.47 114.175L1425.85 93.7251C1427.5 92.7826 1428.94 91.7395 1430.46 90.6324C1431.14 90.1428 1431.85 89.6258 1432.64 89.0723L1440 83.9299L1432.61 78.8242C1431.85 78.2981 1431.2 77.8268 1430.6 77.4013C1429.34 76.4909 1428.24 75.6994 1426.95 74.9674C1414.03 67.6565 1401.12 60.3639 1388.21 53.0667C1359.23 36.6972 1329.26 19.7696 1299.88 2.9975C1296.99 1.34591 1294.11 0.540701 1291.08 0.540701H1291.06H1290.99L1290.69 0.545276L1290.35 0.577302C1287.71 0.856379 1285.08 1.77139 1282.08 3.46415C1266.81 12.0927 1251.51 20.6754 1236.22 29.2582L1221.49 37.5253L1218.31 39.3141V39.3233L1175.3 63.4932L1165.23 69.148L1157.13 73.7047C1156.25 74.1942 1155.32 74.7249 1154.32 75.3014C1153 76.0792 1151.87 76.9438 1150.68 77.8634L1149.59 78.6869L1148.49 79.2725L1148.01 78.9431C1147.01 78.2569 1146.15 77.6392 1145.36 77.0811C1143.67 75.8733 1142.21 74.8302 1140.56 73.906L1114.1 58.9548C1081.63 40.6135 1048.05 21.6454 1015.11 2.84652C1013.88 2.14196 1012.81 1.72106 1011.74 1.31846L1011.52 1.23611L1011.3 1.17206C1009.67 0.691678 1008.02 0.449201 1006.4 0.449201C1004.34 0.449201 1002.31 0.824354 1000.19 1.59296L1000.02 1.65701L999.852 1.73021L999.458 1.89491C998.754 2.18314 998.054 2.48509 997.304 2.91515C985.342 9.6862 973.349 16.4207 961.355 23.1505L946.073 31.7333L936.586 37.0724L921.858 45.3578C912.005 50.889 902.157 56.4339 892.308 61.9789L871.606 73.6315C869.996 74.5236 868.505 75.5667 866.922 76.6739C866.208 77.1726 865.444 77.7079 864.585 78.2889L863.446 79.0575L862.865 78.6869C861.808 78.0144 860.866 77.3876 859.987 76.8112C858.204 75.6308 856.657 74.6152 854.942 73.6544C843.58 67.2265 832.186 60.794 820.787 54.3615C791.576 37.8776 761.373 20.831 731.815 3.86218C730.301 2.9975 728.732 2.29752 727.021 1.72106C724.926 1.12173 723.188 0.874679 721.413 0.874679C720.425 0.874679 719.419 0.95703 718.426 1.11716L718.243 1.14918L718.065 1.19036C717.045 1.35963 715.993 1.69819 715.092 2.00014C713.678 2.53542 712.27 3.11645 710.705 4.01316C682.538 20.0441 653.78 36.2031 625.964 51.8315C613.093 59.0646 600.221 66.2977 587.358 73.5446C585.382 74.6334 583.374 75.7955 580.076 77.7079L579.674 77.9412L578.521 78.6092L577.433 77.9366C576.399 77.3007 575.461 76.7059 574.569 76.1478C572.794 75.0269 571.221 74.0387 569.611 73.1283L542.39 57.7333L526.211 48.5832L523.041 46.6296C498.702 32.8816 472.744 18.2003 446.529 3.20795C443.067 1.17663 439.787 0.202148 436.516 0.202148C433.168 0.202148 429.87 1.19493 426.129 3.3269C398.052 19.2572 369.432 35.3384 341.754 50.889C327.949 58.6437 314.144 66.3984 300.348 74.1668C298.683 75.1001 297.384 76.221 296.008 77.4151C295.523 77.836 294.997 78.2889 294.407 78.7739L294.192 78.8745L292.888 78.1928C292.485 77.9092 292.11 77.6393 291.763 77.3876C290.491 76.4772 289.398 75.6857 288.108 74.9537C275.149 67.6199 262.2 60.3044 249.246 52.9889C220.305 36.6378 190.376 19.733 161.042 2.9792C158.046 1.26813 155.155 0.435475 152.214 0.435475C148.171 0.435475 144.8 2.04589 142.316 3.44585C113.302 19.8382 84.2377 36.1482 55.1735 52.4582L17.3635 73.6864C15.6939 74.6151 14.0106 75.5942 11.6504 76.9667L9.66977 78.1196L9.51425 78.2111L5.43867 75.7909L5.22369 80.7045L1.16641 83.0652L5.00413 85.7142L4.98126 86.2083C4.90807 87.8873 4.83031 89.333 4.75712 90.6324C4.6199 93.1624 4.51469 95.1662 4.52384 97.1747L4.86233 133.546C5.1871 167.754 5.52558 203.123 5.64451 237.912C5.66281 246.252 8.96535 251.88 16.3618 256.144C41.7849 270.98 67.574 286.298 92.5124 301.107L113.837 313.766L131.297 324.124L141.964 330.456L137.014 333.297C129.225 337.758 121.942 341.935 114.706 346.185C100.494 354.511 86.2823 362.861 72.0704 371.206C53.1975 382.296 34.3062 393.39 15.4012 404.453C11.8379 406.53 5.19167 410.409 5.13678 420.181C4.90807 450.77 4.56044 481.368 4.21737 511.966C4.00696 530.701 3.79198 549.435 3.60901 568.175C3.59071 569.506 3.81942 570.723 4.10302 571.812L3.86516 571.73L3.80113 573.317L0 575.513L3.60444 578.071L3.51753 580.148L3.40317 582.609C3.30712 584.549 3.23393 586.136 3.24765 587.729L3.61816 627.742C3.94292 661.917 4.27684 697.26 4.42321 732.007C4.4598 739.643 7.45588 744.643 14.4315 748.724C43.8616 765.986 73.7034 783.691 102.566 800.811L137.033 821.248C138.025 821.838 139.036 822.369 140.074 822.89C139.384 823.224 138.702 823.581 138.025 823.988C126.544 830.75 115.026 837.549 103.509 844.352C74.6091 861.417 44.7215 879.062 15.2136 896.201C7.2226 900.849 3.8057 906.769 3.78283 915.992C3.62731 949.642 3.21106 983.881 2.80853 1017C2.64844 1030.21 2.48834 1043.43 2.34197 1056.65C2.31452 1058.58 2.38314 1060.53 2.47462 1063.02L2.59812 1066.6L2.64386 1068.15L0.0137225 1070.04L2.75364 1071.8L2.89087 1076.24L6.75603 1074.36L7.7532 1074.99L10.452 1076.75C12.3548 1077.99 13.9832 1079.05 15.6619 1080.01C27.2345 1086.56 38.7889 1093.08 50.3432 1099.59C79.3937 1115.98 109.432 1132.93 138.844 1149.81C142.563 1151.94 146.057 1152.97 149.538 1152.97C153.134 1152.97 156.72 1151.89 160.823 1149.56C191.557 1132.1 222.908 1114.54 253.225 1097.56L282.665 1081.06L286.914 1078.61L288.341 1077.8ZM1157.44 80.6862C1158.41 80.1235 1159.3 79.6157 1160.18 79.1261C1166.24 75.7223 1172.29 72.3139 1178.35 68.9101C1193.75 60.2541 1209.15 51.5981 1224.54 42.9513V42.9422C1244.75 31.5961 1264.97 20.2728 1285.14 8.87642C1287.2 7.70979 1289.08 6.95948 1291 6.75818C1291.02 6.75818 1291.05 6.75818 1291.08 6.75818C1292.86 6.75818 1294.69 7.19738 1296.79 8.39604C1339.05 32.5294 1381.5 56.3928 1423.85 80.3705C1425.39 81.2444 1426.76 82.3515 1429.06 83.9391C1426.53 85.7005 1424.75 87.1507 1422.78 88.2716C1380.88 111.838 1338.93 135.367 1297.06 159.006C1294.99 160.168 1293.12 160.905 1291.21 161.102C1291.19 161.102 1291.18 161.102 1291.16 161.102C1289.37 161.102 1287.52 160.658 1285.41 159.45C1243.14 135.312 1200.71 111.453 1158.35 87.4939C1156.9 86.6658 1155.56 85.6044 1153.05 83.8567C1154.88 82.4979 1156.12 81.464 1157.44 80.6862ZM290.175 1066.39C287.294 1064.99 285.126 1064.12 283.136 1062.96C241.726 1038.43 200.348 1013.81 158.865 989.399C154.437 986.791 152.594 983.909 152.566 978.638C152.324 930.207 151.771 881.757 151.368 833.307C151.336 831.281 151.629 829.245 151.844 826.285C154.442 827.506 156.349 828.243 158.069 829.245C199.731 853.941 241.36 878.728 283.099 903.287C287.545 905.9 289.416 908.764 289.43 914.034C289.686 962.479 290.221 1010.9 290.656 1059.35C290.679 1061.39 290.39 1063.41 290.175 1066.39ZM154.012 492.682C153.522 439.63 153.051 387.301 152.566 335.315C153.417 334.825 153.673 334.637 153.93 334.564C154.126 334.482 154.382 334.395 154.579 334.395C154.648 334.395 154.707 334.404 154.757 334.432C156.404 335.218 158.083 335.95 159.652 336.843C203.093 362.591 246.533 388.358 290.217 414.261C290.697 467.117 291.168 519.634 291.667 574.26C244.891 546.553 199.749 519.803 154.012 492.682ZM291.52 589.755C291.013 636.608 290.326 683.466 290.057 730.342C290.02 736.939 287.957 740.681 282.226 744.007C241.731 767.619 201.428 791.565 161.061 815.36C158.536 816.86 155.965 818.31 152.329 820.424C152.072 816.458 151.743 813.854 151.771 811.247C152.278 763.767 152.919 716.305 153.289 668.826C153.335 663.464 154.515 659.936 159.528 656.999C201.043 632.765 242.389 608.211 283.813 583.771C285.816 582.595 288.003 581.68 291.122 580.111C291.292 583.913 291.557 586.832 291.52 589.755ZM156.464 500.839C198.985 525.151 241.699 549.161 284.316 573.285C285.592 574.013 286.727 574.969 288.753 576.405C286.448 578.098 284.751 579.626 282.811 580.733C240.907 604.336 198.971 627.884 157.122 651.532C154.666 652.914 152.466 653.815 150.128 653.815C148.395 653.815 146.583 653.316 144.53 652.15C101.995 627.82 59.3085 603.824 16.6774 579.704C15.4103 578.958 14.2668 577.984 11.5315 576.049C15.081 573.99 17.4001 572.635 19.7146 571.322C61.1245 548.081 102.548 524.895 143.903 501.562C146.378 500.162 148.596 499.215 150.97 499.215C152.667 499.215 154.446 499.696 156.464 500.839ZM292.147 900.332C290.377 900.332 288.515 899.828 286.402 898.625C244.114 874.442 201.661 850.546 159.268 826.559C157.712 825.69 156.294 824.565 154.026 823.023C156.331 821.261 158.042 819.669 160.018 818.526C201.661 795.078 243.428 771.759 284.97 748.097C287.637 746.578 289.974 745.856 292.28 745.856C294.763 745.856 297.211 746.697 300.01 748.29C341.232 771.846 382.665 795.147 423.992 818.512C426.074 819.692 428.009 821.133 431.631 823.471C427.588 825.791 425.026 827.328 422.442 828.774C381.535 851.759 340.619 874.68 299.79 897.756C297.11 899.27 294.727 900.332 292.147 900.332ZM431.938 976.913C431.901 983.41 430.03 987.312 424.217 990.684C383.694 1014.31 343.368 1038.28 302.983 1062.17C300.476 1063.64 297.938 1065.06 294.096 1067.28C293.885 1062.72 293.606 1059.8 293.615 1056.89C294.137 1009.98 294.791 963.101 295.102 916.198C295.134 909.72 296.922 905.758 302.773 902.345C343.597 878.632 384.188 854.531 424.875 830.581C427.139 829.249 429.564 828.188 432.976 826.449C433.164 830.407 433.452 833.312 433.42 836.213C432.894 883.116 432.235 930.006 431.938 976.913ZM433.273 818.068C432.743 818.439 432.496 818.612 432.226 818.75C432.025 818.827 431.75 818.965 431.549 818.965C431.499 818.965 431.453 818.956 431.416 818.937C429.751 818.178 428.073 817.478 426.499 816.558C383.026 790.805 339.558 765.016 295.893 739.121C295.417 686.362 294.923 634.028 294.448 579.814C298.432 581.831 300.87 582.897 303.129 584.252C344.013 608.44 384.847 632.761 425.795 656.876C430.14 659.424 432.272 662.142 432.272 667.517C432.51 715.981 433.04 764.417 433.479 812.852C433.502 814.664 433.337 816.49 433.273 818.068ZM294.521 566.734C295.042 518.032 295.642 469.372 296.122 420.676C296.172 416.375 297.142 413.337 301.167 410.94C344.247 385.741 387.207 360.313 430.213 334.981C430.977 334.537 431.897 334.331 433.932 333.562C434.124 336.939 434.389 339.295 434.362 341.651C433.831 389.414 433.186 437.201 432.83 484.964C432.784 490.523 431.037 493.776 426.229 496.585C384.444 521.006 342.801 545.656 301.103 570.197C299.539 571.117 297.878 571.835 295.55 572.965C295.148 570.618 294.507 568.674 294.521 566.734ZM428.887 652.049C386.887 628.067 344.704 604.345 302.599 580.532C301.062 579.663 299.63 578.569 297.284 577.018C299.594 575.284 301.231 573.734 303.148 572.654C345.331 548.928 387.546 525.293 429.669 501.489C431.906 500.231 433.891 499.522 435.922 499.522C437.665 499.522 439.444 500.043 441.443 501.183C467.58 516.065 493.78 530.847 519.967 545.652V545.94C535.812 554.907 551.666 563.883 567.507 572.841C569.286 573.83 570.905 575.083 573.965 577.11C573.947 577.124 573.929 577.133 573.906 577.146C570.032 579.388 567.69 580.752 565.348 582.092C550.216 590.588 535.09 599.102 519.967 607.616V608.051C494.05 622.613 468.115 637.153 442.252 651.788C439.755 653.206 437.546 653.989 435.277 653.989C433.273 653.993 431.22 653.38 428.887 652.049ZM574.057 731.481C574.011 736.39 573.101 739.876 568.325 742.685C552.174 752.114 536.078 761.626 519.972 771.114V771.563C494.585 786.514 469.208 801.493 443.831 816.458C442.038 817.533 440.116 818.37 437.491 819.683C437.075 817.24 436.37 815.286 436.398 813.356C436.905 764.627 437.573 715.907 437.925 667.188C437.971 661.327 440.652 658.573 445.212 655.901C482.304 634.27 519.3 612.47 556.35 590.716C561.743 587.546 567.255 584.407 573.828 580.628C574.203 580.459 574.565 580.29 574.981 580.097C575.242 583.176 575.649 585.651 575.617 588.063C575.109 635.872 574.501 683.685 574.057 731.481ZM575.543 573.171C572.616 571.656 570.594 570.677 568.723 569.593C552.778 560.146 536.828 550.689 520.887 541.232V541.507C496.113 526.812 471.33 512.135 446.461 497.596C440.816 494.293 438.451 490.793 438.428 484.054C438.323 437.164 437.747 390.279 437.354 343.389C437.331 340.443 437.546 337.492 437.692 333.498C440.711 334.898 442.888 335.731 444.851 336.893C469.894 351.716 494.933 366.548 519.972 381.381V381.605C536.064 391.139 552.147 400.692 568.266 410.19C572.552 412.729 574.798 415.387 574.821 420.817C575.04 469.226 575.589 517.644 575.996 566.025C576.019 567.992 575.777 569.991 575.543 573.171ZM717.21 486.19C717.164 490.495 716.153 493.487 712.123 495.866C669.058 521.093 626.074 546.489 583.073 571.849C582.432 572.205 581.613 572.43 580.25 572.901C580.076 569.671 579.866 567.356 579.907 565.078C580.433 517.305 581.06 469.528 581.453 421.755C581.517 416.714 582.675 413.415 587.377 410.665C629.413 386.102 671.303 361.25 713.249 336.522C714.584 335.745 716.094 335.058 717.923 334.18C718.298 336.371 718.833 338.252 718.815 340.109C718.285 388.788 717.663 437.493 717.21 486.19ZM1146.05 87.5945C1146.07 87.7043 1146.11 87.7958 1146.14 87.9056C1146.39 91.25 1146.65 93.6519 1146.62 95.9989C1146.11 143.168 1145.4 190.332 1145.15 237.487C1145.12 244.111 1142.96 247.822 1137.27 251.148C1097.02 274.572 1057 298.371 1016.89 322.024C1014.6 323.369 1012.27 324.696 1009.31 326.398C1009 326.48 1008.59 326.599 1008.15 326.727C1007.98 322.82 1007.76 320.057 1007.77 317.33C1008.29 270.473 1009 223.615 1009.23 176.744C1009.28 170.105 1011.49 166.441 1017.17 163.128C1057.39 139.672 1097.43 115.868 1137.52 92.2062C1139.03 91.314 1140.55 90.4311 1142.23 89.4657C1143.31 88.8938 1144.48 88.3677 1146.05 87.5945ZM874.652 79.0484C891.403 69.6283 908.144 60.1855 924.899 50.7792C932.977 46.2453 941.046 41.6932 949.12 37.1547C966.209 27.5471 983.311 17.9807 1000.37 8.32284C1001.05 7.93854 1001.67 7.71436 1002.31 7.43986C1003.71 6.92745 1005.05 6.67125 1006.38 6.67125C1007.42 6.67125 1008.46 6.8268 1009.53 7.14248C1010.34 7.44443 1011.13 7.75096 1012 8.24507C1053.77 32.0764 1095.65 55.6699 1137.49 79.3229C1139.52 80.4666 1141.38 81.9398 1144.46 84.0626C1140.88 86.1076 1138.36 87.5945 1135.84 89.0357C1094.98 112.016 1054.07 134.882 1013.34 158.078C1010.56 159.656 1008.1 160.379 1005.66 160.402C1003.38 160.264 1001.07 159.551 998.47 158.068C957.559 134.594 916.419 111.517 875.393 88.2854C873.092 87.0181 870.984 85.3939 868.061 83.445C870.782 81.6012 872.63 80.1647 874.652 79.0484ZM865.989 87.8462C866.716 88.0383 867.425 88.2122 868.075 88.3677C869.598 89.0723 870.997 89.7265 872.237 90.4768C913.62 114.958 954.956 139.553 996.421 163.947C1000.89 166.573 1002.63 169.543 1002.64 174.763C1002.9 222.851 1003.43 270.967 1003.85 319.069C1003.86 321.278 1003.55 323.516 1003.3 326.512C1000.85 325.359 998.863 324.522 997.112 323.483C955.711 298.952 914.374 274.37 872.923 249.986C868.441 247.359 866.707 244.377 866.684 239.188C866.442 191.068 865.929 142.975 865.504 94.8734C865.504 92.8101 865.76 90.6278 865.989 87.8462ZM863.267 253.27C865.229 253.293 867.228 253.829 869.502 255.142C911.232 278.987 953.136 302.548 994.975 326.242C996.782 327.235 998.475 328.475 1001.05 330.145C999.001 331.755 997.596 333.146 995.954 334.098C953.511 357.975 911.04 381.756 868.646 405.738C866.698 406.841 864.941 407.449 863.176 407.582C861.469 407.536 859.736 407.069 857.792 405.962C815.229 381.719 772.557 357.686 729.917 333.567C728.65 332.835 727.497 331.86 724.72 329.898C728.252 327.857 730.571 326.508 732.904 325.19C774.309 301.944 815.732 278.763 857.06 255.389C858.185 254.753 859.246 254.263 860.294 253.893C860.578 253.792 860.861 253.769 861.14 253.691C861.854 253.49 862.563 253.325 863.267 253.27ZM861.181 87.3749C861.36 90.55 861.62 92.8421 861.579 95.125C861.067 142.902 860.417 190.675 860.07 238.434C860.015 243.983 858.277 247.263 853.469 250.086C811.675 274.467 770.037 299.126 728.334 323.689C726.985 324.476 725.471 325.158 723.604 326.073C723.197 323.877 722.648 322.029 722.676 320.212C723.193 271.52 723.792 222.837 724.258 174.131C724.313 169.863 725.297 166.825 729.331 164.441C772.383 139.196 815.353 113.814 858.345 88.4592C858.99 88.1298 859.777 87.8828 861.181 87.3749ZM590.405 78.9477C631.54 55.7751 672.763 32.7444 713.802 9.38883C714.95 8.73002 716.011 8.28167 717.073 7.87906C717.814 7.63201 718.55 7.39411 719.263 7.27058C719.314 7.26143 719.36 7.25686 719.405 7.24771C720.078 7.13791 720.736 7.08758 721.4 7.08758C722.598 7.08758 723.792 7.26143 725.018 7.60914C726.198 8.00716 727.401 8.50584 728.695 9.247C769.62 32.7352 810.806 55.83 851.887 79.0758C854.215 80.3751 856.378 81.9306 859.493 83.9208C856.946 85.7828 855.23 87.3475 853.273 88.4638C811.318 112.03 769.286 135.523 727.406 159.194C725.247 160.42 723.316 161.051 721.372 161.152C719.588 161.079 717.777 160.576 715.732 159.413C673.403 135.294 630.936 111.38 588.557 87.3887C587.034 86.5423 585.675 85.3573 582.789 83.3123C586.274 81.2856 588.328 80.0915 590.405 78.9477ZM648.922 127.123C671.724 140.519 694.44 154.093 717.457 167.754C717.923 220.417 718.408 272.751 718.902 327.212C672.191 299.515 627.474 273.025 582.19 246.175C581.696 193.813 581.211 141.406 580.703 87.137C604.612 100.245 626.6 114.011 648.922 127.123ZM578.013 252.955C578.082 252.955 578.151 252.955 578.219 252.955C580.172 252.955 582.171 253.49 584.436 254.78C626.17 278.644 668.079 302.21 709.919 325.89C711.616 326.842 713.281 328.004 715.618 329.518C715.723 329.614 715.856 329.733 715.975 329.838C713.912 331.43 712.521 332.812 710.856 333.713C668.445 357.659 625.974 381.458 583.599 405.45C582.693 405.967 581.842 406.328 580.996 406.635C580.095 406.841 579.203 406.946 578.306 406.946C577.057 406.946 575.8 406.749 574.491 406.374C573.91 406.132 573.352 405.958 572.74 405.61C555.481 395.783 538.182 386.024 520.887 376.243V376.476C496.278 362.531 471.637 348.632 447.01 334.692C444.924 333.53 442.966 332.13 440.19 330.332C441.859 328.9 442.966 327.601 444.361 326.814C486.896 302.868 529.482 279.014 572.017 255.013C574.158 253.81 576.079 253.138 578.013 252.955ZM576.495 87.439C576.669 91.1448 576.939 93.9676 576.907 96.74C576.385 143.666 575.731 190.537 575.424 237.445C575.388 243.928 573.531 247.854 567.731 251.244C551.772 260.545 535.876 269.956 519.967 279.348V279.81C494.933 294.578 469.917 309.37 444.887 324.138C443.131 325.176 441.223 325.94 438.127 327.391C437.916 323.804 437.665 321.695 437.683 319.595C438.214 271.479 438.881 223.363 439.229 175.229C439.27 169.671 441.127 166.441 445.935 163.632C470.955 149.028 495.921 134.329 520.878 119.611V119.634C537.006 110.136 553.135 100.633 569.268 91.1493C571.326 89.9369 573.549 88.9076 576.495 87.439ZM303.408 79.6019C345.34 55.9902 387.344 32.5065 429.212 8.74832C431.846 7.24771 434.161 6.4425 436.512 6.4425C438.685 6.4425 440.894 7.12876 443.423 8.58819C468.888 23.1505 494.421 37.5985 519.967 52.0282V52.1883C535.488 60.9678 551.008 69.7519 566.537 78.5268C568.879 79.849 571.143 81.3633 574.148 83.2162C572.492 84.7489 571.431 86.1488 570.05 86.922C553.354 96.3329 536.659 105.73 519.967 115.132V115.63C495.079 129.575 470.201 143.529 445.418 157.67C442.143 159.542 439.293 160.562 436.379 160.562C433.758 160.562 431.087 159.734 428.004 157.959C387.907 134.809 347.531 112.213 307.246 89.4062C304.387 87.7867 301.574 86.1168 297.901 83.9665C300.271 82.0725 301.679 80.5718 303.408 79.6019ZM295.834 86.7756C299.388 88.6331 302.045 89.85 304.561 91.3506C344.933 115.241 385.194 139.311 425.708 163C431.393 166.322 433.621 169.89 433.635 176.579C433.758 223.496 434.335 270.422 434.742 317.33C434.765 320.276 434.504 323.232 434.353 327.29C430.794 325.428 428.127 324.188 425.625 322.719C385.268 298.819 344.978 274.755 304.47 251.079C298.789 247.748 296.602 244.152 296.584 237.473C296.447 190.565 295.884 143.657 295.477 96.7034C295.436 93.7891 295.669 90.8565 295.834 86.7756ZM293.711 253.421C296.296 253.421 298.903 254.259 301.926 255.988C342.563 279.357 383.488 302.283 424.299 325.387C426.659 326.718 428.914 328.214 431.906 330.076C430.323 331.581 429.344 333.077 427.963 333.846C384.97 358.057 341.905 382.163 298.935 406.415C297.06 407.454 295.358 408.012 293.643 408.012C292.074 408.012 290.496 407.545 288.767 406.557C245.344 381.875 201.876 357.298 158.435 332.666C157.653 332.236 157.031 331.536 155.206 330.053C158.243 328.072 160.388 326.521 162.698 325.227C203.573 302.219 244.525 279.348 285.263 256.089C288.35 254.332 291.017 253.421 293.711 253.421ZM291.804 86.9128C292.083 90.2069 292.495 92.746 292.467 95.2806C291.973 143.09 291.36 190.908 290.916 238.713C290.884 243.645 289.97 247.09 285.176 249.899C243.085 274.457 201.162 299.323 159.181 324.074C157.653 324.966 155.997 325.647 152.91 327.153C152.804 322.619 152.644 319.645 152.672 316.68C153.202 270.07 153.884 223.487 154.122 176.881C154.167 170 156.107 165.96 162.287 162.351C203.39 138.533 244.219 114.235 285.162 90.1108C286.96 89.054 288.895 88.2899 291.804 86.9128ZM20.419 79.1261C62.0759 55.7202 103.788 32.383 145.38 8.881C147.8 7.51763 149.955 6.67583 152.214 6.67583C153.998 6.67583 155.846 7.19738 157.95 8.40062C200.211 32.5339 242.659 56.3973 285.016 80.3705C286.553 81.2444 287.92 82.3515 290.221 83.9391C287.696 85.7005 285.908 87.1507 283.945 88.2716C242.046 111.838 200.092 135.367 158.225 159.006C155.814 160.361 153.669 161.184 151.423 161.184C149.625 161.184 147.768 160.658 145.655 159.45C103.381 135.312 60.9552 111.453 18.594 87.4939C17.0433 86.6063 15.6665 85.4854 12.8076 83.5136C16.2383 81.5235 18.3149 80.2973 20.419 79.1261ZM117.025 308.4C84.535 289.13 52.0859 269.768 19.4813 250.74C14.1387 247.657 11.8974 244.244 11.8882 237.894C11.7281 190.972 11.1792 144.064 10.7676 97.1564C10.7538 94.2146 11.01 91.282 11.2204 86.4828C57.671 114.047 102.823 140.825 148.335 167.786C148.811 220.6 149.287 273.158 149.781 327.834C137.403 320.491 127.221 314.439 117.025 308.4ZM11.3759 420.214C11.408 414.55 14.4269 412.244 18.5528 409.837C51.688 390.448 84.7637 370.968 117.876 351.561C127.816 345.723 137.847 340.027 149.159 333.526C149.392 337.085 149.698 339.46 149.676 341.793C149.15 389.611 148.509 437.425 148.125 485.243C148.088 490.637 146.721 494.096 141.758 497.006C100.211 521.308 58.8237 545.872 17.3818 570.33C15.5887 571.409 13.6401 572.247 11.1106 573.518C10.5983 571.473 9.82529 569.868 9.84816 568.243C10.333 518.883 11.0054 469.555 11.3759 420.214ZM17.5831 743.339C12.8625 740.576 10.6944 737.671 10.6624 731.979C10.4565 683.878 9.90305 635.776 9.4868 587.674C9.46851 585.56 9.62403 583.455 9.74753 580.404C12.0666 581.218 14.0472 581.552 15.6665 582.518C57.8585 607.465 99.9911 632.509 142.183 657.429C145.614 659.461 147.521 661.657 147.553 665.962C147.841 715.907 148.331 765.83 148.733 815.762C148.742 816.636 148.486 817.519 148.12 819.912C144.891 818.26 142.453 817.208 140.207 815.881C99.3461 791.684 58.5492 767.367 17.5831 743.339ZM8.8327 1066.41C8.70005 1062.11 8.53995 1059.42 8.57655 1056.72C9.09343 1009.81 9.80242 962.914 10.022 916.015C10.0403 909.001 12.3091 905.117 18.3469 901.604C59.4412 877.736 100.298 853.456 141.236 829.345C142.988 828.293 144.969 827.589 147.722 826.308C148.011 829.332 148.418 831.61 148.399 833.857C147.869 881.986 147.256 930.097 146.84 978.208C146.785 983.245 145.595 986.562 140.921 989.307C99.0854 1013.72 57.424 1038.42 15.7031 1063.02C13.9512 1064.06 12.0438 1064.85 8.8327 1066.41ZM279.614 1075.62C238.977 1098.42 198.271 1121.12 157.744 1144.14C154.78 1145.82 152.187 1146.74 149.538 1146.74C147.16 1146.74 144.736 1146 141.95 1144.41C101.011 1120.91 59.8346 1097.84 18.7586 1074.61C16.4349 1073.28 14.2211 1071.74 11.1152 1069.75C13.6356 1067.94 15.3463 1066.37 17.3086 1065.25C58.97 1041.78 100.714 1018.44 142.307 994.811C144.96 993.306 147.283 992.491 149.653 992.491C151.807 992.491 153.998 993.164 156.509 994.605C197.988 1018.35 239.681 1041.78 281.292 1065.34C283.355 1066.49 285.258 1067.91 288.881 1070.28C284.76 1072.65 282.203 1074.14 279.614 1075.62Z" fill="url(#paint0_linear_372_4517)"/>
<path opacity="0.5" d="M222.396 831.345V831.354L226.293 829.103L228.104 829.981L228.246 827.973L229.239 827.401L232.669 825.434C233.941 824.706 235.034 824.084 236.123 823.448L255.069 812.235C279.472 797.782 304.712 782.84 329.618 768.319C335.423 764.947 337.921 760.537 337.962 753.565C338.131 727.144 338.451 700.275 338.762 674.288L339.105 645.063C339.124 643.411 339.027 641.851 338.918 640.044C338.867 639.221 338.812 638.342 338.767 637.381L342.17 635.428L342.06 635.359C343.021 634.893 343.894 634.444 344.795 633.904L364.903 622.046C377.766 614.461 390.624 606.875 403.491 599.294L405.86 597.899V597.551L410.892 594.586C420.841 588.721 430.794 582.856 440.77 577.032C446.703 573.546 447.54 568.628 447.577 564.277C447.787 541.562 448.048 518.838 448.304 496.113C448.464 481.963 448.624 467.817 448.775 453.666C448.794 452.138 448.643 450.688 448.478 449.151C448.428 448.684 448.377 448.204 448.327 447.696L448.377 447.014L449.146 446.461L449.8 446.236C450.573 445.98 451.3 445.733 452.059 445.312L471.042 434.117C497.906 418.269 524.77 402.421 551.68 386.66C557.196 383.398 557.947 378.764 557.983 375.09C558.198 351.734 558.468 328.379 558.733 305.032C558.898 290.827 559.058 276.626 559.209 262.425C559.214 261.853 559.182 261.304 559.122 260.778L559.36 260.92V260.719C559.758 260.998 560.147 261.249 560.568 261.492L587.779 276.873C611.611 290.337 635.437 303.797 659.223 317.344C661.345 318.552 663.436 319.165 665.627 319.22L665.869 319.224L666.112 319.206C668.161 319.05 670.201 318.387 672.346 317.17C694.838 304.447 717.361 291.797 739.884 279.142L770.526 261.922C771.779 261.194 772.781 260.357 773.746 259.547C774.153 259.209 774.588 258.843 775.073 258.458L775.617 258.033L778.06 259.181L778.252 256.857L778.92 256.66L779.697 256.441L780.315 256.276L780.868 255.956L782.661 254.927C784.157 254.066 785.461 253.316 786.751 252.561C795.487 247.41 804.219 242.249 812.951 237.088C834.766 224.196 857.321 210.864 879.579 197.908C885.484 194.458 888.018 190.071 888.05 183.236C888.183 158.091 888.494 132.512 888.791 107.77C888.928 96.557 889.061 85.3482 889.184 74.1348C889.203 72.9224 889.134 71.7191 889.033 70.4107C889.719 70.8956 890.346 71.312 891.037 71.71L917.64 86.739C941.064 99.9654 965.285 113.64 989.038 127.205C991.28 128.486 993.512 129.113 995.858 129.113H996.105L996.384 129.086C998.429 128.875 1000.46 128.175 1002.77 126.88C1025.72 113.919 1048.7 101.009 1071.67 88.0978L1099.74 72.3231C1101.01 71.5956 1102.12 70.7904 1103.29 69.9395C1103.81 69.5643 1104.36 69.1617 1104.97 68.7362L1110.65 64.7697L1104.95 60.8306C1104.37 60.4234 1103.86 60.0619 1103.41 59.7325C1102.43 59.028 1101.58 58.4195 1100.59 57.8522C1090.63 52.2112 1080.67 46.5885 1070.71 40.9612C1048.36 28.3341 1025.25 15.2815 1002.59 2.34327C1000.35 1.06683 998.132 0.449201 995.799 0.449201H995.781H995.73H995.497L995.232 0.472076C993.196 0.687102 991.17 1.39623 988.855 2.70012C977.077 9.3568 965.28 15.9723 953.483 22.5924L942.121 28.97L939.665 30.3517V30.3608L906.493 49.0041L898.731 53.3641L892.478 56.8777C891.796 57.2575 891.083 57.6646 890.31 58.1084C889.29 58.7077 888.42 59.3757 887.496 60.0848L886.664 60.7208L885.813 61.1691L885.443 60.9129C884.674 60.3822 884.006 59.9064 883.403 59.4763C882.094 58.543 880.969 57.7424 879.698 57.0287L859.283 45.495C834.24 31.349 808.345 16.718 782.931 2.21974C781.984 1.67531 781.161 1.35506 780.328 1.03938L780.164 0.97533L779.995 0.925004C778.737 0.554426 777.461 0.36685 776.212 0.36685C774.625 0.36685 773.06 0.655077 771.427 1.24983L771.295 1.30016L771.162 1.35506L770.86 1.48316C770.316 1.70734 769.781 1.94066 769.2 2.27007C759.974 7.49476 750.725 12.6874 741.476 17.8801L729.688 24.5002L722.369 28.6177L711.007 35.009C703.405 39.2775 695.812 43.5506 688.214 47.8283L672.246 56.8137C671.006 57.4999 669.853 58.3051 668.637 59.1607C668.088 59.545 667.498 59.9613 666.834 60.4051L665.956 60.9953L665.508 60.707C664.694 60.1855 663.966 59.7051 663.289 59.2613C661.913 58.3509 660.723 57.5686 659.397 56.8274C650.633 51.8681 641.841 46.9087 633.054 41.9448C610.527 29.2308 587.23 16.0821 564.428 2.99292C563.257 2.32497 562.05 1.78511 560.728 1.34133C559.113 0.879254 557.768 0.687102 556.401 0.687102C555.637 0.687102 554.864 0.751153 554.1 0.874679L553.958 0.897554L553.821 0.92958C553.034 1.06226 552.22 1.32303 551.529 1.55636C550.44 1.96811 549.352 2.41647 548.144 3.11187C526.417 15.4782 504.237 27.9406 482.784 39.9958C472.858 45.5728 462.928 51.1544 453.006 56.7405C451.483 57.5777 449.932 58.479 447.389 59.9522L447.078 60.1306L446.191 60.6476L445.354 60.1306C444.558 59.641 443.831 59.1835 443.149 58.7489C441.781 57.8842 440.565 57.1202 439.325 56.4202L418.33 44.548L405.851 37.4887L403.404 35.9835C384.641 25.3786 364.62 14.0554 344.402 2.49424C341.735 0.952455 339.206 0.202148 336.681 0.202148C334.101 0.202148 331.553 0.970755 328.667 2.61319C307.013 14.9017 284.938 27.3001 263.59 39.2958C252.942 45.2754 242.298 51.2596 231.658 57.2529C230.373 57.9712 229.371 58.8404 228.31 59.7554C227.935 60.0802 227.532 60.4325 227.075 60.8031L226.91 60.8809L225.904 60.3547C225.593 60.1351 225.305 59.9293 225.035 59.7325C224.056 59.028 223.21 58.4195 222.217 57.8522C212.223 52.1929 202.233 46.5519 192.243 40.9108C169.921 28.302 146.84 15.2632 124.211 2.34327C121.901 1.02108 119.674 0.380575 117.4 0.380575C114.281 0.380575 111.683 1.62041 109.766 2.70012C87.3893 15.3455 64.9713 27.9269 42.5534 40.5082L13.3931 56.8823C12.1032 57.596 10.8087 58.3509 8.98822 59.4123L7.46045 60.2999L7.34152 60.3685L4.19908 58.5019L4.03441 62.29L0.905683 64.1109L3.86516 66.1559L3.84687 66.5402C3.79198 67.8349 3.72794 68.9512 3.67305 69.9532C3.56784 71.9067 3.48551 73.4531 3.49466 74.9995L3.75538 103.054C4.00696 129.438 4.26769 156.719 4.35917 183.547C4.3729 189.979 6.9207 194.321 12.6247 197.61C32.2341 209.057 52.1225 220.87 71.3614 232.294L87.8101 242.057L101.276 250.045L109.505 254.927L105.69 257.118C99.6846 260.558 94.063 263.779 88.4825 267.06C77.5228 273.483 66.5586 279.92 55.5989 286.357C41.0302 294.912 26.4661 303.468 11.8837 312C9.13459 313.601 4.01154 316.593 3.9658 324.133C3.7874 347.722 3.51753 371.32 3.25223 394.923C3.08756 409.371 2.92289 423.823 2.78109 438.276C2.76737 439.301 2.94118 440.243 3.16532 441.08L2.98235 441.016L2.93204 442.242L0 443.935L2.77651 445.907L2.71248 447.508L2.62557 449.407C2.55238 450.903 2.49749 452.129 2.50664 453.355L2.79024 484.218C3.03724 510.58 3.29797 537.833 3.41232 564.638C3.44434 570.526 5.74972 574.383 11.1289 577.531C33.8259 590.844 56.8431 604.501 79.1055 617.704L105.69 633.47C106.459 633.923 107.237 634.334 108.037 634.737C107.506 634.993 106.98 635.268 106.454 635.583C97.5988 640.799 88.7158 646.042 79.8328 651.29C57.5429 664.452 34.4892 678.063 11.7327 691.28C5.57132 694.867 2.93661 699.433 2.91831 706.547C2.79481 732.501 2.47462 758.908 2.16358 784.451C2.04007 794.644 1.91657 804.837 1.80222 815.035C1.77935 816.522 1.83424 818.027 1.90742 819.953L2.00348 822.712L2.04007 823.91L0.0137225 825.37L2.12698 826.724L2.23219 830.151L5.21454 828.7L5.983 829.19L8.06424 830.54C9.53255 831.5 10.7859 832.315 12.0849 833.06C21.0137 838.111 29.9241 843.139 38.8346 848.163C61.2388 860.803 84.4115 873.87 107.095 886.895C109.963 888.537 112.657 889.333 115.342 889.333C118.114 889.333 120.881 888.496 124.047 886.698C147.75 873.234 171.933 859.692 195.317 846.589L218.023 833.866L221.302 831.976L222.396 831.345ZM892.725 62.2808C893.475 61.8462 894.166 61.4528 894.843 61.0776C899.513 58.4515 904.183 55.8209 908.858 53.1994C920.732 46.5244 932.607 39.8449 944.486 33.179V33.1744C960.07 24.4224 975.668 15.6932 991.225 6.9C992.821 5.99872 994.266 5.42227 995.744 5.26672C995.767 5.26672 995.785 5.26672 995.808 5.26672C997.18 5.26672 998.594 5.60527 1000.21 6.52943C1032.81 25.1407 1065.55 43.5506 1098.22 62.0429C1099.4 62.72 1100.46 63.571 1102.23 64.7971C1100.29 66.1559 1098.91 67.2768 1097.4 68.1369C1065.08 86.3135 1032.72 104.463 1000.43 122.694C998.831 123.591 997.386 124.158 995.909 124.309C995.895 124.309 995.886 124.309 995.872 124.309C994.491 124.309 993.063 123.966 991.435 123.037C958.83 104.422 926.107 86.0161 893.434 67.5376C892.318 66.8971 891.279 66.0781 889.349 64.7331C890.753 63.6762 891.705 62.8802 892.725 62.2808ZM223.814 822.547C221.591 821.467 219.916 820.795 218.384 819.898C186.443 800.976 154.529 781.989 122.533 763.163C119.12 761.15 117.698 758.931 117.675 754.864C117.487 717.509 117.062 680.14 116.751 642.771C116.728 641.211 116.952 639.637 117.117 637.354C119.12 638.297 120.593 638.864 121.915 639.637C154.048 658.683 186.159 677.802 218.352 696.747C221.778 698.76 223.223 700.97 223.237 705.037C223.434 742.401 223.85 779.752 224.184 817.116C224.198 818.69 223.978 820.255 223.814 822.547ZM118.786 380.049C118.411 339.13 118.045 298.769 117.675 258.674C118.329 258.298 118.526 258.152 118.727 258.092C118.878 258.028 119.074 257.96 119.23 257.96C119.285 257.96 119.331 257.969 119.367 257.987C120.634 258.596 121.933 259.158 123.141 259.849C156.642 279.714 190.148 299.583 223.841 319.567C224.212 360.331 224.573 400.838 224.962 442.974C188.881 421.6 154.067 400.966 118.786 380.049ZM224.847 454.924C224.459 491.058 223.923 527.201 223.717 563.357C223.69 568.445 222.098 571.332 217.68 573.898C186.447 592.111 155.361 610.581 124.225 628.931C122.276 630.089 120.296 631.205 117.492 632.838C117.295 629.778 117.044 627.769 117.062 625.761C117.455 589.142 117.949 552.533 118.233 515.914C118.265 511.778 119.175 509.056 123.045 506.792C155.069 488.103 186.955 469.162 218.905 450.313C220.452 449.407 222.139 448.702 224.545 447.49C224.669 450.413 224.879 452.664 224.847 454.924ZM120.68 386.34C153.477 405.093 186.42 423.608 219.29 442.219C220.273 442.778 221.151 443.519 222.711 444.626C220.932 445.934 219.624 447.11 218.128 447.961C185.807 466.165 153.463 484.328 121.183 502.569C119.289 503.635 117.592 504.33 115.79 504.33C114.45 504.33 113.055 503.946 111.472 503.045C78.6664 484.278 45.7416 465.772 12.8625 447.165C11.8837 446.589 11.0009 445.838 8.89674 444.342C11.6367 442.755 13.4252 441.707 15.2091 440.696C47.1458 422.771 79.0963 404.887 110.997 386.889C112.904 385.809 114.615 385.082 116.449 385.082C117.753 385.086 119.125 385.462 120.68 386.34ZM225.332 694.469C223.965 694.469 222.528 694.08 220.9 693.151C188.286 674.499 155.54 656.07 122.839 637.564C121.641 636.896 120.547 636.027 118.795 634.838C120.575 633.479 121.892 632.253 123.42 631.37C155.54 613.285 187.755 595.3 219.797 577.05C221.856 575.879 223.658 575.321 225.437 575.321C227.354 575.321 229.243 575.971 231.398 577.197C263.193 595.369 295.148 613.34 327.025 631.361C328.63 632.271 330.122 633.383 332.916 635.185C329.797 636.974 327.821 638.159 325.831 639.276C294.278 657.004 262.721 674.682 231.228 692.483C229.156 693.65 227.317 694.469 225.332 694.469ZM333.15 753.533C333.122 758.542 331.681 761.553 327.194 764.156C295.939 782.378 264.839 800.866 233.689 819.29C231.754 820.424 229.797 821.518 226.833 823.229C226.668 819.715 226.457 817.46 226.462 815.209C226.865 779.029 227.368 742.873 227.61 706.698C227.633 701.702 229.014 698.646 233.524 696.011C265.013 677.72 296.319 659.131 327.702 640.657C329.449 639.632 331.32 638.809 333.95 637.473C334.097 640.525 334.316 642.766 334.293 645.003C333.891 681.187 333.383 717.353 333.15 753.533ZM334.183 631.018C333.776 631.301 333.584 631.438 333.374 631.544C333.218 631.603 333.008 631.708 332.852 631.708C332.816 631.708 332.779 631.704 332.752 631.686C331.466 631.1 330.172 630.56 328.96 629.851C295.431 609.991 261.903 590.098 228.223 570.124C227.857 529.429 227.477 489.063 227.112 447.252C230.185 448.812 232.065 449.631 233.808 450.679C265.338 469.336 296.835 488.093 328.42 506.691C331.773 508.658 333.415 510.754 333.415 514.899C333.598 552.281 334.005 589.636 334.344 626.992C334.357 628.391 334.234 629.801 334.183 631.018ZM227.162 437.164C227.564 399.603 228.026 362.069 228.397 324.513C228.433 321.196 229.184 318.854 232.289 317.005C265.516 297.566 298.651 277.957 331.823 258.417C332.413 258.074 333.122 257.914 334.691 257.324C334.842 259.927 335.043 261.748 335.025 263.564C334.613 300.407 334.119 337.259 333.845 374.102C333.813 378.389 332.459 380.896 328.754 383.064C296.524 401.9 264.405 420.914 232.244 439.84C231.036 440.55 229.755 441.103 227.962 441.977C227.647 440.161 227.153 438.66 227.162 437.164ZM330.799 502.967C298.404 484.47 265.868 466.174 233.392 447.806C232.207 447.138 231.1 446.291 229.293 445.097C231.073 443.761 232.335 442.567 233.817 441.73C266.353 423.43 298.912 405.203 331.402 386.839C333.127 385.869 334.659 385.32 336.228 385.32C337.573 385.32 338.945 385.722 340.487 386.601C360.645 398.079 380.854 409.48 401.053 420.9V421.124C413.275 428.037 425.502 434.963 437.719 441.872C439.092 442.631 440.34 443.601 442.701 445.161C442.687 445.17 442.673 445.18 442.655 445.193C439.664 446.923 437.861 447.975 436.055 449.009C424.381 455.56 412.717 462.13 401.053 468.695V469.029C381.064 480.261 361.057 491.479 341.113 502.761C339.188 503.854 337.481 504.458 335.734 504.458C334.179 504.467 332.596 503.996 330.799 502.967ZM442.765 564.231C442.733 568.015 442.028 570.709 438.342 572.873C425.886 580.148 413.472 587.482 401.044 594.802V595.149C381.462 606.683 361.889 618.235 342.316 629.778C340.93 630.606 339.453 631.251 337.426 632.267C337.106 630.382 336.562 628.876 336.585 627.385C336.974 589.801 337.491 552.222 337.76 514.647C337.792 510.127 339.865 508.004 343.382 505.945C371.993 489.26 400.527 472.447 429.102 455.67C433.264 453.227 437.514 450.802 442.586 447.888C442.875 447.755 443.154 447.627 443.474 447.476C443.675 449.851 443.986 451.763 443.963 453.62C443.579 490.491 443.108 527.37 442.765 564.231ZM443.913 442.133C441.653 440.966 440.093 440.206 438.653 439.374C426.353 432.086 414.053 424.793 401.753 417.501V417.711C382.647 406.374 363.531 395.055 344.347 383.842C339.993 381.294 338.172 378.594 338.149 373.397C338.067 337.231 337.623 301.07 337.321 264.905C337.303 262.635 337.468 260.357 337.582 257.274C339.91 258.353 341.589 258.994 343.103 259.89C362.42 271.323 381.732 282.766 401.044 294.203V294.377C413.454 301.729 425.859 309.1 438.291 316.424C441.598 318.382 443.327 320.432 443.346 324.623C443.515 361.96 443.94 399.301 444.251 436.62C444.279 438.139 444.091 439.676 443.913 442.133ZM553.18 375.044C553.148 378.366 552.366 380.671 549.256 382.511C516.038 401.968 482.889 421.554 449.717 441.112C449.223 441.387 448.592 441.561 447.54 441.927C447.408 439.438 447.243 437.649 447.275 435.892C447.682 399.045 448.162 362.197 448.464 325.35C448.514 321.461 449.406 318.918 453.029 316.795C485.451 297.85 517.763 278.68 550.111 259.611C551.14 259.007 552.307 258.481 553.716 257.804C554.004 259.492 554.415 260.947 554.402 262.379C554.008 299.917 553.528 337.483 553.18 375.044ZM883.942 67.6062C883.965 67.6931 883.988 67.7617 884.011 67.8441C884.208 70.4244 884.409 72.2773 884.381 74.089C883.993 110.47 883.439 146.85 883.247 183.217C883.224 188.328 881.559 191.187 877.168 193.754C846.128 211.821 815.257 230.18 784.317 248.421C782.556 249.459 780.754 250.48 778.476 251.797C778.238 251.861 777.922 251.953 777.579 252.049C777.451 249.034 777.278 246.902 777.287 244.797C777.689 208.655 778.229 172.516 778.412 136.364C778.453 131.245 780.159 128.418 784.537 125.86C815.559 107.77 846.439 89.4108 877.365 71.1564C878.531 70.4656 879.707 69.7885 881.001 69.0427C881.825 68.6127 882.726 68.2055 883.942 67.6062ZM674.615 61.0136C687.537 53.7484 700.445 46.4649 713.372 39.2089C719.602 35.7136 725.827 32.2 732.053 28.7001C745.231 21.2885 758.427 13.909 771.583 6.4608C772.109 6.16342 772.589 5.99415 773.078 5.77912C774.163 5.38567 775.192 5.18894 776.225 5.18894C777.026 5.18894 777.826 5.30789 778.65 5.55037C779.267 5.78369 779.885 6.01702 780.557 6.40133C812.773 24.7838 845.076 42.9833 877.346 61.224C878.915 62.107 880.347 63.2416 882.721 64.8795C879.958 66.4578 878.01 67.6062 876.07 68.7133C844.559 86.437 813.006 104.074 781.586 121.962C779.446 123.179 777.552 123.737 775.663 123.756C773.906 123.646 772.127 123.097 770.124 121.953C738.566 103.845 706.84 86.0482 675.196 68.1277C673.421 67.1487 671.797 65.8997 669.542 64.3945C671.633 62.9854 673.055 61.8782 674.615 61.0136ZM667.932 67.8029C668.495 67.9539 669.039 68.0866 669.538 68.2055C670.713 68.7454 671.788 69.2532 672.749 69.8297C704.667 88.7108 736.549 107.684 768.532 126.501C771.981 128.527 773.326 130.815 773.326 134.841C773.527 171.931 773.938 209.044 774.259 246.142C774.268 247.844 774.025 249.574 773.833 251.884C771.944 250.997 770.407 250.347 769.058 249.546C737.126 230.624 705.244 211.665 673.27 192.857C669.812 190.83 668.477 188.534 668.458 184.53C668.271 147.413 667.877 110.323 667.548 73.2243C667.557 71.6276 667.758 69.9486 667.932 67.8029ZM665.833 195.392C667.347 195.41 668.888 195.822 670.64 196.833C702.824 215.224 735.15 233.396 767.42 251.674C768.815 252.442 770.119 253.398 772.109 254.684C770.526 255.928 769.442 256.999 768.18 257.731C735.442 276.146 702.682 294.491 669.986 312.988C668.486 313.839 667.127 314.306 665.764 314.411C664.447 314.375 663.111 314.013 661.611 313.162C628.782 294.464 595.871 275.926 562.978 257.324C561.999 256.761 561.112 256.006 558.971 254.492C561.698 252.918 563.486 251.88 565.284 250.859C597.22 232.93 629.171 215.051 661.048 197.02C661.917 196.531 662.736 196.151 663.541 195.867C663.761 195.79 663.98 195.771 664.195 195.712C664.744 195.561 665.288 195.433 665.833 195.392ZM664.223 67.4369C664.36 69.8891 664.561 71.6551 664.529 73.4165C664.131 110.268 663.633 147.111 663.367 183.949C663.326 188.232 661.986 190.757 658.276 192.939C626.042 211.743 593.927 230.766 561.762 249.711C560.723 250.319 559.552 250.846 558.116 251.55C557.805 249.857 557.379 248.43 557.398 247.03C557.796 209.474 558.262 171.926 558.619 134.356C558.66 131.062 559.42 128.72 562.535 126.88C595.738 107.409 628.883 87.8279 662.045 68.2741C662.535 68.0179 663.143 67.8304 664.223 67.4369ZM455.376 60.9358C487.102 43.0611 518.902 25.3008 550.55 7.28431C551.433 6.77648 552.256 6.43335 553.075 6.11767C553.647 5.92552 554.214 5.74252 554.763 5.64644C554.8 5.63729 554.836 5.63729 554.873 5.62814C555.39 5.54579 555.902 5.50462 556.41 5.50462C557.334 5.50462 558.258 5.64187 559.2 5.90722C560.11 6.21375 561.039 6.59805 562.036 7.16993C593.602 25.2871 625.365 43.0977 657.05 61.0273C658.843 62.0292 660.518 63.2324 662.919 64.7651C660.957 66.2016 659.63 67.4095 658.121 68.2696C625.763 86.4462 593.346 104.568 561.043 122.822C559.378 123.769 557.887 124.254 556.391 124.332C555.015 124.273 553.615 123.888 552.041 122.992C519.391 104.39 486.636 85.9429 453.949 67.4369C452.773 66.7827 451.726 65.8677 449.498 64.2939C452.192 62.7429 453.775 61.8188 455.376 60.9358ZM500.509 98.0988C518.097 108.434 535.616 118.902 553.368 129.438C553.729 170.055 554.104 210.421 554.479 252.429C518.449 231.068 483.964 210.636 449.031 189.924C448.652 149.541 448.277 109.116 447.883 67.2585C466.335 77.3647 483.292 87.9834 500.509 98.0988ZM445.816 195.149C445.866 195.149 445.921 195.149 445.971 195.149C447.476 195.149 449.018 195.561 450.765 196.558C482.958 214.964 515.279 233.14 547.55 251.404C548.858 252.136 550.143 253.032 551.945 254.204C552.028 254.277 552.128 254.368 552.22 254.451C550.628 255.677 549.558 256.747 548.272 257.443C515.562 275.912 482.802 294.267 450.12 312.773C449.42 313.171 448.766 313.45 448.112 313.688C447.417 313.848 446.731 313.926 446.035 313.926C445.075 313.926 444.1 313.775 443.094 313.482C442.646 313.295 442.216 313.162 441.74 312.892C428.429 305.311 415.087 297.786 401.748 290.241V290.42C382.766 279.664 363.76 268.944 344.768 258.193C343.158 257.296 341.648 256.217 339.508 254.83C340.793 253.728 341.648 252.721 342.723 252.117C375.529 233.648 408.376 215.247 441.182 196.741C442.843 195.808 444.329 195.291 445.816 195.149ZM444.645 67.4872C444.782 70.3421 444.988 72.5244 444.965 74.6609C444.562 110.854 444.059 147.006 443.821 183.185C443.794 188.186 442.362 191.215 437.889 193.827C425.58 201.001 413.321 208.261 401.048 215.503V215.86C381.741 227.248 362.447 238.658 343.14 250.05C341.786 250.85 340.313 251.44 337.925 252.557C337.76 249.789 337.568 248.165 337.582 246.545C337.994 209.432 338.506 172.324 338.771 135.198C338.803 130.911 340.235 128.418 343.945 126.254C363.243 114.99 382.5 103.653 401.748 92.3022V92.3205C414.19 84.9959 426.627 77.6667 439.069 70.3512C440.661 69.4133 442.376 68.6173 444.645 67.4872ZM234.018 61.4436C266.358 43.2304 298.757 25.1178 331.05 6.79478C333.081 5.63729 334.865 5.01509 336.681 5.01509C338.355 5.01509 340.061 5.54579 342.01 6.67125C361.651 17.903 381.343 29.0478 401.048 40.1788V40.3024C413.019 47.0734 424.99 53.849 436.969 60.6201C438.776 61.6403 440.523 62.807 442.843 64.2344C441.566 65.4147 440.748 66.4945 439.682 67.0938C426.806 74.3498 413.929 81.5967 401.053 88.8527V89.237C381.855 99.9929 362.667 110.758 343.556 121.665C341.031 123.106 338.831 123.897 336.585 123.897C334.563 123.897 332.5 123.262 330.126 121.889C299.2 104.033 268.059 86.6063 236.987 69.0153C234.782 67.7663 232.614 66.4807 229.778 64.82C231.599 63.3468 232.683 62.1893 234.018 61.4436ZM228.177 66.9748C230.917 68.4068 232.971 69.3493 234.906 70.5022C266.047 88.9259 297.101 107.491 328.347 125.764C332.733 128.326 334.449 131.08 334.458 136.236C334.554 172.42 334.998 208.613 335.309 244.797C335.327 247.067 335.126 249.35 335.011 252.479C332.267 251.042 330.208 250.086 328.278 248.956C297.151 230.523 266.079 211.962 234.833 193.699C230.451 191.128 228.763 188.355 228.749 183.204C228.644 147.024 228.209 110.845 227.894 74.6289C227.866 72.3825 228.049 70.1225 228.177 66.9748ZM226.535 195.511C228.53 195.511 230.538 196.156 232.875 197.492C264.217 215.517 295.783 233.2 327.263 251.015C329.083 252.04 330.821 253.193 333.131 254.634C331.91 255.796 331.155 256.949 330.09 257.539C296.931 276.21 263.714 294.803 230.574 313.51C229.129 314.311 227.816 314.741 226.494 314.741C225.282 314.741 224.07 314.379 222.734 313.62C189.242 294.583 155.713 275.629 122.212 256.628C121.613 256.299 121.128 255.755 119.719 254.615C122.061 253.087 123.717 251.893 125.501 250.891C157.026 233.145 188.615 215.508 220.035 197.565C222.405 196.211 224.459 195.511 226.535 195.511ZM225.067 67.0801C225.282 69.6238 225.597 71.5819 225.579 73.5354C225.2 110.41 224.728 147.294 224.381 184.164C224.358 187.971 223.649 190.624 219.953 192.793C187.49 211.738 155.155 230.917 122.78 250.008C121.604 250.699 120.323 251.221 117.945 252.383C117.862 248.888 117.743 246.591 117.762 244.308C118.169 208.357 118.695 172.429 118.878 136.479C118.91 131.172 120.406 128.056 125.176 125.275C156.88 106.901 188.373 88.1664 219.948 69.5552C221.33 68.7362 222.826 68.1415 225.067 67.0801ZM15.7488 61.0776C47.8777 43.0245 80.0478 25.0217 112.126 6.89543C113.993 5.84317 115.653 5.19352 117.396 5.19352C118.773 5.19352 120.2 5.59612 121.819 6.52485C154.414 25.1361 187.156 43.5461 219.825 62.0384C221.01 62.7155 222.066 63.5664 223.841 64.7925C221.892 66.1513 220.516 67.2722 219.002 68.1323C186.685 86.3089 154.328 104.458 122.034 122.69C120.177 123.733 118.521 124.369 116.787 124.369C115.401 124.369 113.97 123.962 112.337 123.033C79.7321 104.417 47.0086 86.0116 14.3354 67.533C13.1416 66.8513 12.0804 65.9866 9.87103 64.4631C12.524 62.9259 14.125 61.9789 15.7488 61.0776ZM90.2619 237.912C65.2001 223.052 40.1748 208.115 15.0261 193.438C10.9048 191.059 9.18034 188.428 9.16661 183.529C9.04311 147.34 8.62229 111.161 8.3021 74.9766C8.29295 72.7074 8.48964 70.4427 8.64973 66.7461C44.4745 88.0063 79.3022 108.658 114.404 129.452C114.77 170.188 115.141 210.723 115.52 252.895C105.979 247.24 98.1248 242.569 90.2619 237.912ZM8.77324 324.156C8.79611 319.787 11.1244 318.007 14.308 316.15C39.8638 301.194 65.3784 286.169 90.916 271.205C98.5823 266.703 106.322 262.306 115.045 257.292C115.223 260.037 115.461 261.867 115.443 263.665C115.036 300.544 114.546 337.424 114.244 374.308C114.217 378.466 113.16 381.134 109.332 383.38C77.285 402.124 45.3665 421.069 13.4023 439.937C12.0163 440.769 10.516 441.414 8.5674 442.393C8.16945 440.815 7.57481 439.58 7.5931 438.322C7.96818 400.257 8.48964 362.211 8.77324 324.156ZM13.5624 573.381C9.92135 571.249 8.24721 569.008 8.22434 564.62C8.06424 527.516 7.63884 490.417 7.31865 453.319C7.30493 451.69 7.42386 450.066 7.51992 447.71C9.30841 448.336 10.8362 448.597 12.0849 449.338C44.6301 468.581 77.1249 487.897 109.665 507.116C112.309 508.681 113.782 510.374 113.805 513.7C114.029 552.222 114.404 590.73 114.715 629.242C114.72 629.915 114.523 630.597 114.244 632.445C111.751 631.173 109.871 630.359 108.142 629.334C76.6263 610.668 45.1607 591.91 13.5624 573.381ZM6.81092 822.565C6.71029 819.244 6.58679 817.167 6.61423 815.085C7.01218 778.906 7.55651 742.735 7.72575 706.561C7.73948 701.148 9.49138 698.156 14.1479 695.443C45.8422 677.033 77.3536 658.308 108.934 639.71C110.283 638.9 111.811 638.356 113.938 637.368C114.162 639.701 114.473 641.458 114.459 643.187C114.047 680.309 113.576 717.417 113.256 754.525C113.215 758.41 112.296 760.967 108.691 763.085C76.425 781.916 44.2916 800.967 12.1124 819.939C10.7584 820.749 9.29012 821.362 6.81092 822.565ZM215.667 829.67C184.325 847.252 152.928 864.761 121.668 882.517C119.381 883.811 117.382 884.525 115.337 884.525C113.503 884.525 111.632 883.953 109.487 882.727C77.9116 864.601 46.1487 846.808 14.4726 828.888C12.6796 827.863 10.9734 826.674 8.57655 825.141C10.5206 823.741 11.8425 822.538 13.352 821.673C45.4854 803.57 77.6829 785.567 109.762 767.345C111.811 766.182 113.599 765.556 115.424 765.556C117.085 765.556 118.773 766.077 120.712 767.189C152.704 785.503 184.86 803.579 216.957 821.742C218.549 822.634 220.017 823.727 222.812 825.557C219.633 827.374 217.661 828.527 215.667 829.67Z" fill="url(#paint1_linear_372_4517)"/>
</g>
<defs>
<linearGradient id="paint0_linear_372_4517" x1="838.32" y1="685.589" x2="229.979" y2="136.627" gradientUnits="userSpaceOnUse">
<stop/>
<stop offset="1" stop-color="white"/>
</linearGradient>
<linearGradient id="paint1_linear_372_4517" x1="646.592" y1="528.837" x2="177.382" y2="105.426" gradientUnits="userSpaceOnUse">
<stop stop-color="#AEB6BD"/>
<stop offset="1" stop-color="white"/>
</linearGradient>
<clipPath id="clip0_372_4517">
<rect width="1440" height="1152.78" fill="white" transform="translate(0 0.202148)"/>
</clipPath>
</defs>
</svg>
