<svg width="81" height="80" viewBox="0 0 81 80" fill="none" xmlns="http://www.w3.org/2000/svg">
<rect x="0.25" width="80" height="80" fill="#D9D9D9" fill-opacity="0.1"/>
<g clip-path="url(#clip0_372_4541)">
<path d="M27.3594 34.3281C27.3594 41.436 33.1421 47.2188 40.25 47.2188C47.3579 47.2188 53.1406 41.436 53.1406 34.3281C53.1406 27.2202 47.3579 21.4375 40.25 21.4375C33.1421 21.4375 27.3594 27.2202 27.3594 34.3281ZM40.25 23.1562C46.4103 23.1562 51.4219 28.1678 51.4219 34.3281C51.4219 40.4885 46.4103 45.5 40.25 45.5C34.0897 45.5 29.0781 40.4885 29.0781 34.3281C29.0781 28.1678 34.0897 23.1562 40.25 23.1562Z" fill="#5869FF"/>
<path d="M32.2912 32.796L35.6223 36.0781L34.8559 40.6909C34.8297 40.8483 34.8479 41.01 34.9085 41.1577C34.969 41.3054 35.0695 41.4333 35.1987 41.527C35.3278 41.6208 35.4805 41.6768 35.6396 41.6887C35.7987 41.7006 35.958 41.668 36.0997 41.5946L40.2499 39.4394L44.3998 41.5946C44.5414 41.6681 44.7007 41.7007 44.8598 41.6888C45.0189 41.6769 45.1716 41.6209 45.3007 41.5271C45.4299 41.4333 45.5304 41.3054 45.5909 41.1577C45.6515 41.01 45.6697 40.8484 45.6435 40.6909L44.8771 36.0781L48.2081 32.796C48.3219 32.6841 48.4022 32.5426 48.44 32.3876C48.4779 32.2325 48.4718 32.07 48.4224 31.9182C48.3729 31.7664 48.2823 31.6314 48.1605 31.5282C48.0387 31.4251 47.8906 31.3578 47.7328 31.3341L43.11 30.6382L41.0182 26.4551C40.9469 26.3124 40.8372 26.1923 40.7015 26.1084C40.5657 26.0244 40.4093 25.98 40.2497 25.98C40.0901 25.98 39.9337 26.0244 39.7979 26.1084C39.6622 26.1923 39.5525 26.3124 39.4812 26.4551L37.3894 30.6382L32.7666 31.3341C32.6088 31.3578 32.4607 31.4251 32.339 31.5282C32.2172 31.6314 32.1266 31.7664 32.0773 31.9182C32.0279 32.07 32.0218 32.2325 32.0596 32.3875C32.0974 32.5426 32.1775 32.684 32.2912 32.796ZM38.0866 32.2713C38.3633 32.2297 38.6023 32.0561 38.7275 31.806L40.2499 28.7611L41.7723 31.8061C41.834 31.9294 41.9244 32.036 42.0359 32.1169C42.1474 32.1979 42.2768 32.2509 42.4131 32.2714L45.7777 32.778L43.353 35.1664C43.2549 35.2633 43.1815 35.3822 43.1389 35.5133C43.0963 35.6444 43.0858 35.7838 43.1083 35.9198L43.6662 39.277L40.6456 37.7087C40.5233 37.6452 40.3875 37.612 40.2497 37.612C40.1118 37.612 39.976 37.6452 39.8537 37.7087L36.8332 39.277L37.3911 35.9198C37.4137 35.7838 37.4033 35.6443 37.3607 35.5132C37.3182 35.3821 37.2446 35.2632 37.1464 35.1664L34.722 32.778L38.0866 32.2713ZM41.1092 18.8594C41.1092 19.334 40.7245 19.7188 40.2499 19.7188C39.7752 19.7188 39.3905 19.334 39.3905 18.8594C39.3905 18.3847 39.7752 18 40.2499 18C40.7245 18 41.1092 18.3847 41.1092 18.8594Z" fill="#5869FF"/>
<path d="M36.1999 18.5073C28.9707 20.3525 23.9219 26.8587 23.9219 34.3288C23.9219 38.9684 25.8727 43.3402 29.297 46.4363L24.1195 55.5607C24.038 55.7044 23.9997 55.8686 24.0091 56.0335C24.0185 56.1985 24.0753 56.3572 24.1726 56.4908C24.2698 56.6243 24.4036 56.727 24.5577 56.7865C24.7118 56.846 24.8799 56.8598 25.0416 56.8263L30.9213 55.6054L32.9879 61.4287C33.0429 61.5838 33.1414 61.7199 33.2715 61.8207C33.4017 61.9215 33.5581 61.9827 33.7221 61.9972C33.8861 62.0117 34.0508 61.9787 34.1965 61.9022C34.3423 61.8258 34.4631 61.709 34.5444 61.5659L40.25 51.5355L45.9551 61.5659C46.0301 61.6978 46.1387 61.8075 46.2698 61.8838C46.401 61.9601 46.55 62.0003 46.7017 62.0003C46.7269 62.0003 46.7524 61.9993 46.7776 61.9973C46.9416 61.9827 47.0979 61.9214 47.2281 61.8206C47.3583 61.7198 47.4569 61.5838 47.5121 61.4287L49.5783 55.6054L55.4579 56.8263C55.7883 56.8948 56.1282 56.7635 56.327 56.491C56.4244 56.3574 56.4812 56.1986 56.4906 56.0336C56.5 55.8686 56.4616 55.7044 56.38 55.5607L51.2027 46.4363C54.6272 43.3401 56.5779 38.9684 56.5779 34.3288C56.5779 26.8586 51.529 20.3525 44.3002 18.5073C44.1909 18.4793 44.0771 18.4732 43.9654 18.4892C43.8537 18.5052 43.7462 18.5431 43.6491 18.6007C43.5521 18.6583 43.4673 18.7344 43.3996 18.8247C43.332 18.9151 43.2828 19.0179 43.2549 19.1272C43.1374 19.5872 43.415 20.0551 43.8749 20.1726C50.3422 21.8235 54.8594 27.6448 54.8594 34.3288C54.8594 42.4636 48.2526 48.9382 40.25 48.9382C32.2417 48.9382 25.6406 42.4583 25.6406 34.3288C25.6406 27.6448 30.1574 21.8235 36.6248 20.1726C37.0847 20.0551 37.3623 19.5872 37.2453 19.1272C37.2174 19.0179 37.1682 18.9151 37.1005 18.8247C37.0329 18.7344 36.9481 18.6582 36.851 18.6006C36.7539 18.5431 36.6464 18.5052 36.5347 18.4892C36.423 18.4731 36.3092 18.4793 36.1999 18.5073ZM33.9796 59.0835L32.2907 54.3243C32.2213 54.1285 32.0833 53.9646 31.9023 53.8627C31.7213 53.7608 31.5095 53.728 31.3061 53.7702L26.5517 54.7574L30.6492 47.536C33.0383 49.2728 35.8672 50.331 38.8088 50.5928L33.9796 59.0835ZM49.1935 53.7702C48.9901 53.728 48.7784 53.7609 48.5974 53.8628C48.4164 53.9647 48.2784 54.1287 48.2089 54.3244L46.5204 59.0835L41.6907 50.5928C44.6328 50.331 47.4614 49.2728 49.8508 47.536L53.9483 54.7573L49.1935 53.7702Z" fill="#5869FF"/>
</g>
<defs>
<clipPath id="clip0_372_4541">
<rect width="44" height="44" fill="white" transform="translate(18.25 18)"/>
</clipPath>
</defs>
</svg>
