<svg width="81" height="80" viewBox="0 0 81 80" fill="none" xmlns="http://www.w3.org/2000/svg">
<rect x="0.75" width="80" height="80" fill="#D9D9D9" fill-opacity="0.1"/>
<path d="M53.5661 35.6836C56.6982 35.6836 59.2463 33.1355 59.2463 30.0035C59.2462 26.872 56.6982 24.3242 53.5661 24.3242C50.4341 24.3242 47.8861 26.872 47.8861 30.0036C47.8861 33.1355 50.4341 35.6836 53.5661 35.6836ZM53.5661 26.2226C55.6514 26.2226 57.348 27.9188 57.348 30.0036C57.348 32.0888 55.6515 33.7853 53.5661 33.7853C51.4809 33.7853 49.7844 32.0888 49.7844 30.0036C49.7844 27.9188 51.4809 26.2226 53.5661 26.2226ZM18.0065 50.3146C20.0292 52.1461 24.1571 52.8822 27.9466 52.8822C28.6382 52.8822 29.3182 52.8571 29.9725 52.8102C30.4559 53.6879 31.4528 54.598 33.3852 55.3094C35.344 56.0305 37.9597 56.4278 40.7503 56.4278C45.4262 56.4278 50.1367 55.2958 51.5258 52.81C52.1809 52.8569 52.8614 52.8822 53.5541 52.8822C57.3434 52.882 61.4718 52.146 63.4944 50.3146C64.3164 49.5704 64.7508 48.6649 64.7508 47.6962C64.7508 41.5289 59.7334 36.5115 53.5661 36.5115C50.1115 36.5115 46.8753 38.1017 44.7605 40.8004C43.4814 40.3067 42.122 40.0537 40.7509 40.0543C39.3796 40.0538 38.02 40.3068 36.7407 40.8005C34.6259 38.1018 31.3899 36.5115 27.9354 36.5115C21.7678 36.5115 16.75 41.5289 16.75 47.6962C16.7499 48.6649 17.1845 49.5704 18.0065 50.3146ZM53.5661 38.4099C58.6866 38.4099 62.8525 42.5757 62.8525 47.6962C62.8525 48.1259 62.6457 48.5221 62.2202 48.9074C60.5937 50.38 56.2803 51.2094 51.9277 50.9354C51.8221 47.0013 49.678 43.5671 46.5126 41.6567C47.3841 40.6382 48.4659 39.8206 49.6835 39.2602C50.9011 38.6997 52.2257 38.4096 53.5661 38.4099ZM50.0371 51.2388C50.0371 53.0839 45.9579 54.5294 40.7503 54.5294C35.5428 54.5294 31.4636 53.0841 31.4636 51.2388C31.4636 46.1184 35.6297 41.9527 40.7507 41.9527C45.8712 41.9527 50.0371 46.1185 50.0371 51.2388ZM27.9352 38.4099C29.2756 38.4097 30.6001 38.6997 31.8177 39.2602C33.0353 39.8206 34.117 40.6382 34.9885 41.6565C31.8228 43.5671 29.6786 47.0011 29.573 50.9352C25.2203 51.2093 20.907 50.3798 19.2805 48.9072C18.8552 48.522 18.6482 48.1258 18.6482 47.6961C18.6482 42.5757 22.8145 38.4099 27.9352 38.4099ZM27.9352 35.6836C31.0673 35.6836 33.6154 33.1355 33.6154 30.0035C33.6154 26.872 31.0673 24.3242 27.9352 24.3242C24.8032 24.3242 22.2552 26.872 22.2552 30.0036C22.2552 33.1355 24.8033 35.6836 27.9352 35.6836ZM27.9352 26.2226C30.0205 26.2226 31.7171 27.9188 31.7171 30.0036C31.7171 32.0888 30.0206 33.7853 27.9352 33.7853C25.85 33.7853 24.1535 32.0888 24.1535 30.0036C24.1535 27.9188 25.85 26.2226 27.9352 26.2226ZM40.7507 39.2262C43.8828 39.2262 46.4308 36.6782 46.4308 33.5461C46.4308 30.4145 43.8828 27.8667 40.7507 27.8667C37.6187 27.8667 35.0707 30.4145 35.0707 33.5461C35.0707 36.6782 37.6187 39.2262 40.7507 39.2262ZM40.7507 29.7652C42.836 29.7652 44.5324 31.4614 44.5324 33.5463C44.5324 35.6315 42.836 37.328 40.7507 37.328C38.6655 37.328 36.9691 35.6315 36.9691 33.5463C36.9691 31.4614 38.6655 29.7652 40.7507 29.7652Z" fill="#FFC658"/>
</svg>
