<svg width="24" height="24" viewBox="0 0 24 24" fill="none" xmlns="http://www.w3.org/2000/svg">
<path d="M18.8571 24C17.4932 24 16.1851 23.4582 15.2206 22.4937C14.2561 21.5292 13.7143 20.2211 13.7143 18.8571C13.7143 17.4932 14.2561 16.1851 15.2206 15.2206C16.1851 14.2561 17.4932 13.7143 18.8571 13.7143C20.2211 13.7143 21.5292 14.2561 22.4937 15.2206C23.4582 16.1851 24 17.4932 24 18.8571C24 20.2211 23.4582 21.5292 22.4937 22.4937C21.5292 23.4582 20.2211 24 18.8571 24ZM5.14286 24C3.77889 24 2.47078 23.4582 1.50631 22.4937C0.541835 21.5292 0 20.2211 0 18.8571C0 17.4932 0.541835 16.1851 1.50631 15.2206C2.47078 14.2561 3.77889 13.7143 5.14286 13.7143C6.50683 13.7143 7.81493 14.2561 8.77941 15.2206C9.74388 16.1851 10.2857 17.4932 10.2857 18.8571C10.2857 20.2211 9.74388 21.5292 8.77941 22.4937C7.81493 23.4582 6.50683 24 5.14286 24ZM18.8571 10.2857C17.4932 10.2857 16.1851 9.74388 15.2206 8.77941C14.2561 7.81493 13.7143 6.50683 13.7143 5.14286C13.7143 3.77889 14.2561 2.47078 15.2206 1.50631C16.1851 0.541835 17.4932 0 18.8571 0C20.2211 0 21.5292 0.541835 22.4937 1.50631C23.4582 2.47078 24 3.77889 24 5.14286C24 6.50683 23.4582 7.81493 22.4937 8.77941C21.5292 9.74388 20.2211 10.2857 18.8571 10.2857ZM5.14286 10.2857C3.77889 10.2857 2.47078 9.74388 1.50631 8.77941C0.541835 7.81493 0 6.50683 0 5.14286C0 3.77889 0.541835 2.47078 1.50631 1.50631C2.47078 0.541835 3.77889 0 5.14286 0C6.50683 0 7.81493 0.541835 8.77941 1.50631C9.74388 2.47078 10.2857 3.77889 10.2857 5.14286C10.2857 6.50683 9.74388 7.81493 8.77941 8.77941C7.81493 9.74388 6.50683 10.2857 5.14286 10.2857Z" fill="#303030"/>
</svg>
