<svg width="421" height="280" viewBox="0 0 421 280" fill="none" xmlns="http://www.w3.org/2000/svg">
<path opacity="0.84" d="M25.2618 153.426C24.3518 153.686 23.5118 154.076 22.7818 154.606C20.1018 156.566 20.2718 160.106 22.0818 162.606C24.1518 165.456 27.8218 166.236 31.1418 165.566C33.9818 164.986 36.6218 163.476 38.5618 161.326C39.7018 160.056 40.6318 158.196 39.8218 156.686C39.3618 155.846 38.4718 155.346 37.5918 154.946C34.2918 153.466 29.1518 152.296 25.2618 153.426Z" fill="#DBE5FF"/>
<path d="M108.482 202.335C106.372 204.285 103.072 204.155 101.122 202.045L47.4519 143.925C45.5019 141.815 45.6319 138.515 47.7419 136.565C49.8519 134.615 53.1519 134.745 55.1019 136.855L108.772 194.975C110.722 197.095 110.592 200.385 108.482 202.335Z" fill="#26A69A"/>
<path d="M68.4857 153.057C81.7622 137.748 80.1146 114.574 64.8057 101.298C49.4967 88.0214 26.3236 89.669 13.0471 104.978C-0.229432 120.287 1.41817 143.46 16.7271 156.737C32.0361 170.013 55.2092 168.365 68.4857 153.057Z" fill="#51B8AE"/>
<path d="M43.0439 157.878C58.9829 156.618 70.8828 142.675 69.6229 126.736C68.363 110.797 54.4204 98.8973 38.4813 100.157C22.5423 101.417 10.6424 115.36 11.9024 131.299C13.1623 147.238 27.1048 159.138 43.0439 157.878Z" fill="white"/>
<path d="M18.8015 132.185C15.9815 129.135 13.9515 125.645 12.6915 121.955C10.4015 131.115 12.6115 141.205 19.4915 148.665C30.3415 160.415 48.6616 161.135 60.4016 150.295C69.1016 142.265 71.7516 130.135 68.1416 119.615C66.8216 124.895 64.0015 129.855 59.7115 133.825C47.9615 144.655 29.6515 143.935 18.8015 132.185Z" fill="#DBE5FF"/>
<path d="M90.9727 224.665V74.515C90.9727 70.135 94.5227 66.585 98.9027 66.585H309.343C313.723 66.585 317.273 70.135 317.273 74.515V224.665C317.273 229.045 313.723 232.595 309.343 232.595H98.9027C94.5227 232.595 90.9727 229.045 90.9727 224.665Z" fill="#26A69A"/>
<path d="M305.522 225.605H102.732C99.1522 225.605 96.2422 222.705 96.2422 219.115V80.0652C96.2422 76.4852 99.1422 73.5752 102.732 73.5752H305.522C309.102 73.5752 312.012 76.4852 312.012 80.0652V219.115C312.012 222.705 309.102 225.605 305.522 225.605Z" fill="white"/>
<path d="M317.893 212.055H90.3534L51.7734 270.265C51.7734 278.385 58.3634 279.415 66.4834 279.415H341.753C349.873 279.415 356.463 278.395 356.463 270.265L317.893 212.055Z" fill="#51B8AE"/>
<path d="M317.891 212.055H90.3513L51.7812 270.265H356.471L317.891 212.055Z" fill="#9BD6D1"/>
<path d="M85.7812 241.165C87.0712 239.175 99.4912 217.375 99.4912 217.375L310.421 216.275L319.421 241.165H85.7812Z" fill="#51B8AE"/>
<path d="M151.125 263.235C151.675 261.805 159.585 246.145 159.585 246.145L244.965 245.385L250.975 263.235H151.125Z" fill="#51B8AE"/>
<path d="M270.271 171.515C270.101 171.865 270.271 194.995 270.271 194.995L278.411 186.415L287.071 194.995L286.721 171.515H270.271Z" fill="#26A69A"/>
<path d="M290.069 175.619C296.38 169.308 296.38 159.076 290.069 152.766C283.758 146.455 273.527 146.455 267.216 152.766C260.905 159.076 260.905 169.308 267.216 175.619C273.527 181.93 283.758 181.93 290.069 175.619Z" fill="#E09F26"/>
<path d="M279.861 152.795L280.691 151.295C281.401 150.025 283.331 150.545 283.311 151.995L283.281 153.705C283.261 154.805 284.451 155.485 285.391 154.925L286.861 154.045C288.111 153.295 289.521 154.715 288.781 155.955L287.901 157.425C287.341 158.365 288.031 159.555 289.121 159.535L290.831 159.505C292.281 159.485 292.801 161.415 291.531 162.125L290.031 162.955C289.071 163.485 289.071 164.865 290.031 165.395L291.531 166.225C292.801 166.935 292.281 168.865 290.831 168.845L289.121 168.815C288.021 168.795 287.341 169.985 287.901 170.925L288.781 172.395C289.531 173.645 288.111 175.055 286.861 174.305L285.391 173.425C284.451 172.865 283.261 173.555 283.281 174.645L283.311 176.355C283.331 177.805 281.401 178.325 280.691 177.055L279.861 175.555C279.331 174.595 277.951 174.595 277.421 175.555L276.591 177.055C275.881 178.325 273.951 177.805 273.971 176.355L274.001 174.645C274.021 173.545 272.831 172.865 271.891 173.425L270.421 174.305C269.171 175.055 267.761 173.635 268.501 172.395L269.381 170.925C269.941 169.985 269.251 168.795 268.161 168.815L266.451 168.845C265.001 168.865 264.481 166.935 265.751 166.225L267.251 165.395C268.211 164.865 268.211 163.485 267.251 162.955L265.751 162.125C264.481 161.415 265.001 159.485 266.451 159.505L268.161 159.535C269.261 159.555 269.941 158.365 269.381 157.425L268.501 155.955C267.751 154.705 269.171 153.295 270.421 154.035L271.891 154.915C272.831 155.475 274.021 154.785 274.001 153.695L273.971 151.985C273.951 150.535 275.881 150.015 276.591 151.285L277.421 152.785C277.951 153.755 279.331 153.755 279.861 152.795Z" fill="#FAE54B"/>
<path d="M123.383 186.665H172.893" stroke="#26A69A" stroke-width="1.5896" stroke-miterlimit="10" stroke-linecap="round" stroke-linejoin="round"/>
<path d="M192.375 186.665H241.895" stroke="#26A69A" stroke-width="1.5896" stroke-miterlimit="10" stroke-linecap="round" stroke-linejoin="round"/>
<path d="M126.742 135.265H267.972" stroke="#26A69A" stroke-width="1.5896" stroke-miterlimit="10" stroke-linecap="round" stroke-linejoin="round"/>
<path d="M126.742 148.035H247.162" stroke="#26A69A" stroke-width="1.5896" stroke-miterlimit="10" stroke-linecap="round" stroke-linejoin="round"/>
<path d="M128.652 159.375H238.642" stroke="#26A69A" stroke-width="1.5896" stroke-miterlimit="10" stroke-linecap="round" stroke-linejoin="round"/>
<path d="M231.727 69.2798C239.823 70.7665 253.385 74.3548 267.426 83.9277C284.772 95.7643 293.752 110.535 297.72 118.212C305.509 117.673 315.951 117.863 327.744 120.77C351.602 126.657 367.214 140.257 374.465 147.547C381.795 134.187 389.115 120.823 396.445 107.463L253.708 29.1958L231.727 69.2798Z" fill="#26A69A"/>
<path d="M420.287 117.345L338.83 32.4172L228.073 6.73531L309.719 83.7491L420.287 117.345Z" fill="#9BD6D1"/>
<path d="M393.467 172.232C390.158 180.999 385.835 189.387 380.639 197.177C379.671 194.607 377.353 192.736 374.824 191.668C372.292 190.61 369.529 190.245 366.812 189.904C371.036 184.119 373.546 177.304 376.632 170.83C379.724 164.368 383.656 157.962 389.725 154.166C399.862 147.828 394.907 168.436 393.467 172.232Z" fill="#E09F26"/>
<path d="M397.52 137.331C398.765 132.87 400.679 128.748 401.043 124.125C401.406 119.503 401.245 114.022 399.137 109.905C397.028 105.789 392.426 102.903 388.949 99.8567C376.947 89.3121 364.525 79.2571 351.71 69.7098C346.979 66.1796 342.135 62.678 338.384 58.1174C337.765 57.3661 337.179 56.2279 337.846 55.51C338.202 55.1266 338.785 55.0628 339.31 55.0543C346.99 54.9108 348.811 58.1148 354.496 63.2916C362.279 70.377 374 80.1576 381.828 87.1943C388.512 93.2161 396.053 98.3691 401.837 105.258C403.818 107.622 405.616 110.245 406.386 113.225C406.964 115.458 406.531 117.824 406.842 120.112C407.618 125.737 398.041 147.737 398.041 147.737C397.357 148.617 396.551 149.522 395.453 149.733C392.022 150.368 393.864 146.798 394.526 145.577C395.921 143.001 396.733 140.143 397.52 137.331Z" fill="#FABA41"/>
<path d="M380.252 194.302C384.361 188.764 387.497 182.503 389.471 175.903" stroke="#FFB52B" stroke-width="1.5896" stroke-miterlimit="10" stroke-linecap="round" stroke-linejoin="round"/>
<path d="M378.275 188.439C382.502 181.923 385.98 174.91 388.618 167.6" stroke="#FFB52B" stroke-width="1.5896" stroke-miterlimit="10" stroke-linecap="round" stroke-linejoin="round"/>
<path d="M374.16 187.707C377.932 181.451 381.317 174.953 384.286 168.276" stroke="#FFB52B" stroke-width="1.5896" stroke-miterlimit="10" stroke-linecap="round" stroke-linejoin="round"/>
<path d="M371.019 187.938C373.566 183.213 376.099 178.494 378.646 173.769C378.757 173.573 378.934 173.334 379.157 173.391" stroke="#FFB52B" stroke-width="1.5896" stroke-miterlimit="10" stroke-linecap="round" stroke-linejoin="round"/>
<path d="M388.454 148.589C386.751 151.699 387.889 155.606 391 157.309C394.11 159.012 398.016 157.873 399.719 154.763C401.422 151.653 400.284 147.746 397.174 146.043C394.064 144.34 390.157 145.479 388.454 148.589Z" fill="#FABA41"/>
</svg>
