<svg width="24" height="24" viewBox="0 0 24 24" fill="none" xmlns="http://www.w3.org/2000/svg">
<path d="M19.4333 16.7366C19.4333 17.006 19.3734 17.2829 19.2462 17.5523C19.119 17.8217 18.9543 18.0761 18.7373 18.3156C18.3706 18.7197 17.9665 19.0116 17.51 19.1987C17.0609 19.3858 16.5745 19.4831 16.0506 19.4831C15.2873 19.4831 14.4716 19.3035 13.6109 18.9368C12.7503 18.5701 11.8897 18.0761 11.0365 17.455C10.1759 16.8264 9.36019 16.1304 8.58188 15.3596C7.81106 14.5812 7.11507 13.7655 6.49392 12.9124C5.88026 12.0592 5.38633 11.2061 5.02711 10.3604C4.66789 9.50727 4.48828 8.69155 4.48828 7.91324C4.48828 7.40435 4.57809 6.9179 4.7577 6.46888C4.93731 6.01237 5.22169 5.59328 5.61832 5.2191C6.09728 4.74762 6.62114 4.51562 7.17494 4.51562C7.38449 4.51562 7.59403 4.56053 7.78112 4.65033C7.9757 4.74014 8.14783 4.87484 8.28253 5.06942L10.0188 7.5166C10.1535 7.70369 10.2508 7.87582 10.3181 8.04046C10.3855 8.19762 10.4229 8.35478 10.4229 8.49697C10.4229 8.67658 10.3705 8.85619 10.2657 9.02831C10.1684 9.20044 10.0262 9.38005 9.84663 9.55966L9.27787 10.1509C9.19555 10.2332 9.15813 10.3305 9.15813 10.4502C9.15813 10.5101 9.16561 10.5625 9.18058 10.6223C9.20303 10.6822 9.22548 10.7271 9.24045 10.772C9.37516 11.019 9.60715 11.3408 9.93644 11.7299C10.2732 12.1191 10.6324 12.5157 11.0216 12.9124C11.4257 13.309 11.8149 13.6757 12.2115 14.0125C12.6006 14.3418 12.9224 14.5663 13.1769 14.701C13.2143 14.7159 13.2592 14.7384 13.3116 14.7609C13.3715 14.7833 13.4313 14.7908 13.4987 14.7908C13.6259 14.7908 13.7232 14.7459 13.8055 14.6636L14.3743 14.1023C14.5614 13.9152 14.741 13.773 14.9131 13.6832C15.0852 13.5784 15.2574 13.526 15.4445 13.526C15.5867 13.526 15.7363 13.556 15.901 13.6233C16.0656 13.6907 16.2377 13.788 16.4248 13.9152L18.9019 15.6739C19.0965 15.8086 19.2312 15.9657 19.3136 16.1528C19.3884 16.3399 19.4333 16.527 19.4333 16.7366Z" stroke="#FD2626" stroke-width="1.12256" stroke-miterlimit="10"/>
</svg>
