<svg width="24" height="24" viewBox="0 0 24 24" fill="none" xmlns="http://www.w3.org/2000/svg">
<path d="M16.0165 12.8718V17.0627C16.0165 20.5551 14.6195 21.9521 11.1271 21.9521H6.93625C3.44384 21.9521 2.04688 20.5551 2.04688 17.0627V12.8718C2.04688 9.37938 3.44384 7.98242 6.93625 7.98242H11.1271C14.6195 7.98242 16.0165 9.37938 16.0165 12.8718Z" stroke="#26A69A" stroke-width="1.49675" stroke-linecap="round" stroke-linejoin="round"/>
<path d="M22.0048 6.88546V11.0764C22.0048 14.5688 20.6078 15.9657 17.1154 15.9657H16.0178V12.8724C16.0178 9.38004 14.6208 7.98308 11.1284 7.98308H8.03516V6.88546C8.03516 3.39306 9.43212 1.99609 12.9245 1.99609H17.1154C20.6078 1.99609 22.0048 3.39306 22.0048 6.88546Z" stroke="#26A69A" stroke-width="1.49675" stroke-linecap="round" stroke-linejoin="round"/>
</svg>
