<svg width="24" height="24" viewBox="0 0 24 24" fill="none" xmlns="http://www.w3.org/2000/svg">
<path d="M12.0155 24L24.0155 12L24.0142 11.9985L12.0154 0L8.7188 3.29663L17.4207 11.9985L17.422 12L8.71875 20.7034L12.0155 24Z" fill="#51B8AE"/>
<path d="M3.3435 24L15.3435 12L15.3422 11.9985L3.3435 0L0.046875 3.29663L8.75025 12L0.046875 20.7034L3.3435 24Z" fill="#51B8AE"/>
<path d="M8.71688 20.7039L12.0136 24.0005L24.0136 12.0005L24.0123 11.999H17.4188L17.4201 12.0005L8.71688 20.7039ZM15.3435 12.0005L15.3422 11.999H8.74875L8.75016 12.0005L0.046875 20.7039L3.3435 24.0005L15.3435 12.0005Z" fill="#23978C"/>
</svg>
