<svg width="39" height="36" viewBox="0 0 39 36" fill="none" xmlns="http://www.w3.org/2000/svg">
<path d="M21.9652 1.85355L25.7859 9.27553C25.9843 9.65683 26.2769 9.98592 26.6384 10.2342C26.9999 10.4824 27.4193 10.6423 27.86 10.6998L36.4157 11.8889C36.9062 11.9698 37.3643 12.1775 37.7404 12.4897C38.1165 12.8019 38.3962 13.2066 38.5494 13.6601C38.7025 14.1136 38.7233 14.5986 38.6094 15.0626C38.4955 15.5265 38.2512 15.9518 37.903 16.2924L31.708 22.068C31.3991 22.3629 31.1685 22.7244 31.0355 23.1223C30.9026 23.5202 30.8712 23.9428 30.9439 24.3547L32.4039 32.5084C32.4761 32.9806 32.4118 33.4627 32.2181 33.9024C32.0244 34.3421 31.7086 34.7227 31.3051 35.0027C30.9016 35.2828 30.4257 35.4517 29.929 35.4911C29.4323 35.5305 28.9339 35.4389 28.4877 35.2263L20.8463 31.3716C20.4583 31.1791 20.0278 31.0787 19.5909 31.0787C19.154 31.0787 18.7235 31.1791 18.3355 31.3716L10.6805 35.2263C10.2348 35.4355 9.73796 35.5243 9.24347 35.4833C8.74897 35.4422 8.27551 35.2728 7.8741 34.9932C7.47268 34.7136 7.15849 34.3345 6.96533 33.8967C6.77217 33.4589 6.70734 32.9789 6.77786 32.5084L8.23793 24.3547C8.30896 23.9417 8.27538 23.5185 8.14003 23.1206C8.00467 22.7226 7.7715 22.3616 7.46013 22.068L1.27876 16.2924C0.930607 15.9518 0.686382 15.5265 0.572461 15.0626C0.45854 14.5986 0.479255 14.1136 0.632426 13.6601C0.785597 13.2066 1.06538 12.8019 1.44146 12.4897C1.81754 12.1775 2.2756 11.9698 2.7661 11.8889L11.3218 10.6998C11.7539 10.6376 12.1641 10.477 12.5179 10.2314C12.8717 9.98586 13.1588 9.66251 13.355 9.28859L17.1757 1.86663C17.4094 1.45433 17.7547 1.10987 18.1754 0.86941C18.596 0.628952 19.0765 0.501347 19.5664 0.500011C20.0563 0.498674 20.5375 0.623655 20.9596 0.861813C21.3817 1.09997 21.729 1.44253 21.9652 1.85355Z" fill="#EDC12F"/>
</svg>
