<svg width="1440" height="1153" viewBox="0 0 1440 1153" fill="none" xmlns="http://www.w3.org/2000/svg">
<path d="M1151.66 1077.8V1077.81L1146.6 1074.89L1144.26 1076.03L1144.07 1073.43L1142.78 1072.69L1138.33 1070.13C1136.68 1069.19 1135.27 1068.38 1133.86 1067.56L1109.29 1053.02C1077.65 1034.28 1044.93 1014.91 1012.64 996.078C1005.11 991.709 1001.87 985.986 1001.82 976.95C1001.6 942.692 1001.18 907.853 1000.78 874.167L1000.34 836.277C1000.31 834.131 1000.44 832.113 1000.58 829.771C1000.65 828.705 1000.72 827.561 1000.78 826.317L996.366 823.787L996.508 823.695C995.264 823.087 994.129 822.51 992.963 821.81L966.895 806.434C950.222 796.597 933.545 786.761 916.863 776.938L913.789 775.127V774.674L907.266 770.831C894.362 763.227 881.463 755.619 868.528 748.07C860.838 743.55 859.75 737.177 859.699 731.531C859.425 702.077 859.091 672.618 858.757 643.155C858.547 624.809 858.341 606.468 858.144 588.122C858.117 586.141 858.318 584.261 858.533 582.271C858.597 581.667 858.666 581.04 858.725 580.386L858.661 579.498L857.664 578.784L856.813 578.496C855.811 578.162 854.869 577.846 853.881 577.297L829.268 562.781C794.435 542.234 759.608 521.688 724.716 501.251C717.562 497.024 716.592 491.017 716.542 486.254C716.263 455.972 715.915 425.694 715.568 395.421C715.357 377.002 715.147 358.588 714.95 340.182C714.941 339.441 714.987 338.732 715.065 338.046L714.753 338.229V337.968C714.237 338.33 713.733 338.654 713.189 338.97L677.909 358.913C647.01 376.366 616.116 393.825 585.282 411.388C582.533 412.953 579.816 413.744 576.98 413.822L576.664 413.831L576.349 413.808C573.691 413.607 571.047 412.747 568.266 411.169C539.106 394.676 509.904 378.27 480.703 361.868L440.976 339.542C439.348 338.599 438.054 337.515 436.805 336.467C436.279 336.024 435.716 335.552 435.085 335.058L434.38 334.505L431.215 335.992L430.964 332.977L430.094 332.725L429.088 332.441L428.288 332.231L427.57 331.819L425.246 330.483C423.306 329.372 421.614 328.397 419.944 327.413C408.614 320.734 397.293 314.041 385.977 307.352C357.695 290.639 328.452 273.355 299.589 256.551C291.932 252.076 288.648 246.39 288.607 237.528C288.433 204.931 288.035 171.762 287.646 139.686C287.472 125.151 287.294 110.612 287.138 96.0767C287.111 94.5028 287.202 92.9427 287.33 91.2454C286.438 91.8722 285.629 92.4166 284.732 92.929L250.243 112.414C219.875 129.561 188.474 147.294 157.676 164.881C154.771 166.541 151.876 167.351 148.829 167.351H148.509L148.148 167.319C145.495 167.049 142.865 166.139 139.873 164.46C110.114 147.656 80.3177 130.916 50.5309 114.175L14.1479 93.7251C12.4967 92.7826 11.0604 91.7395 9.53723 90.6324C8.86487 90.1428 8.15125 89.6258 7.35986 89.0723L-0.00439453 83.9299L7.38745 78.8242C8.14673 78.2981 8.80078 77.8268 9.39539 77.4013C10.6625 76.4909 11.7603 75.6994 13.0502 74.9674C25.9675 67.6565 38.8805 60.3639 51.7933 53.0667C80.7706 36.6972 110.736 19.7696 140.116 2.9975C143.011 1.34591 145.888 0.540701 148.916 0.540701H148.944H149.008L149.31 0.545276L149.653 0.577302C152.292 0.856379 154.922 1.77139 157.923 3.46415C173.191 12.0927 188.487 20.6754 203.779 29.2582L218.508 37.5253L221.691 39.3141V39.3233L264.702 63.4932L274.765 69.148L282.871 73.7047C283.753 74.1942 284.677 74.7249 285.679 75.3014C287.001 76.0792 288.131 76.9438 289.325 77.8634L290.409 78.6869L291.511 79.2725L291.991 78.9431C292.989 78.2569 293.853 77.6392 294.635 77.0811C296.328 75.8733 297.792 74.8302 299.438 73.906L325.904 58.9548C358.372 40.6135 391.946 21.6454 424.894 2.84652C426.12 2.14196 427.19 1.72106 428.265 1.31846L428.48 1.23611L428.699 1.17206C430.332 0.691678 431.984 0.449201 433.603 0.449201C435.661 0.449201 437.688 0.824354 439.805 1.59296L439.979 1.65701L440.148 1.73021L440.542 1.89491C441.246 2.18314 441.946 2.48509 442.696 2.91515C454.658 9.6862 466.651 16.4207 478.645 23.1505L493.927 31.7333L503.414 37.0724L518.142 45.3578C527.995 50.889 537.843 56.4339 547.692 61.9789L568.394 73.6315C570.004 74.5236 571.495 75.5667 573.078 76.6739C573.792 77.1726 574.556 77.7079 575.415 78.2889L576.554 79.0575L577.135 78.6869C578.192 78.0144 579.134 77.3876 580.013 76.8112C581.796 75.6308 583.343 74.6152 585.058 73.6544C596.42 67.2265 607.814 60.794 619.213 54.3615C648.424 37.8776 678.627 20.831 708.185 3.86218C709.699 2.9975 711.268 2.29752 712.979 1.72106C715.074 1.12173 716.812 0.874679 718.587 0.874679C719.575 0.874679 720.581 0.95703 721.574 1.11716L721.757 1.14918L721.935 1.19036C722.955 1.35963 724.007 1.69819 724.908 2.00014C726.322 2.53542 727.73 3.11645 729.295 4.01316C757.462 20.0441 786.22 36.2031 814.036 51.8315C826.907 59.0646 839.779 66.2977 852.642 73.5446C854.618 74.6334 856.626 75.7955 859.924 77.7079L860.326 77.9412L861.479 78.6092L862.567 77.9366C863.601 77.3007 864.539 76.7059 865.431 76.1478C867.206 75.0269 868.779 74.0387 870.389 73.1283L897.61 57.7333L913.789 48.5832L916.959 46.6296C941.298 32.8816 967.256 18.2003 993.471 3.20795C996.933 1.17663 1000.21 0.202148 1003.48 0.202148C1006.83 0.202148 1010.13 1.19493 1013.87 3.3269C1041.95 19.2572 1070.57 35.3384 1098.25 50.889C1112.05 58.6437 1125.86 66.3984 1139.65 74.1668C1141.32 75.1001 1142.62 76.221 1143.99 77.4151C1144.48 77.836 1145 78.2889 1145.59 78.7739L1145.81 78.8745L1147.11 78.1928C1147.51 77.9092 1147.89 77.6393 1148.24 77.3876C1149.51 76.4772 1150.6 75.6857 1151.89 74.9537C1164.85 67.6199 1177.8 60.3044 1190.75 52.9889C1219.69 36.6378 1249.62 19.733 1278.96 2.9792C1281.95 1.26813 1284.84 0.435475 1287.79 0.435475C1291.83 0.435475 1295.2 2.04589 1297.68 3.44585C1326.7 19.8382 1355.76 36.1482 1384.83 52.4582L1422.64 73.6864C1424.31 74.6151 1425.99 75.5942 1428.35 76.9667L1430.33 78.1196L1430.49 78.2111L1434.56 75.7909L1434.78 80.7045L1438.83 83.0652L1435 85.7142L1435.02 86.2083C1435.09 87.8873 1435.17 89.333 1435.24 90.6324C1435.38 93.1624 1435.49 95.1662 1435.48 97.1747L1435.14 133.546C1434.81 167.754 1434.47 203.123 1434.36 237.912C1434.34 246.252 1431.03 251.88 1423.64 256.144C1398.22 270.98 1372.43 286.298 1347.49 301.107L1326.16 313.766L1308.7 324.124L1298.04 330.456L1302.99 333.297C1310.78 337.758 1318.06 341.935 1325.29 346.185C1339.51 354.511 1353.72 362.861 1367.93 371.206C1386.8 382.296 1405.69 393.39 1424.6 404.453C1428.16 406.53 1434.81 410.409 1434.86 420.181C1435.09 450.77 1435.44 481.368 1435.78 511.966C1435.99 530.701 1436.21 549.435 1436.39 568.175C1436.41 569.506 1436.18 570.723 1435.9 571.812L1436.13 571.73L1436.2 573.317L1440 575.513L1436.4 578.071L1436.48 580.148L1436.6 582.609C1436.69 584.549 1436.77 586.136 1436.75 587.729L1436.38 627.742C1436.06 661.917 1435.72 697.26 1435.58 732.007C1435.54 739.643 1432.54 744.643 1425.57 748.724C1396.14 765.986 1366.3 783.691 1337.43 800.811L1302.97 821.248C1301.97 821.838 1300.96 822.369 1299.93 822.89C1300.62 823.224 1301.3 823.581 1301.97 823.988C1313.46 830.75 1324.97 837.549 1336.49 844.352C1365.39 861.417 1395.28 879.062 1424.79 896.201C1432.78 900.849 1436.19 906.769 1436.22 915.992C1436.37 949.642 1436.79 983.881 1437.19 1017C1437.35 1030.21 1437.51 1043.43 1437.66 1056.65C1437.69 1058.58 1437.62 1060.53 1437.53 1063.02L1437.4 1066.6L1437.36 1068.15L1439.99 1070.04L1437.25 1071.8L1437.11 1076.24L1433.24 1074.36L1432.25 1074.99L1429.55 1076.75C1427.65 1077.99 1426.02 1079.05 1424.34 1080.01C1412.77 1086.56 1401.21 1093.08 1389.66 1099.59C1360.61 1115.98 1330.57 1132.93 1301.16 1149.81C1297.44 1151.94 1293.94 1152.97 1290.46 1152.97C1286.87 1152.97 1283.28 1151.89 1279.18 1149.56C1248.44 1132.1 1217.09 1114.54 1186.77 1097.56L1157.34 1081.06L1153.09 1078.61L1151.66 1077.8ZM282.564 80.6862C281.594 80.1235 280.698 79.6157 279.82 79.1261C273.764 75.7223 267.707 72.3139 261.646 68.9101C246.25 60.2541 230.853 51.5981 215.457 42.9513V42.9422C195.253 31.5961 175.03 20.2728 154.863 8.87642C152.795 7.70979 150.915 6.95948 149.003 6.75818C148.976 6.75818 148.948 6.75818 148.921 6.75818C147.142 6.75818 145.307 7.19738 143.212 8.39604C100.952 32.5294 58.5035 56.3928 16.1469 80.3705C14.61 81.2444 13.2423 82.3515 10.9415 83.9391C13.4664 85.7005 15.2549 87.1507 17.2173 88.2716C59.1166 111.838 101.071 135.367 142.938 159.006C145.005 160.168 146.881 160.905 148.793 161.102C148.807 161.102 148.825 161.102 148.839 161.102C150.632 161.102 152.48 160.658 154.588 159.45C196.863 135.312 239.288 111.453 281.649 87.4939C283.099 86.6658 284.444 85.6044 286.946 83.8567C285.117 82.4979 283.882 81.464 282.564 80.6862ZM1149.82 1066.39C1152.71 1064.99 1154.87 1064.12 1156.86 1062.96C1198.27 1038.43 1239.65 1013.81 1281.13 989.399C1285.56 986.791 1287.41 983.909 1287.43 978.638C1287.68 930.207 1288.23 881.757 1288.63 833.307C1288.66 831.281 1288.37 829.245 1288.16 826.285C1285.56 827.506 1283.65 828.243 1281.93 829.245C1240.27 853.941 1198.64 878.728 1156.9 903.287C1152.45 905.9 1150.58 908.764 1150.57 914.034C1150.31 962.479 1149.78 1010.9 1149.34 1059.35C1149.32 1061.39 1149.61 1063.41 1149.82 1066.39ZM1285.99 492.682C1286.48 439.63 1286.95 387.301 1287.43 335.315C1286.58 334.825 1286.33 334.637 1286.07 334.564C1285.87 334.482 1285.62 334.395 1285.42 334.395C1285.35 334.395 1285.29 334.404 1285.24 334.432C1283.6 335.218 1281.92 335.95 1280.35 336.843C1236.91 362.591 1193.47 388.358 1149.78 414.261C1149.3 467.117 1148.83 519.634 1148.33 574.26C1195.11 546.553 1240.25 519.803 1285.99 492.682ZM1148.48 589.755C1148.99 636.608 1149.67 683.466 1149.94 730.342C1149.98 736.939 1152.04 740.681 1157.77 744.007C1198.27 767.619 1238.57 791.565 1278.94 815.36C1281.46 816.86 1284.03 818.31 1287.67 820.424C1287.93 816.458 1288.26 813.854 1288.23 811.247C1287.72 763.767 1287.08 716.305 1286.71 668.826C1286.67 663.464 1285.48 659.936 1280.47 656.999C1238.96 632.765 1197.61 608.211 1156.19 583.771C1154.18 582.595 1152 581.68 1148.88 580.111C1148.71 583.913 1148.44 586.832 1148.48 589.755ZM1283.54 500.839C1241.01 525.151 1198.3 549.161 1155.68 573.285C1154.41 574.013 1153.27 574.969 1151.25 576.405C1153.55 578.098 1155.25 579.626 1157.19 580.733C1199.09 604.336 1241.03 627.884 1282.88 651.532C1285.33 652.914 1287.53 653.815 1289.87 653.815C1291.61 653.815 1293.42 653.316 1295.47 652.15C1338.01 627.82 1380.69 603.824 1423.32 579.704C1424.59 578.958 1425.73 577.984 1428.47 576.049C1424.92 573.99 1422.6 572.635 1420.29 571.322C1378.88 548.081 1337.45 524.895 1296.1 501.562C1293.62 500.162 1291.4 499.215 1289.03 499.215C1287.33 499.215 1285.55 499.696 1283.54 500.839ZM1147.85 900.332C1149.62 900.332 1151.48 899.828 1153.6 898.625C1195.89 874.442 1238.34 850.546 1280.73 826.559C1282.29 825.69 1283.71 824.565 1285.97 823.023C1283.67 821.261 1281.96 819.669 1279.98 818.526C1238.34 795.078 1196.57 771.759 1155.03 748.097C1152.36 746.578 1150.03 745.856 1147.72 745.856C1145.24 745.856 1142.79 746.697 1139.99 748.29C1098.77 771.846 1057.34 795.147 1016.01 818.512C1013.93 819.692 1011.99 821.133 1008.37 823.471C1012.41 825.791 1014.97 827.328 1017.56 828.774C1058.46 851.759 1099.38 874.68 1140.21 897.756C1142.89 899.27 1145.27 900.332 1147.85 900.332ZM1008.06 976.913C1008.1 983.41 1009.97 987.312 1015.78 990.684C1056.31 1014.31 1096.63 1038.28 1137.02 1062.17C1139.52 1063.64 1142.06 1065.06 1145.9 1067.28C1146.11 1062.72 1146.39 1059.8 1146.38 1056.89C1145.86 1009.98 1145.21 963.101 1144.9 916.198C1144.87 909.72 1143.08 905.758 1137.23 902.345C1096.4 878.632 1055.81 854.531 1015.12 830.581C1012.86 829.249 1010.44 828.188 1007.02 826.449C1006.84 830.407 1006.55 833.312 1006.58 836.213C1007.11 883.116 1007.76 930.006 1008.06 976.913ZM1006.73 818.068C1007.26 818.439 1007.5 818.612 1007.77 818.75C1007.98 818.827 1008.25 818.965 1008.45 818.965C1008.5 818.965 1008.55 818.956 1008.58 818.937C1010.25 818.178 1011.93 817.478 1013.5 816.558C1056.97 790.805 1100.44 765.016 1144.11 739.121C1144.58 686.362 1145.08 634.028 1145.55 579.814C1141.57 581.831 1139.13 582.897 1136.87 584.252C1095.99 608.44 1055.15 632.761 1014.21 656.876C1009.86 659.424 1007.73 662.142 1007.73 667.517C1007.49 715.981 1006.96 764.417 1006.52 812.852C1006.5 814.664 1006.66 816.49 1006.73 818.068ZM1145.48 566.734C1144.96 518.032 1144.36 469.372 1143.88 420.676C1143.83 416.375 1142.86 413.337 1138.83 410.94C1095.75 385.741 1052.79 360.313 1009.79 334.981C1009.02 334.537 1008.1 334.331 1006.07 333.562C1005.88 336.939 1005.61 339.295 1005.64 341.651C1006.17 389.414 1006.81 437.201 1007.17 484.964C1007.22 490.523 1008.96 493.776 1013.77 496.585C1055.56 521.006 1097.2 545.656 1138.9 570.197C1140.46 571.117 1142.12 571.835 1144.45 572.965C1144.85 570.618 1145.49 568.674 1145.48 566.734ZM1011.11 652.049C1053.11 628.067 1095.3 604.345 1137.4 580.532C1138.94 579.663 1140.37 578.569 1142.72 577.018C1140.41 575.284 1138.77 573.734 1136.85 572.654C1094.67 548.928 1052.45 525.293 1010.33 501.489C1008.09 500.231 1006.11 499.522 1004.08 499.522C1002.34 499.522 1000.56 500.043 998.557 501.183C972.42 516.065 946.22 530.847 920.033 545.652V545.94C904.188 554.907 888.334 563.883 872.493 572.841C870.714 573.83 869.095 575.083 866.035 577.11C866.053 577.124 866.071 577.133 866.094 577.146C869.968 579.388 872.31 580.752 874.652 582.092C889.784 590.588 904.91 599.102 920.033 607.616V608.051C945.95 622.613 971.885 637.153 997.748 651.788C1000.25 653.206 1002.45 653.989 1004.72 653.989C1006.73 653.993 1008.78 653.38 1011.11 652.049ZM865.943 731.481C865.989 736.39 866.899 739.876 871.675 742.685C887.826 752.114 903.922 761.626 920.028 771.114V771.563C945.415 786.514 970.792 801.493 996.169 816.458C997.962 817.533 999.884 818.37 1002.51 819.683C1002.93 817.24 1003.63 815.286 1003.6 813.356C1003.09 764.627 1002.43 715.907 1002.07 667.188C1002.03 661.327 999.348 658.573 994.788 655.901C957.696 634.27 920.7 612.47 883.65 590.716C878.257 587.546 872.745 584.407 866.172 580.628C865.797 580.459 865.435 580.29 865.019 580.097C864.758 583.176 864.351 585.651 864.383 588.063C864.891 635.872 865.499 683.685 865.943 731.481ZM864.457 573.171C867.384 571.656 869.406 570.677 871.277 569.593C887.222 560.146 903.172 550.689 919.113 541.232V541.507C943.887 526.812 968.67 512.135 993.539 497.596C999.184 494.293 1001.55 490.793 1001.57 484.054C1001.68 437.164 1002.25 390.279 1002.65 343.389C1002.67 340.443 1002.45 337.492 1002.31 333.498C999.289 334.898 997.112 335.731 995.149 336.893C970.106 351.716 945.067 366.548 920.028 381.381V381.605C903.936 391.139 887.853 400.692 871.734 410.19C867.448 412.729 865.202 415.387 865.179 420.817C864.96 469.226 864.411 517.644 864.004 566.025C863.981 567.992 864.223 569.991 864.457 573.171ZM722.79 486.19C722.836 490.495 723.847 493.487 727.877 495.866C770.942 521.093 813.926 546.489 856.927 571.849C857.568 572.205 858.387 572.43 859.75 572.901C859.924 569.671 860.134 567.356 860.093 565.078C859.567 517.305 858.94 469.528 858.547 421.755C858.483 416.714 857.325 413.415 852.623 410.665C810.587 386.102 768.697 361.25 726.751 336.522C725.416 335.745 723.906 335.058 722.077 334.18C721.702 336.371 721.167 338.252 721.185 340.109C721.715 388.788 722.337 437.493 722.79 486.19ZM293.954 87.5945C293.926 87.7043 293.894 87.7958 293.862 87.9056C293.611 91.25 293.345 93.6519 293.382 95.9989C293.89 143.168 294.603 190.332 294.85 237.487C294.882 244.111 297.037 247.822 302.732 251.148C342.975 274.572 383.003 298.371 423.114 322.024C425.397 323.369 427.734 324.696 430.689 326.398C430.996 326.48 431.407 326.599 431.851 326.727C432.016 322.82 432.244 320.057 432.231 317.33C431.709 270.473 431.005 223.615 430.771 176.744C430.716 170.105 428.507 166.441 422.831 163.128C382.606 139.672 342.573 115.868 302.48 92.2062C300.971 91.314 299.447 90.4311 297.769 89.4657C296.694 88.8938 295.523 88.3677 293.954 87.5945ZM565.348 79.0484C548.597 69.6283 531.856 60.1855 515.101 50.7792C507.023 46.2453 498.954 41.6932 490.88 37.1547C473.791 27.5471 456.689 17.9807 439.632 8.32284C438.95 7.93854 438.328 7.71436 437.692 7.43986C436.288 6.92745 434.952 6.67125 433.617 6.67125C432.578 6.67125 431.54 6.8268 430.47 7.14248C429.664 7.44443 428.869 7.75096 428 8.24507C386.233 32.0764 344.352 55.6699 302.507 79.3229C300.477 80.4666 298.619 81.9398 295.536 84.0626C299.118 86.1076 301.643 87.5945 304.163 89.0357C345.02 112.016 385.931 134.882 426.664 158.078C429.44 159.656 431.897 160.379 434.344 160.402C436.622 160.264 438.927 159.551 441.53 158.068C482.441 134.594 523.581 111.517 564.607 88.2854C566.908 87.0181 569.016 85.3939 571.939 83.445C569.218 81.6012 567.37 80.1647 565.348 79.0484ZM574.011 87.8462C573.284 88.0383 572.575 88.2122 571.925 88.3677C570.402 89.0723 569.003 89.7265 567.763 90.4768C526.38 114.958 485.044 139.553 443.579 163.947C439.106 166.573 437.367 169.543 437.363 174.763C437.098 222.851 436.567 270.967 436.151 319.069C436.137 321.278 436.453 323.516 436.7 326.512C439.147 325.359 441.137 324.522 442.888 323.483C484.289 298.952 525.626 274.37 567.077 249.986C571.559 247.359 573.293 244.377 573.316 239.188C573.558 191.068 574.071 142.975 574.496 94.8734C574.496 92.8101 574.24 90.6278 574.011 87.8462ZM576.733 253.27C574.771 253.293 572.772 253.829 570.498 255.142C528.768 278.987 486.864 302.548 445.025 326.242C443.218 327.235 441.525 328.475 438.95 330.145C440.999 331.755 442.404 333.146 444.046 334.098C486.489 357.975 528.96 381.756 571.354 405.738C573.302 406.841 575.059 407.449 576.824 407.582C578.531 407.536 580.264 407.069 582.208 405.962C624.771 381.719 667.443 357.686 710.083 333.567C711.35 332.835 712.503 331.86 715.28 329.898C711.748 327.857 709.429 326.508 707.096 325.19C665.691 301.944 624.268 278.763 582.94 255.389C581.815 254.753 580.754 254.263 579.706 253.893C579.422 253.792 579.139 253.769 578.86 253.691C578.146 253.49 577.437 253.325 576.733 253.27ZM578.819 87.3749C578.64 90.55 578.38 92.8421 578.421 95.125C578.933 142.902 579.583 190.675 579.93 238.434C579.985 243.983 581.723 247.263 586.531 250.086C628.325 274.467 669.963 299.126 711.666 323.689C713.015 324.476 714.529 325.158 716.396 326.073C716.803 323.877 717.352 322.029 717.324 320.212C716.807 271.52 716.208 222.837 715.742 174.131C715.687 169.863 714.703 166.825 710.669 164.441C667.617 139.196 624.647 113.814 581.655 88.4592C581.01 88.1298 580.223 87.8828 578.819 87.3749ZM849.595 78.9477C808.46 55.7751 767.237 32.7444 726.198 9.38883C725.05 8.73002 723.989 8.28167 722.927 7.87906C722.186 7.63201 721.45 7.39411 720.737 7.27058C720.686 7.26143 720.64 7.25686 720.595 7.24771C719.922 7.13791 719.264 7.08758 718.6 7.08758C717.402 7.08758 716.208 7.26143 714.982 7.60914C713.802 8.00716 712.599 8.50584 711.305 9.247C670.38 32.7352 629.194 55.83 588.113 79.0758C585.785 80.3751 583.622 81.9306 580.507 83.9208C583.054 85.7828 584.77 87.3475 586.727 88.4638C628.682 112.03 670.714 135.523 712.594 159.194C714.753 160.42 716.684 161.051 718.628 161.152C720.412 161.079 722.223 160.576 724.268 159.413C766.597 135.294 809.064 111.38 851.443 87.3887C852.966 86.5423 854.325 85.3573 857.211 83.3123C853.726 81.2856 851.672 80.0915 849.595 78.9477ZM791.078 127.123C768.276 140.519 745.56 154.093 722.543 167.754C722.077 220.417 721.592 272.751 721.098 327.212C767.809 299.515 812.526 273.025 857.81 246.175C858.304 193.813 858.789 141.406 859.297 87.137C835.388 100.245 813.4 114.011 791.078 127.123ZM861.987 252.955C861.918 252.955 861.849 252.955 861.781 252.955C859.828 252.955 857.829 253.49 855.564 254.78C813.83 278.644 771.921 302.21 730.081 325.89C728.384 326.842 726.719 328.004 724.382 329.518C724.277 329.614 724.144 329.733 724.025 329.838C726.088 331.43 727.479 332.812 729.144 333.713C771.555 357.659 814.026 381.458 856.401 405.45C857.307 405.967 858.158 406.328 859.004 406.635C859.905 406.841 860.797 406.946 861.694 406.946C862.943 406.946 864.2 406.749 865.509 406.374C866.09 406.132 866.648 405.958 867.26 405.61C884.519 395.783 901.818 386.024 919.113 376.243V376.476C943.722 362.531 968.363 348.632 992.99 334.692C995.076 333.53 997.034 332.13 999.81 330.332C998.141 328.9 997.034 327.601 995.639 326.814C953.104 302.868 910.518 279.014 867.983 255.013C865.842 253.81 863.921 253.138 861.987 252.955ZM863.505 87.439C863.331 91.1448 863.061 93.9676 863.093 96.74C863.615 143.666 864.269 190.537 864.576 237.445C864.612 243.928 866.469 247.854 872.269 251.244C888.228 260.545 904.124 269.956 920.033 279.348V279.81C945.067 294.578 970.083 309.37 995.113 324.138C996.869 325.176 998.777 325.94 1001.87 327.391C1002.08 323.804 1002.34 321.695 1002.32 319.595C1001.79 271.479 1001.12 223.363 1000.77 175.229C1000.73 169.671 998.873 166.441 994.065 163.632C969.045 149.028 944.079 134.329 919.122 119.611V119.634C902.994 110.136 886.865 100.633 870.732 91.1493C868.674 89.9369 866.451 88.9076 863.505 87.439ZM1136.59 79.6019C1094.66 55.9902 1052.66 32.5065 1010.79 8.74832C1008.15 7.24771 1005.84 6.4425 1003.49 6.4425C1001.32 6.4425 999.106 7.12876 996.577 8.58819C971.112 23.1505 945.579 37.5985 920.033 52.0282V52.1883C904.512 60.9678 888.992 69.7519 873.463 78.5268C871.121 79.849 868.857 81.3633 865.852 83.2162C867.508 84.7489 868.569 86.1488 869.95 86.922C886.646 96.3329 903.341 105.73 920.033 115.132V115.63C944.921 129.575 969.799 143.529 994.582 157.67C997.857 159.542 1000.71 160.562 1003.62 160.562C1006.24 160.562 1008.91 159.734 1012 157.959C1052.09 134.809 1092.47 112.213 1132.75 89.4062C1135.61 87.7867 1138.43 86.1168 1142.1 83.9665C1139.73 82.0725 1138.32 80.5718 1136.59 79.6019ZM1144.17 86.7756C1140.61 88.6331 1137.95 89.85 1135.44 91.3506C1095.07 115.241 1054.81 139.311 1014.29 163C1008.61 166.322 1006.38 169.89 1006.37 176.579C1006.24 223.496 1005.67 270.422 1005.26 317.33C1005.24 320.276 1005.5 323.232 1005.65 327.29C1009.21 325.428 1011.87 324.188 1014.37 322.719C1054.73 298.819 1095.02 274.755 1135.53 251.079C1141.21 247.748 1143.4 244.152 1143.42 237.473C1143.55 190.565 1144.12 143.657 1144.52 96.7034C1144.56 93.7891 1144.33 90.8565 1144.17 86.7756ZM1146.29 253.421C1143.7 253.421 1141.1 254.259 1138.07 255.988C1097.44 279.357 1056.51 302.283 1015.7 325.387C1013.34 326.718 1011.09 328.214 1008.09 330.076C1009.68 331.581 1010.66 333.077 1012.04 333.846C1055.03 358.057 1098.1 382.163 1141.07 406.415C1142.94 407.454 1144.64 408.012 1146.36 408.012C1147.93 408.012 1149.5 407.545 1151.23 406.557C1194.66 381.875 1238.12 357.298 1281.56 332.666C1282.35 332.236 1282.97 331.536 1284.79 330.053C1281.76 328.072 1279.61 326.521 1277.3 325.227C1236.43 302.219 1195.47 279.348 1154.74 256.089C1151.65 254.332 1148.98 253.421 1146.29 253.421ZM1148.2 86.9128C1147.92 90.2069 1147.51 92.746 1147.53 95.2806C1148.03 143.09 1148.64 190.908 1149.08 238.713C1149.12 243.645 1150.03 247.09 1154.82 249.899C1196.92 274.457 1238.84 299.323 1280.82 324.074C1282.35 324.966 1284 325.647 1287.09 327.153C1287.2 322.619 1287.36 319.645 1287.33 316.68C1286.8 270.07 1286.12 223.487 1285.88 176.881C1285.83 170 1283.89 165.96 1277.71 162.351C1236.61 138.533 1195.78 114.235 1154.84 90.1108C1153.04 89.054 1151.11 88.2899 1148.2 86.9128ZM1419.58 79.1261C1377.92 55.7202 1336.21 32.383 1294.62 8.881C1292.2 7.51763 1290.05 6.67583 1287.79 6.67583C1286 6.67583 1284.15 7.19738 1282.05 8.40062C1239.79 32.5339 1197.34 56.3973 1154.98 80.3705C1153.45 81.2444 1152.08 82.3515 1149.78 83.9391C1152.3 85.7005 1154.09 87.1507 1156.05 88.2716C1197.95 111.838 1239.91 135.367 1281.78 159.006C1284.19 160.361 1286.33 161.184 1288.58 161.184C1290.37 161.184 1292.23 160.658 1294.35 159.45C1336.62 135.312 1379.04 111.453 1421.41 87.4939C1422.96 86.6063 1424.33 85.4854 1427.19 83.5136C1423.76 81.5235 1421.69 80.2973 1419.58 79.1261ZM1322.97 308.4C1355.46 289.13 1387.91 269.768 1420.52 250.74C1425.86 247.657 1428.1 244.244 1428.11 237.894C1428.27 190.972 1428.82 144.064 1429.23 97.1564C1429.25 94.2146 1428.99 91.282 1428.78 86.4828C1382.33 114.047 1337.18 140.825 1291.66 167.786C1291.19 220.6 1290.71 273.158 1290.22 327.834C1302.6 320.491 1312.78 314.439 1322.97 308.4ZM1428.62 420.214C1428.59 414.55 1425.57 412.244 1421.45 409.837C1388.31 390.448 1355.24 370.968 1322.12 351.561C1312.18 345.723 1302.15 340.027 1290.84 333.526C1290.61 337.085 1290.3 339.46 1290.32 341.793C1290.85 389.611 1291.49 437.425 1291.88 485.243C1291.91 490.637 1293.28 494.096 1298.24 497.006C1339.79 521.308 1381.18 545.872 1422.62 570.33C1424.41 571.409 1426.36 572.247 1428.89 573.518C1429.4 571.473 1430.17 569.868 1430.15 568.243C1429.67 518.883 1428.99 469.555 1428.62 420.214ZM1422.42 743.339C1427.14 740.576 1429.31 737.671 1429.34 731.979C1429.54 683.878 1430.1 635.776 1430.51 587.674C1430.53 585.56 1430.38 583.455 1430.25 580.404C1427.93 581.218 1425.95 581.552 1424.33 582.518C1382.14 607.465 1340.01 632.509 1297.82 657.429C1294.39 659.461 1292.48 661.657 1292.45 665.962C1292.16 715.907 1291.67 765.83 1291.27 815.762C1291.26 816.636 1291.51 817.519 1291.88 819.912C1295.11 818.26 1297.55 817.208 1299.79 815.881C1340.65 791.684 1381.45 767.367 1422.42 743.339ZM1431.17 1066.41C1431.3 1062.11 1431.46 1059.42 1431.42 1056.72C1430.91 1009.81 1430.2 962.914 1429.98 916.015C1429.96 909.001 1427.69 905.117 1421.65 901.604C1380.56 877.736 1339.7 853.456 1298.76 829.345C1297.01 828.293 1295.03 827.589 1292.28 826.308C1291.99 829.332 1291.58 831.61 1291.6 833.857C1292.13 881.986 1292.74 930.097 1293.16 978.208C1293.22 983.245 1294.4 986.562 1299.08 989.307C1340.91 1013.72 1382.58 1038.42 1424.3 1063.02C1426.05 1064.06 1427.96 1064.85 1431.17 1066.41ZM1160.39 1075.62C1201.02 1098.42 1241.73 1121.12 1282.26 1144.14C1285.22 1145.82 1287.81 1146.74 1290.46 1146.74C1292.84 1146.74 1295.26 1146 1298.05 1144.41C1338.99 1120.91 1380.17 1097.84 1421.24 1074.61C1423.57 1073.28 1425.78 1071.74 1428.88 1069.75C1426.36 1067.94 1424.65 1066.37 1422.69 1065.25C1381.03 1041.78 1339.29 1018.44 1297.69 994.811C1295.04 993.306 1292.72 992.491 1290.35 992.491C1288.19 992.491 1286 993.164 1283.49 994.605C1242.01 1018.35 1200.32 1041.78 1158.71 1065.34C1156.64 1066.49 1154.74 1067.91 1151.12 1070.28C1155.24 1072.65 1157.8 1074.14 1160.39 1075.62Z" fill="url(#paint0_linear_322_14983)"/>
<defs>
<linearGradient id="paint0_linear_322_14983" x1="601.68" y1="685.589" x2="1210.02" y2="136.627" gradientUnits="userSpaceOnUse">
<stop/>
<stop offset="1" stop-color="white"/>
</linearGradient>
</defs>
</svg>
