<svg width="21" height="20" viewBox="0 0 21 20" fill="none" xmlns="http://www.w3.org/2000/svg">
<path d="M10.4998 6.33238C10.4132 6.33242 10.3275 6.31454 10.2481 6.27988L5.03977 3.98822C4.92909 3.93894 4.83506 3.85864 4.76908 3.75704C4.70309 3.65543 4.66797 3.53687 4.66797 3.41572C4.66797 3.29456 4.70309 3.176 4.76908 3.0744C4.83506 2.97279 4.92909 2.89249 5.03977 2.84322L10.2481 0.551549C10.3275 0.516905 10.4132 0.499023 10.4998 0.499023C10.5864 0.499023 10.6721 0.516905 10.7514 0.551549L15.9598 2.84322C16.0705 2.89249 16.1645 2.97279 16.2305 3.0744C16.2965 3.176 16.3316 3.29456 16.3316 3.41572C16.3316 3.53687 16.2965 3.65543 16.2305 3.75704C16.1645 3.85864 16.0705 3.93894 15.9598 3.98822L10.7514 6.27988C10.6721 6.31454 10.5864 6.33242 10.4998 6.33238Z" fill="#26A69A"/>
<path d="M11.2537 7.42452C11.0164 7.52922 10.7599 7.58344 10.5005 7.58373C10.2412 7.58402 9.98456 7.53037 9.74703 7.42618L6.33203 5.92285V6.49618C6.33203 7.00452 6.59786 7.48285 7.02536 7.74202C8.2262 8.47118 9.36286 8.83535 10.4987 8.83535C11.6345 8.83535 12.7712 8.47035 13.972 7.74202C14.3995 7.48285 14.6654 7.00535 14.6654 6.49618V5.92285L11.2537 7.42452Z" fill="#26A69A"/>
<path d="M19.0417 3.83496H17.9583C17.825 4.56829 17.3417 5.19329 16.65 5.50163H18.8333V14.6683H2.16667V5.50163H4.35C4.01253 5.35159 3.71689 5.12128 3.48884 4.83078C3.2608 4.54028 3.10728 4.1984 3.04167 3.83496H1.95833C1.15833 3.83496 0.5 4.49329 0.5 5.29329V16.5433C0.5 17.3433 1.15833 18.0016 1.95833 18.0016H8.34167C8.24167 18.4183 7.98333 18.0933 7.29167 18.7933C7.16667 18.91 7.13333 19.085 7.2 19.2433C7.26667 19.4016 7.41667 19.5016 7.58333 19.5016H13.4167C13.5833 19.5016 13.7333 19.4016 13.8 19.2433C13.8667 19.085 13.8333 18.91 13.7083 18.7933C13.0167 18.1016 12.75 18.4183 12.65 18.0016H19.0417C19.8417 18.0016 20.5 17.3433 20.5 16.5433V5.29329C20.5 4.49329 19.8417 3.83496 19.0417 3.83496Z" fill="#26A69A"/>
</svg>
