<svg width="20" height="20" viewBox="0 0 20 20" fill="none" xmlns="http://www.w3.org/2000/svg">
<g clip-path="url(#clip0_648_13576)">
<path d="M1.66797 9.99984C1.66797 14.6023 5.3988 18.3332 10.0013 18.3332C14.6038 18.3332 18.3346 14.6023 18.3346 9.99984C18.3346 5.39734 14.6038 1.6665 10.0013 1.6665C5.3988 1.6665 1.66797 5.39734 1.66797 9.99984Z" stroke="white" stroke-width="1.5" stroke-linecap="round" stroke-linejoin="round"/>
<path d="M10.837 1.70801C10.837 1.70801 13.337 4.99967 13.337 9.99967C13.337 14.9997 10.837 18.2913 10.837 18.2913M9.17031 18.2913C9.17031 18.2913 6.67031 14.9997 6.67031 9.99967C6.67031 4.99967 9.17031 1.70801 9.17031 1.70801M2.19531 12.9163H17.812M2.19531 7.08301H17.812" stroke="white" stroke-width="1.5" stroke-linecap="round" stroke-linejoin="round"/>
</g>
<defs>
<clipPath id="clip0_648_13576">
<rect width="20" height="20" fill="white"/>
</clipPath>
</defs>
</svg>
