<svg width="20" height="21" viewBox="0 0 20 21" fill="none" xmlns="http://www.w3.org/2000/svg">
<path d="M14.168 17.5833H5.83464C3.33464 17.5833 1.66797 16.3333 1.66797 13.4166V7.58329C1.66797 4.66663 3.33464 3.41663 5.83464 3.41663H14.168C16.668 3.41663 18.3346 4.66663 18.3346 7.58329V13.4166C18.3346 16.3333 16.668 17.5833 14.168 17.5833Z" stroke="#FF2626" stroke-width="1.25" stroke-miterlimit="10" stroke-linecap="round" stroke-linejoin="round"/>
<path d="M10 13C11.3807 13 12.5 11.8807 12.5 10.5C12.5 9.11929 11.3807 8 10 8C8.61929 8 7.5 9.11929 7.5 10.5C7.5 11.8807 8.61929 13 10 13Z" stroke="#FF2626" stroke-width="1.25" stroke-miterlimit="10" stroke-linecap="round" stroke-linejoin="round"/>
<path d="M4.58203 8.41663V12.5833" stroke="#FF2626" stroke-width="1.25" stroke-miterlimit="10" stroke-linecap="round" stroke-linejoin="round"/>
<path d="M15.418 8.41663V12.5833" stroke="#FF2626" stroke-width="1.25" stroke-miterlimit="10" stroke-linecap="round" stroke-linejoin="round"/>
</svg>
