<svg width="25" height="24" viewBox="0 0 25 24" fill="none" xmlns="http://www.w3.org/2000/svg">
<path d="M17.7833 22.75C16.6533 22.75 15.4633 22.48 14.2333 21.96C13.0333 21.45 11.8233 20.75 10.6433 19.9C9.47331 19.04 8.34331 18.08 7.27331 17.03C6.21331 15.96 5.25331 14.83 4.40331 13.67C3.54331 12.47 2.85331 11.27 2.36331 10.11C1.84331 8.87 1.58331 7.67 1.58331 6.54C1.58331 5.76 1.72331 5.02 1.99331 4.33C2.27331 3.62 2.72331 2.96 3.33331 2.39C4.10331 1.63 4.98331 1.25 5.92331 1.25C6.31331 1.25 6.71331 1.34 7.05331 1.5C7.44331 1.68 7.77331 1.95 8.01331 2.31L10.3333 5.58C10.5433 5.87 10.7033 6.15 10.8133 6.43C10.9433 6.73 11.0133 7.03 11.0133 7.32C11.0133 7.7 10.9033 8.07 10.6933 8.42C10.5433 8.69 10.3133 8.98 10.0233 9.27L9.34331 9.98C9.35331 10.01 9.36331 10.03 9.37331 10.05C9.49331 10.26 9.73331 10.62 10.1933 11.16C10.6833 11.72 11.1433 12.23 11.6033 12.7C12.1933 13.28 12.6833 13.74 13.1433 14.12C13.7133 14.6 14.3333 15 14.3033 14.95L14.2833 15L15.0133 14.28C15.3233 13.97 15.6233 13.74 15.9133 13.59C16.4633 13.25 17.1633 13.19 17.8633 13.48C18.1233 13.59 18.4033 13.74 18.7033 13.95L22.0233 16.31C22.3933 16.56 22.6633 16.88 22.8233 17.26C22.9733 17.64 23.0433 17.99 23.0433 18.34C23.0433 18.82 22.9333 19.3 22.7233 19.75C22.5133 20.2 22.2533 20.59 21.9233 20.95C21.3533 21.58 20.7333 22.03 20.0133 22.32C19.3233 22.6 18.5733 22.75 17.7833 22.75ZM5.92331 2.75C5.37331 2.75 4.86331 2.99 4.37331 3.47C3.91331 3.9 3.59331 4.37 3.39331 4.88C3.18331 5.4 3.08331 5.95 3.08331 6.54C3.08331 7.47 3.30331 8.48 3.74331 9.52C4.19331 10.58 4.82331 11.68 5.62331 12.78C6.42331 13.88 7.33331 14.95 8.33331 15.96C9.33331 16.95 10.4133 17.87 11.5233 18.68C12.6033 19.47 13.7133 20.11 14.8133 20.57C16.5233 21.3 18.1233 21.47 19.4433 20.92C19.9533 20.71 20.4033 20.39 20.8133 19.93C21.0433 19.68 21.2233 19.41 21.3733 19.09C21.4933 18.84 21.5533 18.58 21.5533 18.32C21.5533 18.16 21.5233 18 21.4433 17.82C21.4133 17.76 21.3533 17.65 21.1633 17.52L17.8433 15.16C17.6433 15.02 17.4633 14.92 17.2933 14.85C17.0733 14.76 16.9833 14.67 16.6433 14.88C16.4433 14.98 16.2633 15.13 16.0633 15.33L15.3033 16.08C14.9133 16.46 14.3133 16.55 13.8533 16.38L13.5833 16.26C13.1733 16.04 12.6933 15.7 12.1633 15.25C11.6833 14.84 11.1633 14.36 10.5333 13.74C10.0433 13.24 9.55331 12.71 9.04331 12.12C8.57331 11.57 8.23331 11.1 8.02331 10.71L7.90331 10.41C7.84331 10.18 7.82331 10.05 7.82331 9.91C7.82331 9.55 7.95331 9.23 8.20331 8.98L8.95331 8.2C9.15331 8 9.30331 7.81 9.40331 7.64C9.48331 7.51 9.51331 7.4 9.51331 7.3C9.51331 7.22 9.48331 7.1 9.43331 6.98C9.36331 6.82 9.25331 6.64 9.11331 6.45L6.79331 3.17C6.69331 3.03 6.57331 2.93 6.42331 2.86C6.26331 2.79 6.09331 2.75 5.92331 2.75ZM14.2833 15.01L14.3215 14.99H14.3933C14.3433 14.98 14.3033 14.99 14.2833 15.01Z" fill="#26A69A"/>
</svg>
