<svg width="25" height="24" viewBox="0 0 25 24" fill="none" xmlns="http://www.w3.org/2000/svg">
<path d="M12.8335 14.75H10.3335C9.92355 14.75 9.58355 14.41 9.58355 14C9.58355 13.59 9.92355 13.25 10.3335 13.25H12.8335C15.4535 13.25 17.5835 11.12 17.5835 8.5C17.5835 5.88 15.4535 3.75 12.8335 3.75H7.83355C5.21355 3.75 3.08355 5.88 3.08355 8.5C3.08355 9.6 3.47355 10.67 4.17355 11.52C4.43355 11.84 4.39355 12.31 4.07355 12.58C3.75355 12.84 3.28355 12.8 3.01355 12.48C2.08355 11.36 1.57355 9.95 1.57355 8.5C1.57355 5.05 4.37355 2.25 7.82355 2.25H12.8235C16.2735 2.25 19.0735 5.05 19.0735 8.5C19.0735 11.95 16.2835 14.75 12.8335 14.75Z" fill="#26A69A"/>
<path d="M16.8333 21.75H11.8333C8.38331 21.75 5.58331 18.95 5.58331 15.5C5.58331 12.05 8.38331 9.25 11.8333 9.25H14.3333C14.7433 9.25 15.0833 9.59 15.0833 10C15.0833 10.41 14.7433 10.75 14.3333 10.75H11.8333C9.21331 10.75 7.08331 12.88 7.08331 15.5C7.08331 18.12 9.21331 20.25 11.8333 20.25H16.8333C19.4533 20.25 21.5833 18.12 21.5833 15.5C21.5833 14.4 21.1933 13.33 20.4933 12.48C20.2333 12.16 20.2733 11.69 20.5933 11.42C20.9133 11.15 21.3833 11.2 21.6533 11.52C22.5833 12.64 23.0933 14.05 23.0933 15.5C23.0833 18.95 20.2833 21.75 16.8333 21.75Z" fill="#26A69A"/>
</svg>
