<svg width="25" height="24" viewBox="0 0 25 24" fill="none" xmlns="http://www.w3.org/2000/svg">
<path d="M17.1667 21.25H7.16672C3.51672 21.25 1.41672 19.15 1.41672 15.5V8.5C1.41672 4.85 3.51672 2.75 7.16672 2.75H17.1667C20.8167 2.75 22.9167 4.85 22.9167 8.5V15.5C22.9167 19.15 20.8167 21.25 17.1667 21.25ZM7.16672 4.25C4.30672 4.25 2.91672 5.64 2.91672 8.5V15.5C2.91672 18.36 4.30672 19.75 7.16672 19.75H17.1667C20.0267 19.75 21.4167 18.36 21.4167 15.5V8.5C21.4167 5.64 20.0267 4.25 17.1667 4.25H7.16672Z" fill="#26A69A"/>
<path d="M12.1665 12.87C11.3265 12.87 10.4765 12.61 9.8265 12.08L6.69649 9.57997C6.37649 9.31997 6.3165 8.84997 6.5765 8.52997C6.8365 8.20997 7.3065 8.14997 7.6265 8.40997L10.7565 10.91C11.5165 11.52 12.8065 11.52 13.5665 10.91L16.6965 8.40997C17.0165 8.14997 17.4965 8.19997 17.7465 8.52997C18.0065 8.84997 17.9565 9.32997 17.6265 9.57997L14.4965 12.08C13.8565 12.61 13.0065 12.87 12.1665 12.87Z" fill="#26A69A"/>
</svg>
