<svg width="54" height="50" viewBox="0 0 54 50" fill="none" xmlns="http://www.w3.org/2000/svg">
<path d="M26.9991 15.3489C26.7712 15.349 26.5458 15.302 26.3369 15.2108L12.6326 9.18087C12.3414 9.05122 12.094 8.83993 11.9203 8.57258C11.7467 8.30523 11.6543 7.99328 11.6543 7.67449C11.6543 7.35571 11.7467 7.04375 11.9203 6.7764C12.094 6.50905 12.3414 6.29776 12.6326 6.16811L26.3369 0.138208C26.5458 0.0470514 26.7712 0 26.9991 0C27.227 0 27.4524 0.0470514 27.6613 0.138208L41.3656 6.16811C41.6569 6.29776 41.9043 6.50905 42.0779 6.7764C42.2515 7.04375 42.3439 7.35571 42.3439 7.67449C42.3439 7.99328 42.2515 8.30523 42.0779 8.57258C41.9043 8.83993 41.6569 9.05122 41.3656 9.18087L27.6613 15.2108C27.4525 15.302 27.227 15.349 26.9991 15.3489Z" fill="white"/>
<path d="M28.993 18.2173C28.3686 18.4928 27.6938 18.6355 27.0113 18.6363C26.3288 18.637 25.6536 18.4959 25.0286 18.2217L16.043 14.2661V15.7747C16.043 17.1122 16.7424 18.3708 17.8673 19.0528C21.027 20.9714 24.0178 21.9296 27.0064 21.9296C29.9951 21.9296 32.9859 20.9692 36.1456 19.0528C37.2704 18.3708 37.9699 17.1144 37.9699 15.7747V14.2661L28.993 18.2173Z" fill="white"/>
<path d="M49.4749 8.77783H46.6244C46.2736 10.7074 45.0018 12.3519 43.1819 13.1632H48.9267V37.2828H5.07288V13.1632H10.8177C9.92978 12.7684 9.15187 12.1624 8.55183 11.3981C7.9518 10.6337 7.54785 9.73413 7.37521 8.77783H4.52471C2.41973 8.77783 0.6875 10.5101 0.6875 12.615V42.2164C0.6875 44.3214 2.41973 46.0536 4.52471 46.0536H21.3207C21.0576 47.1499 20.3779 46.2948 18.5579 48.1367C18.229 48.4436 18.1413 48.9041 18.3167 49.3207C18.4922 49.7373 18.8868 50.0004 19.3254 50.0004H34.6742C35.1128 50.0004 35.5075 49.7373 35.6829 49.3207C35.8583 48.9041 35.7706 48.4436 35.4417 48.1367C33.6217 46.3167 32.9201 47.1499 32.6569 46.0536H49.4749C51.5799 46.0536 53.3121 44.3214 53.3121 42.2164V12.615C53.3121 10.5101 51.5799 8.77783 49.4749 8.77783Z" fill="white"/>
</svg>
