<svg width="32" height="32" viewBox="0 0 32 32" fill="none" xmlns="http://www.w3.org/2000/svg">
<path d="M17.3334 29.3332H6.66669C4.00002 29.3332 2.66669 27.9998 2.66669 25.3332V14.6665C2.66669 11.9998 4.00002 10.6665 6.66669 10.6665H13.3334V25.3332C13.3334 27.9998 14.6667 29.3332 17.3334 29.3332Z" stroke="white" stroke-width="1.78646" stroke-miterlimit="10" stroke-linecap="round" stroke-linejoin="round"/>
<path d="M13.48 5.33301C13.3733 5.73301 13.3333 6.17301 13.3333 6.66634V10.6663H6.66666V7.99967C6.66666 6.53301 7.86666 5.33301 9.33332 5.33301H13.48Z" stroke="white" stroke-width="1.78646" stroke-miterlimit="10" stroke-linecap="round" stroke-linejoin="round"/>
<path d="M18.6667 10.6665V17.3332" stroke="white" stroke-width="1.78646" stroke-miterlimit="10" stroke-linecap="round" stroke-linejoin="round"/>
<path d="M24 10.6665V17.3332" stroke="white" stroke-width="1.78646" stroke-miterlimit="10" stroke-linecap="round" stroke-linejoin="round"/>
<path d="M22.6667 22.667H20C19.2667 22.667 18.6667 23.267 18.6667 24.0003V29.3337H24V24.0003C24 23.267 23.4 22.667 22.6667 22.667Z" stroke="white" stroke-width="1.78646" stroke-miterlimit="10" stroke-linecap="round" stroke-linejoin="round"/>
<path d="M8 17.333V22.6663" stroke="white" stroke-width="1.78646" stroke-miterlimit="10" stroke-linecap="round" stroke-linejoin="round"/>
<path d="M13.3333 25.3337V6.66699C13.3333 4.00033 14.6667 2.66699 17.3333 2.66699H25.3333C28 2.66699 29.3333 4.00033 29.3333 6.66699V25.3337C29.3333 28.0003 28 29.3337 25.3333 29.3337H17.3333C14.6667 29.3337 13.3333 28.0003 13.3333 25.3337Z" stroke="white" stroke-width="1.78646" stroke-miterlimit="10" stroke-linecap="round" stroke-linejoin="round"/>
</svg>
