<svg width="25" height="24" viewBox="0 0 25 24" fill="none" xmlns="http://www.w3.org/2000/svg">
<path d="M16.1667 22.75H8.16672C4.51672 22.75 2.41672 20.65 2.41672 17V7C2.41672 3.35 4.51672 1.25 8.16672 1.25H16.1667C19.8167 1.25 21.9167 3.35 21.9167 7V17C21.9167 20.65 19.8167 22.75 16.1667 22.75ZM8.16672 2.75C5.30672 2.75 3.91672 4.14 3.91672 7V17C3.91672 19.86 5.30672 21.25 8.16672 21.25H16.1667C19.0267 21.25 20.4167 19.86 20.4167 17V7C20.4167 4.14 19.0267 2.75 16.1667 2.75H8.16672Z" fill="#26A69A"/>
<path d="M18.6667 9.25H16.6667C15.1467 9.25 13.9167 8.02 13.9167 6.5V4.5C13.9167 4.09 14.2567 3.75 14.6667 3.75C15.0767 3.75 15.4167 4.09 15.4167 4.5V6.5C15.4167 7.19 15.9767 7.75 16.6667 7.75H18.6667C19.0767 7.75 19.4167 8.09 19.4167 8.5C19.4167 8.91 19.0767 9.25 18.6667 9.25Z" fill="#26A69A"/>
<path d="M12.1667 13.75H8.16672C7.75672 13.75 7.41672 13.41 7.41672 13C7.41672 12.59 7.75672 12.25 8.16672 12.25H12.1667C12.5767 12.25 12.9167 12.59 12.9167 13C12.9167 13.41 12.5767 13.75 12.1667 13.75Z" fill="#26A69A"/>
<path d="M16.1667 17.75H8.16672C7.75672 17.75 7.41672 17.41 7.41672 17C7.41672 16.59 7.75672 16.25 8.16672 16.25H16.1667C16.5767 16.25 16.9167 16.59 16.9167 17C16.9167 17.41 16.5767 17.75 16.1667 17.75Z" fill="#26A69A"/>
</svg>
