<svg width="187" height="187" viewBox="0 0 187 187" fill="none" xmlns="http://www.w3.org/2000/svg">
<g clip-path="url(#clip0_367_4411)">
<path d="M160.541 160.558C195.799 125.301 195.799 68.137 160.541 32.8795C125.284 -2.37791 68.1201 -2.37792 32.8627 32.8795C-2.39476 68.1369 -2.39476 125.301 32.8627 160.558C68.1201 195.815 125.284 195.815 160.541 160.558Z" fill="#FF6C6C"/>
<path d="M96.7188 6.4375V187.002C146.501 187.002 187.001 146.501 187.001 96.7195C187.001 46.9376 146.501 6.4375 96.7188 6.4375Z" fill="#E63950"/>
<path d="M106.601 155.926C139.282 150.457 161.342 119.53 155.873 86.8487C150.404 54.1672 119.477 32.1071 86.7958 37.5761C54.1145 43.045 32.0546 73.9721 37.5236 106.654C42.9926 139.335 73.9195 161.395 106.601 155.926Z" fill="#F0F7FF"/>
<path d="M96.7188 36.7207V156.716C129.802 156.716 156.717 129.801 156.717 96.7183C156.717 63.6358 129.802 36.7207 96.7188 36.7207Z" fill="#DFE7F4"/>
<path d="M123.21 110.241C130.66 95.6192 124.847 77.7266 110.225 70.2766C95.6036 62.8266 77.711 68.6402 70.261 83.2617C62.8109 97.8832 68.6246 115.776 83.2461 123.226C97.8676 130.676 115.76 124.862 123.21 110.241Z" fill="#FF6C6C"/>
<path d="M96.7188 67.0068V126.433C113.103 126.433 126.432 113.104 126.432 96.72C126.432 80.3358 113.103 67.0068 96.7188 67.0068Z" fill="#E63950"/>
<path d="M66.8834 28.1362L40.3552 1.60806C39.7056 0.958095 38.9032 0.481759 38.0215 0.222793C37.1399 -0.0361726 36.2073 -0.069467 35.3094 0.125968C34.4115 0.321403 33.5771 0.739302 32.8829 1.34129C32.1886 1.94327 31.6567 2.71004 31.3361 3.57118L25.9064 18.1392L27.4574 27.448L18.1486 25.897L3.58094 31.3263C2.72013 31.6474 1.95372 32.1794 1.35203 32.8737C0.750342 33.568 0.332638 34.4023 0.13724 35.3C-0.0581573 36.1977 -0.0249908 37.1301 0.233697 38.0116C0.492385 38.8932 0.96831 39.6957 1.61781 40.3455L28.146 66.8736C28.7726 67.5005 29.5418 67.9662 30.3878 68.2308C31.2337 68.4954 32.1312 68.551 33.0033 68.3928L59.2287 63.6386C60.3275 63.4392 61.3393 62.9093 62.129 62.1196C62.9187 61.33 63.4486 60.3182 63.648 59.2194L68.4022 32.994C68.5602 32.1218 68.5046 31.2243 68.2401 30.3783C67.9756 29.5324 67.5101 28.7631 66.8834 28.1362Z" fill="#29376D"/>
<path d="M100.607 92.8402L25.9062 18.1396L23.8001 23.7913L18.1484 25.8974L92.8493 100.598C93.3582 101.108 93.9627 101.513 94.6284 101.789C95.294 102.064 96.0076 102.206 96.7281 102.205C98.132 102.205 99.536 101.669 100.607 100.598C102.749 98.456 102.749 94.9825 100.607 92.8402Z" fill="#47568C"/>
</g>
<defs>
<clipPath id="clip0_367_4411">
<rect width="187" height="187" fill="white"/>
</clipPath>
</defs>
</svg>
