<svg width="178" height="178" viewBox="0 0 178 178" fill="none" xmlns="http://www.w3.org/2000/svg">
<path d="M124.808 161.729C121.193 159.261 116.847 156.723 120.81 153.142C125.538 148.379 124.739 142.608 119.559 138.402C111.91 132.109 112.918 123.07 117.264 114.066L111.423 113.058C106.556 123.835 107.008 135.447 115.665 142.469C119.037 145.563 119.176 146.537 116.569 149.457C109.546 156.897 116.082 163.259 122.896 167.222C114.726 167.709 108.329 167.431 96.4395 170.004C90.7031 171.29 85.5578 173.063 79.8563 171.499C74.5023 170.073 71.9297 168.057 71.7906 167.083L66.1934 167.501C66.6453 172.994 74.0504 175.74 78.3961 176.887C85.0363 178.73 91.2246 176.957 97.5867 175.462C106.591 173.446 113.788 173.202 119.072 173.028C125.225 172.82 129.293 172.646 130.023 168.926C130.753 165.623 127.729 163.642 124.808 161.729Z" fill="#FFB09E"/>
<path d="M49.2971 99.951C56.1807 106.383 60.144 115.317 59.8659 124.704H49.2624C49.5752 115.317 45.612 106.383 38.6936 99.951C7.82173 70.9912 31.8448 18.7385 74.3631 23.6057C37.1292 28.0904 22.0409 74.7111 49.2971 99.951Z" fill="#FFC344"/>
<path d="M91.3633 91.016L98.6641 100.646C92.0238 106.73 88.6168 115.665 88.8602 124.704H59.9004C60.2133 115.317 56.25 106.382 49.3316 99.9508C22.0406 74.7109 37.1637 28.0555 74.3977 23.6055C92.6844 25.7957 107.599 39.1109 112.049 56.6328C94.1793 65.95 76.3445 75.2324 58.4402 84.5496L91.3633 91.016Z" fill="#FFD15B"/>
<path d="M94.6324 131.796C94.6324 135.725 91.4687 138.888 87.5402 138.888H50.5495C45.8214 138.993 42.2406 134.021 43.8398 129.571C44.7784 132.387 47.4554 134.404 50.5495 134.404H87.5402C90.6343 134.404 93.3113 132.422 94.2499 129.571C94.4933 130.267 94.6324 131.031 94.6324 131.796Z" fill="#00C285"/>
<path d="M94.25 129.571C93.3113 132.422 90.6344 134.404 87.5402 134.404H50.5496C47.4207 134.404 44.7785 132.387 43.8398 129.571C44.8133 126.721 47.4555 124.739 50.5496 124.704H87.5402C90.6691 124.704 93.3113 126.755 94.25 129.571Z" fill="#05E39C"/>
<path d="M94.6328 145.981C94.6328 149.875 91.4691 153.073 87.5406 153.073H50.55C45.7871 153.177 42.241 148.206 43.8402 143.756C44.7789 146.572 47.4211 148.588 50.55 148.588H87.5406C90.6347 148.588 93.2769 146.607 94.2504 143.756C94.4937 144.451 94.6328 145.181 94.6328 145.981Z" fill="#00C285"/>
<path d="M94.25 143.756C93.2766 146.607 90.6344 148.588 87.5402 148.588H50.5496C47.4207 148.588 44.7785 146.572 43.8398 143.756C44.7785 140.87 47.4555 138.923 50.5496 138.889H87.5402C90.6344 138.889 93.3113 140.94 94.25 143.756Z" fill="#05E39C"/>
<path d="M82.3949 155.124V160.165C82.3949 164.094 79.2313 167.257 75.3027 167.257H62.7523C58.8238 167.257 55.6602 164.094 55.6602 160.165V155.124C55.6602 159.053 58.8238 162.216 62.7523 162.216H75.3027C79.2313 162.216 82.3949 159.053 82.3949 155.124Z" fill="#00C285"/>
<path d="M82.3949 153.073V155.124C82.3949 159.052 79.2313 162.216 75.3027 162.216H62.7523C58.8238 162.216 55.6602 159.052 55.6602 155.124V153.073H82.3949Z" fill="#05E39C"/>
<path d="M176.088 23.293C167.883 49.8191 159.679 76.3801 151.509 102.906C142.852 101.203 125.33 97.7609 116.743 96.0574C126.477 82.1859 136.246 68.3145 145.946 54.443C132.979 63.1344 104.019 82.5336 91.3293 91.0512L58.4062 84.55C97.6566 64.1426 136.872 43.7352 176.088 23.293Z" fill="#E1F7FF"/>
<path d="M132.909 99.2556L112.293 118.724L116.743 96.0571L132.909 99.2556Z" fill="#8AC9FE"/>
<path d="M146.015 54.4082C136.246 68.2797 126.511 82.1512 116.777 96.0574L112.292 118.725C107.564 112.432 95.9523 97.1004 91.3633 91.0164C103.948 82.6031 133.117 63.0301 146.015 54.4082Z" fill="#C8EFFE"/>
<path d="M69.0445 14.7057C67.5148 14.7057 66.2633 13.4541 66.2633 11.9244V3.09395C66.3328 -0.591211 71.791 -0.591211 71.8605 3.09395V11.8896C71.8605 13.4541 70.609 14.7057 69.0445 14.7057ZM23.5363 115.769C21.1375 115.839 19.7816 112.64 21.5547 111.006L27.7777 104.783C28.8555 103.706 30.6285 103.706 31.741 104.783C32.8188 105.861 32.8188 107.634 31.741 108.747L25.518 114.97C24.9965 115.491 24.2664 115.769 23.5363 115.769ZM108.33 30.976C105.931 31.0455 104.575 27.8471 106.348 26.2131L112.571 19.99C113.649 18.9123 115.422 18.9123 116.534 19.99C117.612 21.0678 117.612 22.8408 116.534 23.9533L110.311 30.1764C109.755 30.6979 109.06 30.976 108.33 30.976ZM13.4891 70.2611H4.69336C3.16367 70.2611 1.91211 69.0096 1.91211 67.4799C1.91211 65.9502 3.16367 64.6986 4.69336 64.6986H13.4891C17.1742 64.7334 17.1742 70.1916 13.4891 70.2611ZM29.7594 30.976C29.0293 30.976 28.334 30.6979 27.7777 30.1416L21.5547 23.9186C20.477 22.8408 20.477 21.0678 21.5547 19.9553C22.6324 18.8775 24.4055 18.8775 25.518 19.9553L31.741 26.1783C33.5488 27.8471 32.1582 31.0455 29.7594 30.976Z" fill="#FEB237"/>
<path d="M69.0449 14.7057C67.5152 14.7057 66.2637 13.4541 66.2637 11.9244V3.09395C66.3332 -0.591211 71.7914 -0.591211 71.8609 3.09395V11.8896C71.8609 13.4541 70.6094 14.7057 69.0449 14.7057Z" fill="#FEB237"/>
</svg>
