<svg width="81" height="80" viewBox="0 0 81 80" fill="none" xmlns="http://www.w3.org/2000/svg">
<rect x="0.5" width="80" height="80" fill="#D9D9D9" fill-opacity="0.1"/>
<g clip-path="url(#clip0_372_4568)">
<path d="M40.5 18.0586C28.357 18.0672 18.5172 27.907 18.5 40.0586C19.7117 69.243 61.2969 69.2344 62.5 40.0586C62.4828 27.907 52.643 18.0672 40.5 18.0586ZM40.5 60.718C29.0875 60.7094 19.8492 51.4625 19.832 40.0586C20.9664 12.6445 60.0336 12.6531 61.168 40.0586C61.1508 51.4625 51.9125 60.7094 40.5 60.718Z" fill="#20DA02"/>
<path d="M24.0346 37.3502C24.3956 37.4189 24.7479 37.1869 24.8253 36.826C26.1057 30.5525 31.0042 25.6541 37.2776 24.3736C37.6385 24.2963 37.8706 23.9525 37.8018 23.5916C37.7331 23.2307 37.3807 22.9986 37.0198 23.0674C30.2221 24.451 24.9112 29.7705 23.5276 36.5682C23.4503 36.9291 23.6823 37.2728 24.0346 37.3502ZM37.2776 55.7322C31.0042 54.4518 26.1057 49.5533 24.8253 43.2799C24.6276 42.4463 23.3729 42.6955 23.5276 43.5463C24.9112 50.3439 30.2221 55.6549 37.0198 57.0299C37.862 57.1588 38.1112 55.9385 37.2776 55.7322ZM56.9659 42.7557C56.6049 42.6869 56.2526 42.9189 56.1753 43.2799C54.8948 49.5533 49.9964 54.4518 43.7229 55.7322C43.362 55.8096 43.1385 56.1705 43.2159 56.5314C43.2846 56.8322 43.5424 57.0471 43.8518 57.0557C50.7096 55.7322 56.0893 50.3955 57.4729 43.5463C57.5589 43.1853 57.3268 42.833 56.9659 42.7557ZM43.7229 24.3822C49.9964 25.6627 54.8948 30.5611 56.1753 36.8346C56.3815 37.6596 57.619 37.4189 57.4815 36.5682C56.0979 29.7705 50.787 24.4596 43.9893 23.076C43.6284 22.9986 43.276 23.2307 43.1987 23.5916C43.1299 23.9525 43.362 24.3049 43.7229 24.3822ZM48.7503 30.9478L36.4956 35.6658C36.3237 35.7346 36.1862 35.8721 36.1174 36.0439L31.3909 48.3158C31.176 48.8314 31.7346 49.3986 32.2503 49.1752L44.5049 44.4572C44.6768 44.3885 44.8229 44.251 44.8831 44.0705L49.6096 31.8072C49.8159 31.2916 49.2659 30.7416 48.7503 30.9478ZM33.1784 47.3791L36.9854 37.4791L43.0784 43.5721L33.1784 47.3791ZM44.0151 42.6268L37.9221 36.5338L47.8221 32.7268L44.0151 42.6268ZM26.501 40.0572C26.501 39.6877 26.2003 39.3869 25.8307 39.3869H21.8346C21.4651 39.3697 21.1557 39.6619 21.1471 40.0314C21.1299 40.4182 21.4565 40.7361 21.8346 40.7189H25.8307C26.2003 40.7189 26.501 40.4182 26.501 40.0572ZM59.1659 39.3869H55.1698C54.2932 39.3783 54.2417 40.6674 55.1182 40.7189H59.1659C59.5354 40.7018 59.819 40.3924 59.8104 40.0314C59.7932 39.6791 59.5182 39.3955 59.1659 39.3869ZM40.5003 54.0564C40.1307 54.0564 39.8299 54.3572 39.8299 54.7268V58.7228C39.8471 59.0924 40.1565 59.376 40.5174 59.3674C40.8698 59.3502 41.1448 59.0752 41.162 58.7228V54.7268C41.1706 54.3486 40.8698 54.0564 40.5003 54.0564ZM40.5003 26.0494C40.8698 26.0494 41.1706 25.7486 41.1706 25.3791V21.383C41.1534 21.0135 40.844 20.7299 40.4831 20.7385C40.1307 20.7557 39.8557 21.0307 39.8385 21.383V25.3877C39.8385 25.7572 40.1307 26.0494 40.5003 26.0494Z" fill="#20DA02"/>
</g>
<defs>
<clipPath id="clip0_372_4568">
<rect width="44" height="44" fill="white" transform="translate(18.5 18)"/>
</clipPath>
</defs>
</svg>
