<svg width="81" height="80" viewBox="0 0 81 80" fill="none" xmlns="http://www.w3.org/2000/svg">
<rect x="0.5" width="80" height="80" fill="#D9D9D9" fill-opacity="0.1"/>
<g clip-path="url(#clip0_372_4521)">
<path d="M45.6562 40.3438C45.1819 40.3438 44.7969 40.7287 44.7969 41.2031C44.7969 41.6775 45.1819 42.0625 45.6562 42.0625C46.1306 42.0625 46.5156 41.6775 46.5156 41.2031C46.5156 40.7287 46.1306 40.3438 45.6562 40.3438Z" fill="#1D9FFE"/>
<path d="M18.7135 38.3326C18.7159 38.3353 18.7179 38.3383 18.7203 38.3409L18.7213 38.3421L39.8619 61.7171C40.0194 61.8913 40.2581 62 40.4993 62C40.7397 62 40.978 61.8925 41.1367 61.7171L62.2773 38.3421L62.2783 38.3409C62.2807 38.3382 62.2826 38.3353 62.285 38.3326C62.4169 38.1825 62.4924 37.9912 62.4983 37.7914C62.5043 37.5917 62.4404 37.3962 62.3177 37.2385C62.3153 37.2354 62.3135 37.2319 62.311 37.2288L55.436 28.635C55.3555 28.5344 55.2534 28.4531 55.1372 28.3973C55.021 28.3415 54.8938 28.3125 54.7649 28.3125H26.2337C26.1048 28.3125 25.9775 28.3415 25.8614 28.3973C25.7452 28.4531 25.6431 28.5344 25.5626 28.635L18.6876 37.2288C18.6851 37.2319 18.6834 37.2353 18.6809 37.2385C18.5582 37.3962 18.4944 37.5917 18.5004 37.7914C18.5063 37.9911 18.5817 38.1825 18.7135 38.3326ZM35.8295 30.0312H45.169L49.294 36.9062H31.7045L35.8295 30.0312ZM31.5052 38.625H49.4933L40.4992 59.0116L31.5052 38.625ZM51.3719 38.625H59.704L43.4366 56.6115L51.3719 38.625ZM29.6266 38.625L37.5618 56.6115L21.2945 38.625H29.6266ZM59.8518 36.9062H51.2983L47.1733 30.0312H54.3518L59.8518 36.9062ZM26.6466 30.0312H33.8251L29.7001 36.9062H21.1466L26.6466 30.0312Z" fill="#1D9FFE"/>
<path d="M42.2188 40.3438H35.8405C35.3658 40.3438 34.9811 40.7285 34.9811 41.2031C34.9811 41.6778 35.3658 42.0625 35.8405 42.0625H42.2188C42.6934 42.0625 43.0781 41.6778 43.0781 41.2031C43.0781 40.7285 42.6934 40.3438 42.2188 40.3438ZM40.5 24.875C40.9746 24.875 41.3594 24.4903 41.3594 24.0156V18.8594C41.3594 18.3847 40.9746 18 40.5 18C40.0254 18 39.6406 18.3847 39.6406 18.8594V24.0156C39.6406 24.4903 40.0254 24.875 40.5 24.875ZM46.264 24.6233L49.7015 21.1858C50.0371 20.8502 50.0371 20.306 49.7015 19.9704C49.3659 19.6347 48.8218 19.6348 48.4861 19.9704L45.0486 23.4079C44.713 23.7435 44.713 24.2876 45.0486 24.6233C45.3842 24.9589 45.9283 24.959 46.264 24.6233ZM34.7361 24.6233C35.0717 24.9589 35.6158 24.9589 35.9515 24.6233C36.2871 24.2877 36.2871 23.7435 35.9515 23.4079L32.514 19.9704C32.1784 19.6348 31.6343 19.6348 31.2986 19.9704C30.9629 20.306 30.963 20.8501 31.2986 21.1858L34.7361 24.6233Z" fill="#1D9FFE"/>
</g>
<defs>
<clipPath id="clip0_372_4521">
<rect width="44" height="44" fill="white" transform="translate(18.5 18)"/>
</clipPath>
</defs>
</svg>
