<svg width="20" height="20" viewBox="0 0 20 20" fill="none" xmlns="http://www.w3.org/2000/svg">
<path d="M9.99977 6.3319C9.91316 6.33193 9.82748 6.31405 9.74811 6.2794L4.53977 3.98773C4.42909 3.93846 4.33506 3.85815 4.26908 3.75655C4.20309 3.65494 4.16797 3.53638 4.16797 3.41523C4.16797 3.29407 4.20309 3.17552 4.26908 3.07391C4.33506 2.9723 4.42909 2.892 4.53977 2.84273L9.74811 0.551061C9.82749 0.516417 9.91316 0.498535 9.99977 0.498535C10.0864 0.498535 10.1721 0.516417 10.2514 0.551061L15.4598 2.84273C15.5705 2.892 15.6645 2.9723 15.7305 3.07391C15.7965 3.17552 15.8316 3.29407 15.8316 3.41523C15.8316 3.53638 15.7965 3.65494 15.7305 3.75655C15.6645 3.85815 15.5705 3.93846 15.4598 3.98773L10.2514 6.2794C10.1721 6.31405 10.0864 6.33193 9.99977 6.3319Z" fill="white"/>
<path d="M10.7576 7.42208C10.5203 7.52678 10.2638 7.581 10.0044 7.58129C9.74507 7.58157 9.48847 7.52792 9.25094 7.42374L5.83594 5.92041V6.49374C5.83594 7.00208 6.10177 7.48041 6.52927 7.73958C7.7301 8.46874 8.86677 8.83291 10.0026 8.83291C11.1384 8.83291 12.2751 8.46791 13.4759 7.73958C13.9034 7.48041 14.1693 7.00291 14.1693 6.49374V5.92041L10.7576 7.42208Z" fill="white"/>
<path d="M18.5417 3.83447H17.4583C17.325 4.56781 16.8417 5.19281 16.15 5.50114H18.3333V14.6678H1.66667V5.50114H3.85C3.51253 5.3511 3.21689 5.1208 2.98884 4.83029C2.7608 4.53979 2.60728 4.19792 2.54167 3.83447H1.45833C0.658333 3.83447 0 4.49281 0 5.29281V16.5428C0 17.3428 0.658333 18.0011 1.45833 18.0011H7.84167C7.74167 18.4178 7.48333 18.0928 6.79167 18.7928C6.66667 18.9095 6.63333 19.0845 6.7 19.2428C6.76667 19.4011 6.91667 19.5011 7.08333 19.5011H12.9167C13.0833 19.5011 13.2333 19.4011 13.3 19.2428C13.3667 19.0845 13.3333 18.9095 13.2083 18.7928C12.5167 18.1011 12.25 18.4178 12.15 18.0011H18.5417C19.3417 18.0011 20 17.3428 20 16.5428V5.29281C20 4.49281 19.3417 3.83447 18.5417 3.83447Z" fill="white"/>
</svg>
