<svg width="170" height="177" viewBox="0 0 170 177" fill="none" xmlns="http://www.w3.org/2000/svg">
<path fill-rule="evenodd" clip-rule="evenodd" d="M19.0288 68.6905C20.0067 69.6504 21.5608 69.6356 22.53 68.6729C34.1492 57.5128 46.3832 51.8361 58.8572 51.6939C71.0034 51.5571 83.2744 56.8191 95.3137 67.2449C97.9898 69.5205 102.126 74.2587 105.765 79.8529C102.712 84.2385 100.677 89.432 99.6728 94.4355C98.1911 101.825 99.27 108.62 101.712 111.985C103.065 113.849 104.81 114.991 106.85 115.467C109.461 116.072 113.01 115.532 117.082 112.083C122.701 107.301 124.066 100.474 122.388 92.96C121.501 89.0101 119.712 84.8649 117.482 80.8815C120.062 78.825 123.271 77.6354 127.177 78.0637C135.446 78.9144 141.645 85.6942 146.055 93.6712C149.879 100.572 154.486 110.767 153.268 118.867C152.856 121.62 151.65 123.986 153.925 126.236C157.408 129.717 160.601 126.113 161.173 122.332C162.397 114.21 159.498 104.426 156.636 96.9332C151.385 83.1445 141.531 70.7428 128.225 69.0331C121.987 68.2602 116.695 69.9166 112.407 72.9942C108.338 67.3546 103.949 62.6886 101.069 60.3468C86.8198 48.9921 72.4791 43.7117 58.604 44.5149C44.7427 45.3101 31.2992 52.1063 19.0113 65.1941C18.0499 66.1706 18.051 67.7305 19.0288 68.6905ZM111.452 90.8019C112.317 93.0935 112.902 95.345 113.073 97.4858C113.287 100.208 112.761 102.733 110.636 104.527C110.276 104.826 109.838 105.244 109.478 105.544C109.207 104.598 108.738 102.739 108.732 101.201C108.732 97.7674 109.514 93.6818 111.082 89.8767C111.23 90.1956 111.348 90.4948 111.452 90.8019Z" fill="#303030"/>
<path fill-rule="evenodd" clip-rule="evenodd" d="M109.151 105.805C108.908 105.67 108.674 105.584 108.693 105.776C108.722 106.016 108.883 105.978 109.151 105.805Z" fill="#303030"/>
<path fill-rule="evenodd" clip-rule="evenodd" d="M25.8368 63.2606C26.969 60.7353 28.0629 58.0485 28.8433 55.4873C30.0439 51.4905 30.5588 47.8341 29.5714 45.1723C29.2634 43.8445 27.9227 43.0203 26.6011 43.3417C25.2715 43.6493 24.4461 44.988 24.7679 46.3079C24.836 46.9662 24.606 47.6496 24.3883 48.4176C23.8908 50.2282 22.7776 52.1184 21.5663 54.1569C20.0178 56.757 18.1553 59.3546 16.5665 61.7577C15.1207 63.9314 13.9153 65.9482 13.1483 67.547C11.9371 70.0628 11.8715 72.1751 12.1456 73.4123C12.2221 73.7354 14.9075 78.5392 19.5002 76.6256C21.1421 75.936 25.2112 73.9754 25.4122 73.8779C27.8569 72.5418 32.398 70.1256 36.723 68.862C38.0898 68.4596 39.4093 68.1027 40.6117 68.052C40.6754 68.1621 40.7391 68.2723 40.8165 68.3745C41.9394 69.9668 44.1232 70.3417 45.7257 69.2342C46.614 68.7037 47.7724 67.2096 48.0824 66.3149C48.677 64.5769 48.0151 63.1777 46.3906 62.0215C44.1778 60.4517 40.9767 60.0025 37.378 60.2966C33.5958 60.623 29.3105 61.9554 25.8368 63.2606ZM21.8423 71.3281C21.5741 71.8499 21.483 72.2329 21.8447 72.3181C22.25 72.4149 21.9803 71.7259 21.8423 71.3281Z" fill="#303030"/>
</svg>
