<svg width="24" height="24" viewBox="0 0 24 24" fill="none" xmlns="http://www.w3.org/2000/svg">
<path d="M19.4775 16.7475C19.4775 17.0175 19.4175 17.295 19.29 17.565C19.1625 17.835 18.9975 18.09 18.78 18.33C18.4125 18.735 18.0075 19.0275 17.55 19.215C17.1 19.4025 16.6125 19.5 16.0875 19.5C15.3225 19.5 14.505 19.32 13.6425 18.9525C12.78 18.585 11.9175 18.09 11.0625 17.4675C10.2 16.8375 9.3825 16.14 8.6025 15.3675C7.83 14.5875 7.1325 13.77 6.51 12.915C5.895 12.06 5.4 11.205 5.04 10.3575C4.68 9.5025 4.5 8.685 4.5 7.905C4.5 7.395 4.59 6.9075 4.77 6.4575C4.95 6 5.235 5.58 5.6325 5.205C6.1125 4.7325 6.6375 4.5 7.1925 4.5C7.4025 4.5 7.6125 4.545 7.8 4.635C7.995 4.725 8.1675 4.86 8.3025 5.055L10.0425 7.5075C10.1775 7.695 10.275 7.8675 10.3425 8.0325C10.41 8.19 10.4475 8.3475 10.4475 8.49C10.4475 8.67 10.395 8.85 10.29 9.0225C10.1925 9.195 10.05 9.375 9.87 9.555L9.3 10.1475C9.2175 10.23 9.18 10.3275 9.18 10.4475C9.18 10.5075 9.1875 10.56 9.2025 10.62C9.225 10.68 9.2475 10.725 9.2625 10.77C9.3975 11.0175 9.63 11.34 9.96 11.73C10.2975 12.12 10.6575 12.5175 11.0475 12.915C11.4525 13.3125 11.8425 13.68 12.24 14.0175C12.63 14.3475 12.9525 14.5725 13.2075 14.7075C13.245 14.7225 13.29 14.745 13.3425 14.7675C13.4025 14.79 13.4625 14.7975 13.53 14.7975C13.6575 14.7975 13.755 14.7525 13.8375 14.67L14.4075 14.1075C14.595 13.92 14.775 13.7775 14.9475 13.6875C15.12 13.5825 15.2925 13.53 15.48 13.53C15.6225 13.53 15.7725 13.56 15.9375 13.6275C16.1025 13.695 16.275 13.7925 16.4625 13.92L18.945 15.6825C19.14 15.8175 19.275 15.975 19.3575 16.1625C19.4325 16.35 19.4775 16.5375 19.4775 16.7475Z" stroke="white" stroke-width="1.125" stroke-miterlimit="10"/>
</svg>
