<svg width="24" height="24" viewBox="0 0 24 24" fill="none" xmlns="http://www.w3.org/2000/svg">
<path fill-rule="evenodd" clip-rule="evenodd" d="M11.977 2.5723C11.2599 2.55945 10.5473 2.68821 9.8801 2.95121C9.21288 3.21422 8.60412 3.60629 8.08869 4.10498C7.57325 4.60366 7.16127 5.19914 6.87638 5.85732C6.5927 6.51267 6.44057 7.21735 6.42857 7.93131V15.4286C6.42857 16.3753 5.66105 17.1429 4.71429 17.1429H2.57143C1.15127 17.1429 0 15.9916 0 14.5714V11.1429C0 9.72269 1.15127 8.57143 2.57143 8.57143H3.85714V7.90166C3.87309 6.84631 4.09726 5.80445 4.51654 4.83583C4.93582 3.86721 5.54213 2.99083 6.30069 2.25693C7.05924 1.52301 7.95518 0.945993 8.93712 0.558931C9.91191 0.174687 10.9525 -0.0148615 12 0.000909105C13.0475 -0.0148615 14.0881 0.174687 15.0629 0.558931C16.0448 0.945993 16.9408 1.52301 17.6993 2.25693C18.4579 2.99083 19.0642 3.86721 19.4834 4.83583C19.9027 5.80445 20.1267 6.84631 20.1427 7.90166L20.143 7.92108L20.1429 8.57143H21.4286C22.8487 8.57143 24 9.72269 24 11.1429V14.5714C24 15.9916 22.8487 17.1429 21.4286 17.1429H20.1429V18C20.1429 19.2502 19.6462 20.4494 18.762 21.3334C18.0038 22.0917 17.0139 22.565 15.9587 22.6845C15.5185 23.4694 14.6784 24 13.7143 24H11.1429C9.72269 24 8.57143 22.8487 8.57143 21.4286C8.57143 20.0085 9.72269 18.8571 11.1429 18.8571H13.7143C14.6434 18.8571 15.4574 19.3498 15.9092 20.0883C16.2979 19.9989 16.6573 19.8017 16.9438 19.5153C17.3457 19.1134 17.5714 18.5683 17.5714 18V7.93133C17.5594 7.21737 17.4074 6.51267 17.1236 5.85732C16.8387 5.19914 16.4267 4.60366 15.9113 4.10498C15.3959 3.60629 14.7871 3.21422 14.1199 2.95121C13.4527 2.68821 12.7401 2.55945 12.023 2.5723C12.0077 2.57258 11.9923 2.57258 11.977 2.5723Z" fill="white"/>
</svg>
