<svg width="32" height="32" viewBox="0 0 32 32" fill="none" xmlns="http://www.w3.org/2000/svg">
<path d="M13.7068 7.29614C13.7068 5.94995 14.802 4.85474 16.1482 4.85474H16.9931L16.7382 4.14624C16.5949 3.7478 16.2194 3.5 15.8192 3.5C15.7083 3.5 15.5955 3.51904 15.4853 3.55918L6.94753 6.66665C6.43996 6.85142 6.17873 7.41309 6.36457 7.92026L6.81569 9.15161H13.7068V7.29614Z" fill="#E4F1FE"/>
<path d="M16.1465 6.32031C15.6071 6.32031 15.1699 6.75752 15.1699 7.29688V9.15234H23.7148V7.29688C23.7148 6.75752 23.2776 6.32031 22.7383 6.32031H16.1465ZM26.3027 23.2393H22.8848C20.8655 23.2393 19.2227 21.5964 19.2227 19.5771C19.2227 17.5579 20.8655 15.915 22.8848 15.915H26.3027V12.5703C26.3027 11.4917 25.4283 10.6172 24.3496 10.6172H5.45312C4.37446 10.6172 3.5 11.4917 3.5 12.5703V26.5476C3.5 27.6263 4.37446 28.5007 5.45312 28.5007H24.3496C25.4283 28.5007 26.3027 27.6263 26.3027 26.5476V23.2393Z" fill="#0884F7"/>
<path d="M27.7676 17.3789H22.8848C21.6732 17.3789 20.6875 18.3646 20.6875 19.5762C20.6875 20.7877 21.6732 21.7734 22.8848 21.7734H27.7676C28.1714 21.7734 28.5 21.4449 28.5 21.041V18.1113C28.5 17.7075 28.1714 17.3789 27.7676 17.3789ZM22.8848 20.3086C22.4803 20.3086 22.1523 19.9807 22.1523 19.5762C22.1523 19.1717 22.4803 18.8438 22.8848 18.8438C23.2893 18.8438 23.6172 19.1717 23.6172 19.5762C23.6172 19.9807 23.2893 20.3086 22.8848 20.3086Z" fill="#E4F1FE"/>
</svg>
